<svg width="370" height="300" viewBox="0 0 370 300" fill="none" xmlns="http://www.w3.org/2000/svg">
<g clip-path="url(#clip0_2335_24485)">
<path d="M290.782 233.526C290.742 233.459 290.691 233.4 290.629 233.353C290.567 233.306 290.496 233.272 290.421 233.252C290.346 233.233 290.268 233.229 290.191 233.24C290.115 233.251 290.041 233.277 289.974 233.317L288.011 234.476L286.855 232.507C286.775 232.372 286.645 232.275 286.494 232.236C286.343 232.197 286.182 232.22 286.048 232.3C285.913 232.38 285.816 232.51 285.777 232.662C285.739 232.814 285.762 232.975 285.841 233.11L286.997 235.079L285.034 236.238C284.967 236.277 284.909 236.329 284.862 236.392C284.816 236.454 284.783 236.525 284.764 236.6C284.734 236.713 284.739 236.833 284.777 236.943C284.815 237.054 284.886 237.15 284.979 237.221C285.072 237.291 285.184 237.332 285.301 237.338C285.417 237.344 285.533 237.315 285.633 237.255L287.596 236.096L288.75 238.065C288.812 238.17 288.906 238.253 289.017 238.303C289.129 238.353 289.253 238.367 289.373 238.343C289.438 238.331 289.501 238.306 289.557 238.271C289.691 238.192 289.788 238.062 289.828 237.911C289.867 237.76 289.844 237.599 289.766 237.464L288.61 235.495L290.573 234.336C290.64 234.296 290.698 234.244 290.745 234.182C290.791 234.12 290.825 234.049 290.845 233.974C290.864 233.899 290.868 233.821 290.858 233.744C290.847 233.667 290.821 233.593 290.782 233.526Z" fill="#3E7BFA"/>
<path d="M295.736 246.504C295.229 246.504 294.732 246.353 294.31 246.07C293.888 245.787 293.559 245.385 293.365 244.915C293.171 244.444 293.12 243.927 293.219 243.427C293.318 242.928 293.562 242.469 293.921 242.109C294.28 241.749 294.738 241.504 295.236 241.405C295.733 241.305 296.25 241.356 296.719 241.551C297.188 241.746 297.589 242.076 297.871 242.499C298.153 242.923 298.303 243.421 298.303 243.93C298.303 244.612 298.032 245.267 297.551 245.749C297.069 246.232 296.417 246.503 295.736 246.504ZM295.736 242.734C295.5 242.734 295.269 242.804 295.072 242.936C294.876 243.068 294.722 243.255 294.632 243.474C294.542 243.693 294.518 243.934 294.564 244.167C294.611 244.399 294.725 244.613 294.892 244.781C295.06 244.948 295.273 245.062 295.505 245.108C295.737 245.154 295.977 245.13 296.195 245.039C296.414 244.948 296.6 244.794 296.731 244.596C296.862 244.399 296.932 244.167 296.931 243.93C296.931 243.612 296.805 243.308 296.581 243.084C296.356 242.859 296.053 242.734 295.736 242.734Z" fill="#3E7BFA"/>
<path d="M36.5265 284.277C36.0187 284.278 35.5221 284.127 35.0997 283.845C34.6772 283.562 34.3478 283.16 34.1531 282.69C33.9585 282.219 33.9073 281.702 34.0061 281.202C34.1048 280.703 34.3491 280.244 34.708 279.883C35.0669 279.523 35.5243 279.278 36.0223 279.178C36.5203 279.079 37.0366 279.129 37.5058 279.324C37.975 279.519 38.3761 279.849 38.6582 280.272C38.9404 280.696 39.091 281.194 39.091 281.703C39.0904 282.385 38.82 283.039 38.3393 283.522C37.8586 284.004 37.2067 284.276 36.5265 284.277ZM36.5265 280.504C36.2901 280.504 36.059 280.575 35.8625 280.706C35.6659 280.838 35.5128 281.025 35.4223 281.244C35.3318 281.463 35.3082 281.704 35.3543 281.937C35.4004 282.169 35.5142 282.383 35.6814 282.55C35.8485 282.718 36.0615 282.832 36.2933 282.878C36.5252 282.925 36.7655 282.901 36.9838 282.81C37.2022 282.72 37.3889 282.566 37.5202 282.369C37.6515 282.172 37.7216 281.94 37.7216 281.703C37.7203 281.386 37.5939 281.082 37.37 280.858C37.1461 280.634 36.8428 280.507 36.5265 280.507V280.504Z" fill="#3E7BFA"/>
<path d="M320.721 7.49958C320.214 7.49958 319.717 7.34865 319.295 7.06587C318.873 6.78309 318.544 6.38115 318.35 5.91087C318.156 5.44058 318.105 4.92306 318.203 4.42373C318.302 3.92439 318.547 3.46566 318.905 3.10551C319.264 2.74536 319.721 2.49997 320.219 2.40036C320.717 2.30074 321.233 2.35137 321.702 2.54585C322.171 2.74033 322.572 3.06993 322.854 3.49298C323.137 3.91603 323.288 4.41354 323.288 4.92262C323.288 5.26092 323.222 5.59596 323.093 5.90859C322.965 6.22123 322.776 6.50533 322.537 6.74466C322.299 6.98398 322.016 7.17384 321.704 7.30337C321.392 7.43291 321.058 7.49958 320.721 7.49958ZM320.721 3.7289C320.485 3.7289 320.254 3.7992 320.057 3.93091C319.861 4.06262 319.708 4.24982 319.617 4.46884C319.527 4.68787 319.503 4.92887 319.549 5.16139C319.595 5.3939 319.709 5.60748 319.876 5.77511C320.043 5.94274 320.256 6.0569 320.488 6.10315C320.72 6.1494 320.96 6.12567 321.179 6.03494C321.397 5.94422 321.584 5.79059 321.715 5.59347C321.846 5.39636 321.916 5.16461 321.916 4.92754C321.916 4.60964 321.79 4.30476 321.566 4.07998C321.342 3.85519 321.038 3.7289 320.721 3.7289Z" fill="#3E7BFA"/>
<path d="M364.652 72.6864C364.513 72.7558 364.406 72.8778 364.355 73.0257C364.305 73.1737 364.315 73.3357 364.382 73.4765L365.364 75.5243L363.322 76.5088C363.252 76.5424 363.19 76.5896 363.138 76.6477C363.087 76.7058 363.047 76.7736 363.022 76.8471C362.997 76.9207 362.987 76.9985 362.992 77.076C362.997 77.1536 363.018 77.2293 363.052 77.2989C363.086 77.3686 363.132 77.4309 363.19 77.4821C363.248 77.5332 363.315 77.5722 363.389 77.5967C363.461 77.6223 363.539 77.6331 363.616 77.6285C363.693 77.6238 363.768 77.6038 363.838 77.5696L365.879 76.5851L366.861 78.6329C366.931 78.7735 367.052 78.8813 367.2 78.9332C367.273 78.959 367.35 78.9697 367.427 78.9646C367.505 78.9595 367.58 78.9388 367.649 78.9036C367.718 78.87 367.781 78.8229 367.832 78.7651C367.883 78.7072 367.923 78.6398 367.948 78.5666C367.974 78.4934 367.984 78.4159 367.98 78.3386C367.975 78.2613 367.955 78.1857 367.921 78.116L366.94 76.0682L368.979 75.0714C369.049 75.0375 369.111 74.9901 369.162 74.932C369.214 74.874 369.253 74.8063 369.278 74.733C369.304 74.6596 369.314 74.582 369.31 74.5045C369.305 74.427 369.285 74.3512 369.251 74.2813C369.218 74.2115 369.17 74.1491 369.112 74.0976C369.055 74.0461 368.987 74.0065 368.914 73.9811C368.841 73.9557 368.763 73.9451 368.686 73.9497C368.609 73.9544 368.533 73.9742 368.464 74.0081L366.422 75.005L365.428 72.9596C365.359 72.8222 365.24 72.7168 365.095 72.6658C364.951 72.6149 364.792 72.6223 364.652 72.6864Z" fill="#3E7BFA"/>
<path d="M327.573 121.671C327.066 121.671 326.569 121.52 326.147 121.237C325.725 120.954 325.396 120.552 325.202 120.081C325.007 119.611 324.957 119.093 325.056 118.594C325.155 118.095 325.399 117.636 325.758 117.276C326.117 116.916 326.575 116.671 327.073 116.571C327.571 116.472 328.087 116.523 328.556 116.718C329.025 116.913 329.426 117.243 329.708 117.666C329.99 118.089 330.14 118.587 330.14 119.096C330.14 119.779 329.869 120.433 329.388 120.916C328.906 121.399 328.254 121.67 327.573 121.671ZM327.573 117.898C327.337 117.898 327.106 117.968 326.909 118.1C326.713 118.231 326.56 118.419 326.469 118.638C326.379 118.857 326.355 119.098 326.401 119.33C326.447 119.563 326.561 119.776 326.728 119.944C326.895 120.111 327.108 120.226 327.34 120.272C327.572 120.318 327.812 120.294 328.031 120.204C328.249 120.113 328.436 119.959 328.567 119.762C328.698 119.565 328.769 119.333 328.769 119.096C328.769 118.939 328.738 118.782 328.678 118.637C328.618 118.491 328.53 118.359 328.419 118.247C328.308 118.136 328.176 118.047 328.031 117.987C327.886 117.926 327.731 117.895 327.573 117.895V117.898Z" fill="#3E7BFA"/>
<path d="M0.313892 157.554C0.200426 157.661 0.134111 157.809 0.12951 157.966C0.124909 158.122 0.182397 158.274 0.289351 158.388L1.8428 160.049L0.186279 161.607C0.101315 161.687 0.0418523 161.79 0.0154012 161.904C-0.01105 162.018 -0.00330241 162.137 0.0376652 162.246C0.0786328 162.356 0.150982 162.45 0.245574 162.518C0.340165 162.586 0.452755 162.625 0.569119 162.629C0.722093 162.631 0.870043 162.574 0.981408 162.469L2.63793 160.911L4.19137 162.572C4.24398 162.629 4.30734 162.674 4.37772 162.706C4.4481 162.738 4.52408 162.755 4.60121 162.757C4.75707 162.762 4.90869 162.705 5.02331 162.599C5.08003 162.546 5.12573 162.482 5.1578 162.412C5.18987 162.341 5.20766 162.264 5.21017 162.186C5.21268 162.109 5.19985 162.031 5.17242 161.958C5.14498 161.886 5.10349 161.819 5.05031 161.762L3.49686 160.103L5.15338 158.545C5.24193 158.461 5.30243 158.352 5.32659 158.232C5.35075 158.112 5.3374 157.988 5.28836 157.876C5.26266 157.814 5.22608 157.758 5.18038 157.709C5.07282 157.595 4.92463 157.528 4.76825 157.524C4.61186 157.519 4.46003 157.577 4.34598 157.684L2.69928 159.244L1.14583 157.586C1.0397 157.471 0.892461 157.403 0.736465 157.397C0.580469 157.391 0.428479 157.447 0.313892 157.554Z" fill="#3E7BFA"/>
<path d="M25.6036 185.853C25.0958 185.854 24.5993 185.703 24.1768 185.421C23.7544 185.138 23.425 184.736 23.2303 184.266C23.0356 183.795 22.9844 183.278 23.0832 182.778C23.182 182.279 23.4263 181.82 23.7852 181.459C24.1441 181.099 24.6015 180.854 25.0995 180.754C25.5975 180.654 26.1137 180.705 26.5829 180.9C27.0521 181.095 27.4532 181.425 27.7354 181.848C28.0175 182.272 28.1682 182.77 28.1682 183.279C28.1675 183.961 27.8972 184.615 27.4165 185.098C26.9357 185.58 26.2838 185.852 25.6036 185.853ZM25.6036 182.08C25.3672 182.08 25.1362 182.151 24.9396 182.282C24.7431 182.414 24.5899 182.601 24.4995 182.82C24.409 183.039 24.3853 183.28 24.4314 183.513C24.4776 183.745 24.5914 183.959 24.7585 184.126C24.9257 184.294 25.1386 184.408 25.3705 184.454C25.6023 184.501 25.8426 184.477 26.061 184.386C26.2794 184.296 26.466 184.142 26.5974 183.945C26.7287 183.748 26.7988 183.516 26.7988 183.279C26.7981 182.961 26.672 182.657 26.448 182.432C26.224 182.207 25.9204 182.081 25.6036 182.08Z" fill="#3E7BFA"/>
<path d="M69.7868 266.756C69.6539 266.751 69.5278 266.696 69.434 266.601C69.3403 266.507 69.286 266.38 69.2822 266.246C69.2785 266.113 69.3255 265.983 69.4138 265.884C69.5021 265.784 69.625 265.722 69.7574 265.71C71.4753 265.614 73.225 265.441 74.9405 265.198C75.0105 265.183 75.0827 265.183 75.1527 265.198C75.2227 265.212 75.2889 265.241 75.3474 265.283C75.4058 265.324 75.4551 265.377 75.4924 265.438C75.5296 265.499 75.554 265.567 75.5639 265.638C75.5738 265.709 75.5691 265.782 75.5501 265.851C75.531 265.92 75.4981 265.984 75.4532 266.04C75.4083 266.096 75.3525 266.142 75.2893 266.175C75.226 266.209 75.1565 266.228 75.0853 266.234C73.3404 266.48 71.5685 266.657 69.8163 266.756H69.7868ZM62.4417 266.733H62.4074C60.6551 266.623 58.8833 266.436 57.1433 266.177C57.0734 266.169 57.0058 266.148 56.9445 266.113C56.8832 266.078 56.8295 266.032 56.7866 265.976C56.7437 265.92 56.7125 265.856 56.6948 265.788C56.6772 265.719 56.6734 265.648 56.6839 265.579C56.6943 265.509 56.7186 265.442 56.7554 265.382C56.7922 265.322 56.8407 265.27 56.8981 265.229C56.9554 265.188 57.0204 265.159 57.0891 265.144C57.1578 265.129 57.2288 265.128 57.2979 265.141C59.0158 265.387 60.7484 265.579 62.4736 265.687C62.6062 265.7 62.729 265.762 62.8172 265.862C62.9054 265.962 62.9522 266.092 62.9481 266.225C62.944 266.359 62.8894 266.486 62.7953 266.58C62.7012 266.675 62.5747 266.729 62.4417 266.733ZM82.2144 264.787C82.0865 264.788 81.9624 264.743 81.8659 264.659C81.7693 264.575 81.707 264.458 81.6909 264.33C81.6748 264.203 81.706 264.074 81.7786 263.969C81.8512 263.863 81.96 263.788 82.0844 263.758C83.7581 263.317 85.4317 262.8 87.0564 262.222C87.1221 262.193 87.1932 262.177 87.2651 262.177C87.3371 262.176 87.4084 262.191 87.4745 262.219C87.5407 262.247 87.6003 262.289 87.6496 262.342C87.6989 262.394 87.7369 262.456 87.7611 262.524C87.7853 262.592 87.7953 262.665 87.7904 262.737C87.7855 262.809 87.7658 262.879 87.7326 262.943C87.6994 263.007 87.6533 263.063 87.5974 263.109C87.5414 263.154 87.4767 263.187 87.4073 263.206C85.7532 263.795 84.0501 264.319 82.3494 264.767C82.3047 264.78 82.2584 264.786 82.212 264.787H82.2144ZM50.0289 264.666C49.9823 264.667 49.9359 264.66 49.8914 264.646C48.1957 264.184 46.4999 263.64 44.8483 263.034C44.7819 263.012 44.7206 262.977 44.668 262.931C44.6154 262.884 44.5727 262.828 44.5422 262.765C44.5118 262.702 44.4943 262.633 44.4908 262.563C44.4873 262.493 44.4978 262.423 44.5218 262.357C44.5458 262.291 44.5827 262.231 44.6304 262.179C44.6781 262.128 44.7356 262.087 44.7994 262.058C44.8633 262.029 44.9322 262.014 45.0021 262.012C45.0721 262.011 45.1416 262.024 45.2066 262.05C46.8312 262.645 48.5 263.179 50.1663 263.637C50.2874 263.671 50.3922 263.748 50.4613 263.854C50.5304 263.959 50.5593 264.086 50.5425 264.211C50.5258 264.336 50.4647 264.451 50.3703 264.535C50.276 264.618 50.1547 264.665 50.0289 264.666ZM93.9917 260.369C93.8942 260.368 93.7988 260.34 93.716 260.289C93.6333 260.237 93.5665 260.163 93.5229 260.076C93.4929 260.014 93.4755 259.946 93.4716 259.877C93.4677 259.808 93.4774 259.739 93.5002 259.674C93.523 259.609 93.5585 259.549 93.6045 259.497C93.6505 259.446 93.7062 259.404 93.7683 259.374C95.3169 258.606 96.8507 257.76 98.3281 256.861C98.3868 256.823 98.4524 256.797 98.5213 256.785C98.5901 256.773 98.6606 256.775 98.7287 256.791C98.7968 256.806 98.861 256.836 98.9177 256.877C98.9743 256.918 99.0222 256.97 99.0584 257.03C99.0947 257.09 99.1186 257.156 99.1288 257.225C99.1389 257.295 99.1351 257.365 99.1176 257.433C99.1001 257.501 99.0692 257.565 99.0267 257.62C98.9843 257.676 98.9311 257.723 98.8704 257.757C97.3685 258.67 95.8077 259.532 94.2322 260.312C94.1575 260.349 94.0751 260.369 93.9917 260.369ZM38.2835 260.122C38.1983 260.124 38.114 260.105 38.0381 260.066C36.4724 259.268 34.919 258.395 33.422 257.469C33.3608 257.434 33.3073 257.388 33.2647 257.332C33.222 257.276 33.1911 257.211 33.1737 257.143C33.1563 257.075 33.1528 257.004 33.1634 256.934C33.1741 256.864 33.1986 256.797 33.2356 256.738C33.2726 256.678 33.3213 256.626 33.3787 256.585C33.4361 256.544 33.5012 256.516 33.5699 256.501C33.6386 256.486 33.7096 256.485 33.7786 256.499C33.8477 256.512 33.9133 256.539 33.9717 256.578C35.4441 257.489 36.9706 258.348 38.5118 259.133C38.6134 259.189 38.6938 259.276 38.7402 259.383C38.7867 259.489 38.7967 259.608 38.7687 259.72C38.7406 259.833 38.676 259.933 38.5851 260.005C38.4942 260.077 38.3821 260.116 38.2664 260.118L38.2835 260.122ZM104.633 253.647C104.524 253.646 104.419 253.612 104.331 253.549C104.243 253.485 104.177 253.396 104.141 253.293C104.106 253.191 104.104 253.08 104.134 252.975C104.164 252.871 104.226 252.779 104.311 252.712C105.673 251.643 107.011 250.496 108.272 249.325C108.374 249.232 108.508 249.184 108.645 249.19C108.783 249.196 108.912 249.256 109.006 249.357C109.099 249.458 109.149 249.591 109.145 249.729C109.141 249.867 109.083 249.998 108.984 250.093C107.695 251.291 106.338 252.451 104.954 253.539C104.864 253.61 104.753 253.649 104.638 253.649L104.633 253.647ZM27.6941 253.315C27.5757 253.315 27.4607 253.275 27.3677 253.201C25.9909 252.104 24.6436 250.937 23.3651 249.729C23.3101 249.683 23.265 249.626 23.2327 249.563C23.2003 249.499 23.1813 249.429 23.1768 249.358C23.1724 249.286 23.1825 249.215 23.2067 249.147C23.2309 249.08 23.2686 249.018 23.3174 248.966C23.3663 248.914 23.4253 248.872 23.4907 248.844C23.5562 248.815 23.6268 248.801 23.6982 248.801C23.7696 248.801 23.8402 248.815 23.9057 248.844C23.9712 248.872 24.0303 248.913 24.0792 248.966C25.3382 250.154 26.6634 251.301 28.0058 252.379C28.0908 252.447 28.1528 252.539 28.1832 252.644C28.2135 252.748 28.2107 252.86 28.1751 252.962C28.1395 253.065 28.0729 253.154 27.9845 253.217C27.8961 253.281 27.7903 253.314 27.6818 253.315H27.6941ZM113.705 244.912C113.606 244.911 113.509 244.881 113.426 244.827C113.342 244.773 113.276 244.696 113.234 244.606C113.193 244.515 113.178 244.415 113.191 244.316C113.204 244.217 113.244 244.124 113.308 244.048C114.429 242.729 115.517 241.341 116.513 239.933C116.596 239.825 116.717 239.755 116.851 239.735C116.985 239.716 117.121 239.749 117.231 239.828C117.341 239.907 117.416 240.025 117.44 240.159C117.465 240.292 117.437 240.43 117.362 240.543C116.339 241.976 115.244 243.383 114.105 244.727C114.057 244.785 113.997 244.832 113.929 244.865C113.86 244.897 113.786 244.914 113.71 244.914L113.705 244.912ZM18.6802 244.518C18.6036 244.518 18.528 244.501 18.4585 244.469C18.389 244.436 18.3273 244.389 18.2777 244.331C17.1488 242.977 16.069 241.562 15.053 240.122C15.0099 240.066 14.9785 240.002 14.9608 239.933C14.9431 239.865 14.9395 239.794 14.95 239.724C14.9606 239.654 14.9851 239.586 15.0223 239.526C15.0594 239.466 15.1082 239.414 15.1659 239.373C15.2236 239.333 15.289 239.304 15.358 239.289C15.427 239.274 15.4983 239.274 15.5676 239.287C15.6368 239.301 15.7026 239.329 15.7609 239.368C15.8193 239.408 15.869 239.46 15.907 239.519C16.8887 240.934 17.9685 242.327 19.0802 243.657C19.1432 243.733 19.1832 243.826 19.1957 243.925C19.2082 244.023 19.1926 244.124 19.1508 244.214C19.109 244.304 19.0426 244.38 18.9593 244.434C18.876 244.488 18.7793 244.517 18.6802 244.518ZM120.852 234.528C120.761 234.527 120.672 234.503 120.593 234.458C120.515 234.413 120.449 234.348 120.403 234.269C120.356 234.191 120.331 234.102 120.329 234.011C120.328 233.92 120.35 233.83 120.393 233.75C121.227 232.231 122.008 230.659 122.71 229.074C122.736 229.008 122.775 228.949 122.825 228.899C122.874 228.849 122.933 228.81 122.998 228.784C123.063 228.757 123.133 228.744 123.203 228.745C123.273 228.747 123.343 228.762 123.407 228.791C123.471 228.819 123.529 228.86 123.577 228.912C123.624 228.963 123.662 229.024 123.686 229.09C123.71 229.156 123.72 229.227 123.716 229.297C123.713 229.367 123.695 229.436 123.664 229.499C122.95 231.109 122.157 232.699 121.308 234.252C121.265 234.335 121.2 234.404 121.121 234.453C121.041 234.502 120.95 234.529 120.857 234.53L120.852 234.528ZM11.6222 234.08C11.528 234.08 11.4355 234.054 11.3547 234.006C11.2739 233.957 11.2077 233.887 11.1633 233.804C10.3289 232.251 9.55091 230.644 8.85149 229.027C8.79649 228.898 8.79455 228.754 8.8461 228.624C8.89764 228.494 8.99845 228.39 9.12635 228.335C9.25424 228.28 9.39875 228.278 9.52808 228.33C9.6574 228.381 9.76095 228.483 9.81595 228.611C10.5031 230.201 11.2663 231.781 12.086 233.307C12.1187 233.367 12.1392 233.434 12.1463 233.502C12.1534 233.57 12.147 233.639 12.1274 233.705C12.1078 233.771 12.0754 233.833 12.032 233.886C11.9887 233.939 11.9353 233.983 11.8749 234.016C11.7977 234.059 11.7106 234.081 11.6222 234.08ZM125.782 222.918C125.73 222.918 125.677 222.91 125.627 222.893C125.496 222.852 125.385 222.76 125.321 222.637C125.257 222.514 125.243 222.371 125.284 222.239C125.794 220.582 126.243 218.884 126.614 217.19C126.644 217.055 126.726 216.937 126.842 216.862C126.959 216.787 127.1 216.762 127.235 216.792C127.37 216.821 127.488 216.904 127.562 217.021C127.637 217.137 127.662 217.279 127.632 217.414C127.257 219.137 126.801 220.86 126.28 222.549C126.247 222.655 126.181 222.749 126.092 222.815C126.002 222.882 125.894 222.918 125.782 222.918ZM6.81458 222.426C6.7038 222.423 6.59655 222.386 6.50833 222.319C6.42011 222.252 6.35548 222.158 6.32376 222.052C5.83294 220.368 5.38384 218.638 5.02309 216.907C5.00365 216.838 4.9986 216.766 5.00826 216.695C5.01791 216.623 5.04206 216.555 5.07921 216.493C5.11636 216.432 5.16571 216.379 5.2242 216.337C5.28269 216.296 5.34907 216.267 5.41921 216.252C5.48935 216.237 5.56176 216.237 5.63194 216.252C5.70212 216.266 5.76857 216.295 5.82717 216.337C5.88576 216.378 5.93524 216.431 5.97254 216.492C6.00984 216.554 6.03416 216.622 6.044 216.693C6.39984 218.394 6.83176 220.095 7.32504 221.751C7.34501 221.817 7.35176 221.886 7.3449 221.955C7.33805 222.024 7.31772 222.09 7.28509 222.151C7.25246 222.211 7.20818 222.265 7.15481 222.308C7.10143 222.352 7.04001 222.384 6.9741 222.403C6.92212 222.417 6.86832 222.423 6.81458 222.421V222.426ZM128.271 210.55H128.219C128.151 210.544 128.085 210.524 128.024 210.491C127.963 210.459 127.91 210.415 127.866 210.362C127.823 210.309 127.79 210.248 127.77 210.182C127.75 210.116 127.744 210.047 127.75 209.979C127.917 208.256 128.01 206.501 128.033 204.766C128.034 204.626 128.091 204.492 128.191 204.394C128.291 204.297 128.425 204.243 128.565 204.244C128.705 204.246 128.838 204.303 128.935 204.403C129.033 204.503 129.087 204.638 129.085 204.778C129.066 206.543 128.968 208.325 128.798 210.08C128.784 210.21 128.722 210.329 128.624 210.415C128.527 210.501 128.401 210.548 128.271 210.545V210.55ZM4.43411 210.031C4.30612 210.028 4.1837 209.978 4.09007 209.89C3.99643 209.802 3.93809 209.683 3.92611 209.556C3.76904 207.796 3.6807 206.011 3.6807 204.252C3.67922 204.117 3.72941 203.988 3.82082 203.89C3.91224 203.791 4.03785 203.732 4.17152 203.725C4.30931 203.725 4.44152 203.779 4.53941 203.877C4.6373 203.974 4.69295 204.106 4.69424 204.244C4.69424 205.967 4.7875 207.732 4.93965 209.46C4.94605 209.528 4.93886 209.597 4.91848 209.663C4.8981 209.729 4.86494 209.79 4.8209 209.843C4.77687 209.896 4.72284 209.939 4.66193 209.971C4.60102 210.003 4.53443 210.022 4.46601 210.028L4.43411 210.031ZM128.204 197.929C128.076 197.928 127.952 197.88 127.856 197.794C127.761 197.708 127.7 197.589 127.686 197.461C127.502 195.738 127.245 194.015 126.918 192.292V192.226C126.905 192.158 126.906 192.089 126.919 192.022C126.933 191.955 126.96 191.891 126.998 191.834C127.036 191.777 127.085 191.728 127.142 191.69C127.199 191.652 127.263 191.626 127.331 191.613C127.398 191.6 127.467 191.6 127.534 191.614C127.601 191.628 127.665 191.654 127.722 191.693C127.778 191.731 127.827 191.78 127.865 191.838C127.903 191.895 127.929 191.959 127.942 192.026L127.956 192.095C128.288 193.818 128.55 195.598 128.737 197.345C128.744 197.414 128.738 197.483 128.719 197.549C128.7 197.615 128.668 197.677 128.625 197.731C128.581 197.785 128.528 197.829 128.468 197.862C128.408 197.895 128.341 197.916 128.273 197.924L128.204 197.929ZM4.5789 197.409H4.51754C4.37991 197.393 4.25426 197.323 4.1682 197.214C4.08215 197.105 4.04274 196.966 4.05863 196.828C4.25741 195.078 4.53472 193.314 4.88075 191.583C4.91421 191.454 4.99604 191.341 5.10938 191.27C5.22272 191.199 5.35897 191.174 5.49007 191.201C5.62118 191.227 5.73718 191.303 5.81419 191.413C5.89121 191.522 5.92339 191.657 5.90411 191.79C5.56299 193.491 5.29304 195.236 5.09671 196.959C5.07849 197.084 5.0162 197.198 4.92117 197.28C4.82614 197.363 4.70469 197.409 4.5789 197.409ZM125.605 185.514C125.496 185.512 125.389 185.475 125.301 185.41C125.213 185.344 125.148 185.252 125.115 185.147C124.592 183.493 123.991 181.844 123.33 180.244C123.299 180.18 123.281 180.11 123.277 180.038C123.274 179.966 123.285 179.895 123.311 179.828C123.336 179.761 123.375 179.699 123.425 179.648C123.474 179.596 123.534 179.556 123.6 179.528C123.667 179.501 123.738 179.488 123.809 179.489C123.881 179.49 123.951 179.506 124.016 179.536C124.081 179.566 124.14 179.609 124.188 179.662C124.236 179.715 124.272 179.778 124.295 179.846C124.967 181.472 125.578 183.149 126.111 184.83C126.132 184.895 126.14 184.964 126.134 185.033C126.129 185.102 126.109 185.169 126.078 185.23C126.047 185.291 126.003 185.346 125.951 185.39C125.898 185.435 125.838 185.468 125.772 185.489C125.718 185.507 125.662 185.515 125.605 185.514ZM7.26614 185.088C7.2112 185.088 7.15656 185.08 7.10417 185.063C6.9727 185.02 6.86386 184.925 6.80134 184.801C6.73883 184.677 6.72771 184.534 6.77041 184.401C7.32013 182.728 7.94593 181.057 8.63307 179.432C8.65804 179.366 8.696 179.306 8.74469 179.255C8.79337 179.204 8.85179 179.164 8.91644 179.136C8.98109 179.108 9.05064 179.094 9.12094 179.094C9.19124 179.094 9.26084 179.108 9.32557 179.136C9.3903 179.163 9.44884 179.203 9.49768 179.254C9.54653 179.305 9.58467 179.365 9.60983 179.431C9.63499 179.496 9.64665 179.567 9.64412 179.637C9.64158 179.708 9.62491 179.777 9.59508 179.841C8.91775 181.438 8.30177 183.082 7.76432 184.729C7.72966 184.834 7.66281 184.925 7.57334 184.989C7.48387 185.054 7.37635 185.089 7.26614 185.088ZM120.597 173.948C120.504 173.949 120.413 173.924 120.333 173.876C120.253 173.829 120.187 173.761 120.143 173.68C119.296 172.171 118.376 170.677 117.404 169.25C117.334 169.135 117.311 168.998 117.34 168.866C117.368 168.735 117.446 168.619 117.557 168.544C117.668 168.468 117.803 168.438 117.936 168.46C118.068 168.482 118.187 168.554 118.268 168.662C119.249 170.121 120.192 171.64 121.053 173.176C121.098 173.255 121.12 173.345 121.12 173.437C121.119 173.528 121.094 173.618 121.048 173.697C121.002 173.776 120.936 173.841 120.857 173.887C120.777 173.932 120.688 173.956 120.597 173.956V173.948ZM12.3707 173.559C12.2795 173.559 12.1899 173.536 12.1105 173.491C11.9907 173.422 11.903 173.308 11.8667 173.174C11.8303 173.04 11.8483 172.897 11.9167 172.777C12.7903 171.246 13.7376 169.735 14.734 168.283C14.7717 168.223 14.821 168.172 14.8788 168.133C14.9366 168.093 15.0018 168.065 15.0705 168.051C15.1391 168.037 15.2099 168.037 15.2786 168.051C15.3473 168.065 15.4124 168.093 15.4702 168.133C15.528 168.173 15.5772 168.224 15.6149 168.283C15.6526 168.342 15.6781 168.408 15.6898 168.478C15.7014 168.547 15.6991 168.618 15.6829 168.686C15.6667 168.755 15.6369 168.819 15.5954 168.876C14.6137 170.303 13.6812 171.792 12.8247 173.306C12.7776 173.381 12.7121 173.444 12.6344 173.487C12.5566 173.53 12.4693 173.552 12.3805 173.552L12.3707 173.559ZM113.347 163.638C113.272 163.638 113.199 163.622 113.131 163.59C113.063 163.559 113.003 163.513 112.955 163.456C111.821 162.149 110.618 160.872 109.376 159.663C109.293 159.563 109.25 159.434 109.256 159.304C109.262 159.173 109.316 159.049 109.408 158.957C109.501 158.864 109.624 158.81 109.754 158.804C109.885 158.798 110.012 158.841 110.113 158.925C111.374 160.155 112.596 161.452 113.75 162.782C113.815 162.858 113.856 162.951 113.87 163.05C113.884 163.15 113.87 163.251 113.828 163.342C113.787 163.434 113.72 163.511 113.636 163.566C113.552 163.62 113.455 163.65 113.355 163.65L113.347 163.638ZM19.6814 163.294C19.5812 163.293 19.4833 163.263 19.3993 163.208C19.3153 163.153 19.2487 163.075 19.2074 162.984C19.1661 162.892 19.1518 162.791 19.1663 162.691C19.1807 162.592 19.2232 162.498 19.2888 162.422C20.4496 161.098 21.6815 159.808 22.9479 158.588C22.9972 158.539 23.0555 158.501 23.1196 158.475C23.1836 158.449 23.2521 158.436 23.3212 158.437C23.3902 158.438 23.4585 158.452 23.522 158.479C23.5855 158.506 23.6431 158.546 23.6914 158.595C23.7398 158.644 23.7779 158.703 23.8037 158.767C23.8295 158.831 23.8425 158.9 23.8418 158.969C23.8411 159.039 23.8268 159.107 23.7998 159.171C23.7727 159.234 23.7334 159.292 23.6841 159.341C22.4374 160.542 21.23 161.802 20.0864 163.114C20.0365 163.169 19.9755 163.213 19.9073 163.243C19.8392 163.272 19.7655 163.287 19.6913 163.286L19.6814 163.294ZM104.181 154.997C104.066 154.997 103.955 154.959 103.865 154.888C102.493 153.835 101.057 152.826 99.6017 151.89C99.4923 151.812 99.4171 151.695 99.3917 151.563C99.3662 151.43 99.3925 151.293 99.4651 151.18C99.5377 151.067 99.6511 150.986 99.7816 150.954C99.9121 150.922 100.05 150.942 100.166 151.009C101.639 151.959 103.111 152.978 104.5 154.056C104.587 154.123 104.651 154.215 104.682 154.32C104.714 154.425 104.712 154.537 104.677 154.641C104.642 154.745 104.575 154.835 104.486 154.899C104.397 154.963 104.29 154.997 104.181 154.997ZM28.8966 154.709C28.7869 154.709 28.6798 154.675 28.5906 154.611C28.5014 154.547 28.4346 154.456 28.3996 154.352C28.3646 154.247 28.3631 154.135 28.3955 154.03C28.4279 153.924 28.4925 153.832 28.58 153.766C29.9838 152.703 31.4464 151.686 32.9336 150.746C33.0511 150.672 33.1931 150.648 33.3284 150.679C33.4637 150.709 33.5812 150.793 33.6551 150.911C33.729 151.029 33.7532 151.171 33.7223 151.307C33.6915 151.443 33.6082 151.56 33.4907 151.634C32.0305 152.557 30.5899 153.557 29.2107 154.6C29.1226 154.666 29.016 154.701 28.9064 154.701L28.8966 154.709ZM93.4738 148.371C93.3957 148.371 93.3185 148.353 93.2481 148.319C91.6922 147.561 90.0847 146.862 88.4724 146.239C88.3422 146.189 88.2372 146.09 88.1803 145.962C88.1235 145.834 88.1195 145.689 88.1693 145.559C88.2191 145.428 88.3186 145.323 88.4458 145.266C88.5731 145.209 88.7177 145.205 88.8479 145.255C90.4872 145.89 92.1216 146.601 93.7021 147.372C93.8026 147.426 93.8825 147.513 93.9294 147.617C93.9763 147.722 93.9876 147.839 93.9617 147.951C93.9358 148.063 93.8741 148.163 93.7859 148.236C93.6978 148.309 93.5882 148.351 93.4738 148.356V148.371ZM39.6603 148.169C39.5419 148.169 39.427 148.128 39.3345 148.054C39.242 147.98 39.1773 147.877 39.1511 147.761C39.1249 147.645 39.1386 147.524 39.1901 147.417C39.2416 147.31 39.3278 147.224 39.4345 147.172C41.0223 146.417 42.6617 145.72 44.3084 145.1C44.3728 145.076 44.4414 145.064 44.5102 145.067C44.579 145.069 44.6467 145.085 44.7093 145.113C44.772 145.142 44.8284 145.183 44.8754 145.233C44.9224 145.284 44.9591 145.343 44.9832 145.407C45.0074 145.472 45.0186 145.541 45.0163 145.61C45.014 145.679 44.9981 145.747 44.9696 145.81C44.9411 145.872 44.9006 145.929 44.8503 145.976C44.8 146.023 44.7409 146.06 44.6765 146.084C43.0568 146.692 41.4444 147.376 39.8836 148.12C39.8137 148.153 39.7374 148.169 39.6603 148.169ZM81.6696 144.041C81.6258 144.041 81.5821 144.035 81.5396 144.024C79.8634 143.596 78.1504 143.237 76.4448 142.954C76.3116 142.927 76.194 142.849 76.1167 142.737C76.0395 142.625 76.0088 142.488 76.0312 142.353C76.0535 142.219 76.1271 142.098 76.2364 142.018C76.3456 141.937 76.482 141.902 76.6166 141.92C78.3492 142.208 80.0941 142.575 81.7972 143.008C81.9219 143.038 82.0311 143.113 82.1041 143.219C82.177 143.325 82.2086 143.454 82.1929 143.582C82.1771 143.709 82.1151 143.827 82.0186 143.912C81.9221 143.996 81.7979 144.043 81.6696 144.041ZM51.5111 143.943C51.385 143.941 51.2639 143.893 51.1703 143.808C51.0767 143.723 51.0169 143.607 51.002 143.481C50.987 143.355 51.0179 143.228 51.0889 143.124C51.16 143.019 51.2664 142.944 51.3884 142.912C52.4241 142.666 53.4867 142.419 54.542 142.22C55.2144 142.09 55.8991 141.974 56.5764 141.863C56.7092 141.85 56.8422 141.888 56.948 141.969C57.0538 142.051 57.1244 142.17 57.1455 142.302C57.1665 142.434 57.1363 142.57 57.0611 142.68C56.9858 142.791 56.8713 142.868 56.7408 142.897C56.0733 143.003 55.4009 143.121 54.7383 143.249C53.7002 143.448 52.6572 143.677 51.6363 143.928C51.5948 143.934 51.5528 143.935 51.5111 143.931V143.943ZM69.2199 142.191H69.2052C68.2898 142.151 67.3622 142.129 66.4493 142.129C65.637 142.129 64.8124 142.146 63.9952 142.178C63.9244 142.185 63.853 142.177 63.7853 142.156C63.7176 142.134 63.6551 142.098 63.6015 142.051C63.548 142.004 63.5045 141.947 63.4738 141.883C63.4431 141.819 63.4258 141.749 63.4229 141.677C63.4201 141.606 63.4318 141.535 63.4573 141.468C63.4827 141.402 63.5215 141.341 63.5712 141.29C63.6208 141.239 63.6803 141.199 63.7461 141.172C63.8118 141.145 63.8824 141.131 63.9534 141.132C64.7805 141.098 65.6173 141.083 66.4444 141.083C67.3745 141.083 68.3168 141.103 69.2469 141.145C69.3856 141.147 69.5174 141.206 69.6133 141.306C69.7093 141.406 69.7616 141.541 69.7586 141.68C69.7557 141.819 69.6978 141.951 69.5977 142.047C69.4976 142.144 69.3635 142.196 69.2249 142.193L69.2199 142.191Z" fill="#3E7BFA"/>
<path d="M257.523 219.174L256.62 219.228C256.484 219.232 256.352 219.183 256.252 219.092C256.152 219 256.091 218.872 256.083 218.736C256.074 218.6 256.119 218.467 256.208 218.363C256.296 218.26 256.421 218.195 256.556 218.182C258.274 218.086 259.992 217.936 261.71 217.769C261.848 217.754 261.986 217.796 262.094 217.883C262.201 217.971 262.27 218.098 262.284 218.236C262.298 218.375 262.257 218.513 262.17 218.621C262.083 218.729 261.956 218.798 261.818 218.812C260.38 218.96 258.947 219.081 257.523 219.174ZM249.378 219.398H249.336C247.618 219.381 245.859 219.322 244.136 219.221C244.068 219.217 244.001 219.2 243.939 219.17C243.877 219.14 243.822 219.099 243.777 219.047C243.731 218.996 243.696 218.937 243.673 218.872C243.651 218.807 243.641 218.738 243.645 218.67C243.654 218.531 243.717 218.402 243.82 218.31C243.924 218.217 244.059 218.17 244.197 218.177C245.915 218.278 247.633 218.337 249.351 218.355C249.484 218.359 249.61 218.414 249.704 218.509C249.798 218.604 249.852 218.73 249.856 218.864C249.859 218.997 249.812 219.127 249.724 219.227C249.636 219.326 249.513 219.389 249.381 219.401L249.378 219.398ZM268.969 217.823C268.837 217.828 268.708 217.784 268.608 217.698C268.508 217.612 268.443 217.491 268.428 217.36C268.413 217.228 268.448 217.096 268.526 216.989C268.604 216.882 268.719 216.809 268.849 216.784C270.537 216.494 272.24 216.162 273.909 215.8C274.043 215.774 274.181 215.802 274.295 215.877C274.409 215.953 274.488 216.069 274.517 216.203C274.546 216.336 274.523 216.476 274.451 216.592C274.379 216.708 274.265 216.791 274.133 216.824C272.449 217.193 270.731 217.53 269.023 217.82C269.005 217.823 268.987 217.824 268.969 217.823ZM236.975 218.561C236.942 218.565 236.909 218.565 236.877 218.561C235.159 218.345 233.441 218.086 231.723 217.788C231.587 217.765 231.465 217.687 231.385 217.574C231.305 217.46 231.274 217.319 231.297 217.182C231.321 217.045 231.398 216.923 231.512 216.843C231.625 216.763 231.766 216.731 231.902 216.755C233.586 217.05 235.301 217.309 237 217.523C237.126 217.541 237.242 217.606 237.325 217.704C237.407 217.802 237.451 217.928 237.447 218.056C237.444 218.185 237.393 218.308 237.305 218.401C237.217 218.495 237.098 218.553 236.97 218.564L236.975 218.561ZM281.08 215.039C280.951 215.05 280.822 215.012 280.718 214.933C280.615 214.853 280.546 214.738 280.523 214.61C280.501 214.481 280.527 214.349 280.597 214.239C280.667 214.129 280.775 214.049 280.901 214.015C282.543 213.535 284.197 213.011 285.809 212.455C285.876 212.423 285.948 212.406 286.021 212.404C286.095 212.403 286.168 212.416 286.235 212.445C286.303 212.473 286.364 212.516 286.414 212.569C286.465 212.623 286.503 212.687 286.527 212.756C286.551 212.826 286.561 212.9 286.554 212.973C286.548 213.047 286.526 213.118 286.491 213.182C286.455 213.247 286.407 213.303 286.348 213.347C286.289 213.392 286.222 213.423 286.15 213.439C284.516 214.001 282.847 214.53 281.188 215.012C281.155 215.024 281.12 215.032 281.085 215.037L281.08 215.039ZM224.749 216.297C224.696 216.302 224.643 216.297 224.592 216.282C222.913 215.871 221.22 215.413 219.558 214.919C219.49 214.902 219.425 214.871 219.369 214.828C219.313 214.785 219.265 214.732 219.23 214.67C219.195 214.609 219.173 214.541 219.165 214.47C219.157 214.4 219.163 214.329 219.183 214.261C219.203 214.193 219.237 214.13 219.282 214.075C219.327 214.021 219.382 213.976 219.445 213.943C219.508 213.911 219.577 213.892 219.647 213.887C219.718 213.882 219.788 213.891 219.855 213.914C221.499 214.407 223.176 214.857 224.84 215.266C224.96 215.296 225.066 215.369 225.138 215.47C225.21 215.572 225.243 215.696 225.232 215.82C225.221 215.944 225.167 216.061 225.078 216.148C224.989 216.235 224.873 216.288 224.749 216.297ZM292.798 210.882C292.673 210.895 292.548 210.863 292.445 210.79C292.342 210.717 292.269 210.61 292.239 210.487C292.209 210.365 292.224 210.236 292.282 210.124C292.34 210.012 292.436 209.924 292.553 209.878C294.131 209.213 295.714 208.5 297.258 207.761C297.32 207.727 297.389 207.706 297.459 207.7C297.53 207.693 297.601 207.701 297.669 207.723C297.736 207.745 297.799 207.78 297.852 207.827C297.906 207.874 297.949 207.932 297.98 207.996C298.01 208.06 298.027 208.13 298.03 208.201C298.033 208.273 298.021 208.344 297.995 208.41C297.97 208.477 297.931 208.537 297.881 208.588C297.832 208.639 297.772 208.679 297.707 208.706C296.148 209.445 294.551 210.171 292.958 210.843C292.907 210.864 292.853 210.877 292.798 210.882ZM212.854 212.64C212.78 212.645 212.707 212.634 212.638 212.608C211.018 212.005 209.388 211.355 207.796 210.675C207.667 210.621 207.565 210.517 207.512 210.387C207.46 210.257 207.46 210.112 207.515 209.983C207.569 209.853 207.672 209.751 207.802 209.698C207.932 209.645 208.077 209.646 208.206 209.701C209.784 210.375 211.396 211.02 213.001 211.616C213.113 211.658 213.207 211.737 213.268 211.84C213.328 211.943 213.352 212.064 213.335 212.182C213.318 212.301 213.261 212.41 213.173 212.491C213.086 212.573 212.973 212.621 212.854 212.63V212.64ZM303.952 205.411C303.833 205.421 303.713 205.389 303.614 205.321C303.515 205.252 303.442 205.152 303.408 205.037C303.374 204.921 303.381 204.797 303.428 204.686C303.474 204.575 303.557 204.483 303.663 204.426C305.15 203.587 306.637 202.703 308.08 201.79C308.198 201.72 308.338 201.698 308.471 201.731C308.604 201.763 308.719 201.846 308.791 201.962C308.864 202.078 308.888 202.218 308.859 202.352C308.83 202.486 308.749 202.604 308.635 202.679C307.162 203.597 305.67 204.493 304.168 205.339C304.103 205.379 304.029 205.403 303.952 205.411ZM201.457 207.643C201.364 207.648 201.272 207.629 201.189 207.587C199.646 206.804 198.102 205.972 196.6 205.125C196.537 205.093 196.481 205.049 196.435 204.995C196.389 204.94 196.355 204.877 196.334 204.809C196.314 204.741 196.307 204.669 196.315 204.599C196.323 204.528 196.345 204.46 196.38 204.398C196.415 204.336 196.462 204.282 196.519 204.239C196.575 204.196 196.64 204.165 196.708 204.148C196.777 204.131 196.849 204.128 196.919 204.139C196.989 204.151 197.056 204.176 197.116 204.215C198.605 205.064 200.134 205.886 201.661 206.676C201.76 206.729 201.839 206.814 201.887 206.916C201.935 207.018 201.948 207.134 201.925 207.244C201.902 207.355 201.844 207.455 201.76 207.53C201.676 207.605 201.569 207.651 201.457 207.66V207.643ZM314.402 198.699C314.313 198.704 314.225 198.687 314.145 198.649C314.065 198.611 313.995 198.554 313.943 198.482C313.902 198.426 313.872 198.363 313.856 198.295C313.839 198.227 313.837 198.157 313.848 198.088C313.859 198.02 313.883 197.954 313.92 197.895C313.956 197.835 314.004 197.784 314.061 197.744C315.445 196.737 316.822 195.686 318.157 194.616C318.21 194.568 318.272 194.532 318.339 194.51C318.406 194.487 318.477 194.479 318.548 194.485C318.619 194.491 318.688 194.511 318.75 194.544C318.813 194.578 318.868 194.624 318.912 194.679C318.957 194.735 318.989 194.799 319.008 194.867C319.027 194.936 319.032 195.008 319.022 195.078C319.013 195.149 318.989 195.216 318.952 195.277C318.916 195.338 318.867 195.391 318.809 195.433C317.462 196.513 316.071 197.577 314.674 198.591C314.595 198.652 314.501 198.689 314.402 198.699ZM190.715 201.382C190.602 201.388 190.489 201.358 190.394 201.295C188.951 200.341 187.513 199.326 186.116 198.317C186.056 198.279 186.004 198.228 185.963 198.169C185.923 198.11 185.896 198.043 185.882 197.972C185.869 197.901 185.87 197.829 185.886 197.759C185.902 197.689 185.932 197.623 185.974 197.565C186.016 197.507 186.07 197.458 186.132 197.422C186.194 197.386 186.262 197.362 186.333 197.354C186.404 197.345 186.476 197.351 186.545 197.372C186.614 197.392 186.677 197.427 186.732 197.473C188.114 198.482 189.54 199.477 190.97 200.427C191.061 200.487 191.131 200.574 191.17 200.675C191.209 200.777 191.216 200.889 191.189 200.994C191.162 201.1 191.102 201.194 191.019 201.265C190.936 201.335 190.833 201.378 190.725 201.387L190.715 201.382ZM324.029 190.828C323.921 190.835 323.813 190.809 323.721 190.752C323.628 190.696 323.556 190.612 323.513 190.512C323.471 190.411 323.461 190.301 323.484 190.195C323.508 190.088 323.564 189.992 323.644 189.919C324.905 188.76 326.155 187.557 327.36 186.341C327.46 186.257 327.588 186.214 327.718 186.22C327.848 186.226 327.972 186.28 328.064 186.373C328.156 186.465 328.211 186.589 328.217 186.72C328.222 186.85 328.179 186.979 328.096 187.079C326.869 188.31 325.617 189.523 324.343 190.692C324.255 190.773 324.142 190.821 324.022 190.828H324.029ZM180.739 193.949C180.605 193.957 180.473 193.913 180.369 193.828C179.046 192.715 177.728 191.559 176.459 190.382C176.404 190.337 176.359 190.281 176.327 190.217C176.294 190.154 176.275 190.085 176.27 190.014C176.265 189.942 176.275 189.871 176.298 189.804C176.322 189.736 176.359 189.675 176.407 189.622C176.455 189.57 176.513 189.528 176.578 189.499C176.643 189.47 176.713 189.454 176.784 189.453C176.855 189.452 176.926 189.466 176.991 189.493C177.057 189.52 177.117 189.561 177.166 189.612C178.425 190.774 179.728 191.92 181.039 193.021C181.119 193.088 181.177 193.177 181.206 193.278C181.235 193.378 181.233 193.485 181.201 193.585C181.169 193.684 181.107 193.772 181.025 193.836C180.943 193.901 180.843 193.939 180.739 193.946V193.949ZM332.695 181.918C332.627 181.923 332.559 181.914 332.494 181.892C332.429 181.87 332.37 181.835 332.319 181.79C332.267 181.745 332.224 181.69 332.193 181.629C332.163 181.567 332.144 181.5 332.139 181.432C332.135 181.363 332.143 181.294 332.165 181.229C332.188 181.163 332.222 181.103 332.268 181.051C333.389 179.757 334.496 178.418 335.556 177.072C335.598 177.015 335.65 176.967 335.711 176.931C335.771 176.895 335.838 176.872 335.908 176.863C335.977 176.853 336.048 176.858 336.116 176.876C336.183 176.895 336.247 176.927 336.302 176.971C336.357 177.014 336.402 177.069 336.436 177.131C336.47 177.192 336.491 177.26 336.498 177.33C336.505 177.4 336.497 177.471 336.476 177.538C336.456 177.605 336.421 177.668 336.376 177.721C335.306 179.08 334.189 180.429 333.056 181.738C332.962 181.84 332.833 181.901 332.695 181.908V181.918ZM171.679 185.415C171.602 185.421 171.526 185.409 171.454 185.381C171.383 185.353 171.319 185.309 171.266 185.253C170.076 183.998 168.901 182.698 167.772 181.391C167.722 181.34 167.683 181.279 167.658 181.213C167.633 181.146 167.621 181.075 167.624 181.004C167.627 180.932 167.644 180.862 167.675 180.798C167.706 180.734 167.749 180.676 167.803 180.629C167.857 180.583 167.92 180.547 167.987 180.526C168.055 180.504 168.127 180.496 168.197 180.503C168.268 180.51 168.337 180.532 168.399 180.566C168.461 180.601 168.516 180.648 168.56 180.704C169.679 182.002 170.844 183.289 172.022 184.532C172.091 184.604 172.137 184.694 172.156 184.792C172.175 184.889 172.166 184.99 172.13 185.083C172.094 185.175 172.032 185.256 171.952 185.315C171.873 185.374 171.778 185.409 171.679 185.415ZM340.305 172.056C340.188 172.064 340.072 172.032 339.976 171.964C339.918 171.925 339.869 171.875 339.83 171.817C339.792 171.758 339.766 171.693 339.753 171.624C339.741 171.555 339.742 171.484 339.757 171.416C339.772 171.348 339.801 171.283 339.841 171.226C340.823 169.813 341.76 168.356 342.663 166.897C342.74 166.787 342.856 166.711 342.987 166.684C343.118 166.657 343.254 166.682 343.368 166.753C343.481 166.824 343.563 166.936 343.597 167.065C343.631 167.195 343.614 167.333 343.549 167.451C342.641 168.927 341.682 170.404 340.703 171.822C340.659 171.889 340.6 171.945 340.531 171.985C340.462 172.026 340.385 172.05 340.305 172.056ZM163.644 175.917C163.558 175.923 163.471 175.907 163.392 175.871C163.313 175.835 163.245 175.78 163.192 175.711C162.154 174.33 161.133 172.907 160.162 171.477C160.084 171.362 160.054 171.221 160.08 171.084C160.106 170.948 160.185 170.827 160.299 170.749C160.414 170.67 160.555 170.641 160.691 170.667C160.827 170.692 160.947 170.772 161.026 170.886C161.988 172.302 162.989 173.712 164.027 175.071C164.069 175.126 164.099 175.189 164.117 175.256C164.135 175.323 164.139 175.393 164.129 175.461C164.119 175.53 164.096 175.596 164.061 175.656C164.026 175.715 163.979 175.768 163.924 175.809C163.844 175.873 163.746 175.911 163.644 175.917ZM346.757 161.396C346.664 161.402 346.572 161.382 346.489 161.34C346.406 161.298 346.336 161.235 346.286 161.157C346.236 161.078 346.208 160.988 346.204 160.895C346.201 160.802 346.222 160.71 346.266 160.628C347.071 159.109 347.849 157.554 348.58 156.003C348.608 155.939 348.649 155.881 348.7 155.833C348.751 155.785 348.81 155.748 348.876 155.723C348.941 155.699 349.011 155.688 349.081 155.691C349.15 155.694 349.219 155.711 349.282 155.741C349.345 155.77 349.401 155.813 349.448 155.865C349.495 155.917 349.53 155.978 349.553 156.044C349.576 156.111 349.585 156.181 349.58 156.251C349.575 156.32 349.557 156.389 349.525 156.451C348.789 158.016 348.001 159.587 347.189 161.127C347.147 161.205 347.086 161.271 347.012 161.318C346.937 161.366 346.852 161.393 346.764 161.398L346.757 161.396ZM156.746 165.58C156.649 165.588 156.552 165.57 156.466 165.526C156.379 165.483 156.306 165.416 156.255 165.334C155.381 163.842 154.537 162.311 153.727 160.783C153.695 160.722 153.675 160.655 153.668 160.587C153.662 160.518 153.669 160.449 153.689 160.383C153.709 160.317 153.742 160.256 153.786 160.202C153.83 160.149 153.883 160.105 153.944 160.073C154.005 160.04 154.071 160.02 154.14 160.014C154.208 160.007 154.277 160.014 154.343 160.035C154.409 160.055 154.47 160.088 154.523 160.132C154.576 160.176 154.62 160.23 154.652 160.291C155.447 161.804 156.289 163.32 157.155 164.797C157.225 164.917 157.245 165.06 157.21 165.194C157.175 165.328 157.088 165.443 156.969 165.513C156.9 165.549 156.823 165.568 156.746 165.57V165.58ZM351.959 150.074C351.883 150.079 351.805 150.068 351.734 150.039C351.605 149.988 351.502 149.888 351.446 149.761C351.391 149.633 351.389 149.489 351.439 149.36C352.067 147.76 352.666 146.124 353.211 144.497C353.267 144.382 353.363 144.291 353.48 144.242C353.598 144.193 353.73 144.188 353.851 144.23C353.971 144.271 354.073 144.356 354.136 144.467C354.199 144.578 354.219 144.709 354.193 144.834C353.638 146.476 353.034 148.127 352.401 149.744C352.366 149.835 352.305 149.913 352.227 149.971C352.149 150.029 352.056 150.064 351.959 150.071V150.074ZM151.074 154.504C150.968 154.512 150.861 154.486 150.77 154.43C150.678 154.375 150.606 154.292 150.564 154.194C149.864 152.611 149.192 150.994 148.568 149.372C148.544 149.308 148.532 149.239 148.534 149.17C148.535 149.1 148.551 149.032 148.579 148.969C148.635 148.841 148.74 148.741 148.87 148.691C149.001 148.64 149.145 148.644 149.273 148.701C149.4 148.758 149.5 148.863 149.55 148.993C150.169 150.596 150.831 152.193 151.513 153.771C151.541 153.834 151.556 153.901 151.558 153.97C151.559 154.039 151.547 154.107 151.522 154.171C151.498 154.235 151.46 154.294 151.413 154.343C151.365 154.393 151.309 154.432 151.246 154.46C151.191 154.482 151.133 154.494 151.074 154.494V154.504ZM355.844 138.218C355.787 138.221 355.73 138.215 355.675 138.201C355.541 138.165 355.427 138.077 355.358 137.957C355.288 137.838 355.269 137.695 355.304 137.561C355.746 135.897 356.151 134.201 356.509 132.523C356.524 132.455 356.551 132.391 356.59 132.334C356.629 132.278 356.679 132.229 356.736 132.192C356.794 132.154 356.859 132.129 356.926 132.116C356.994 132.104 357.063 132.104 357.13 132.119C357.197 132.133 357.261 132.161 357.318 132.2C357.374 132.239 357.423 132.289 357.46 132.347C357.497 132.404 357.523 132.469 357.536 132.537C357.548 132.605 357.547 132.674 357.533 132.742C357.17 134.437 356.76 136.15 356.306 137.829C356.278 137.934 356.219 138.027 356.136 138.096C356.054 138.166 355.952 138.208 355.844 138.218ZM146.706 142.83C146.589 142.837 146.474 142.805 146.378 142.739C146.282 142.672 146.211 142.575 146.176 142.464C145.66 140.81 145.179 139.121 144.745 137.445C144.725 137.378 144.718 137.307 144.726 137.236C144.733 137.166 144.755 137.098 144.79 137.037C144.824 136.975 144.87 136.921 144.926 136.878C144.982 136.835 145.046 136.804 145.114 136.786C145.182 136.768 145.253 136.764 145.323 136.775C145.392 136.785 145.459 136.81 145.519 136.847C145.579 136.884 145.631 136.932 145.672 136.99C145.712 137.048 145.741 137.113 145.756 137.182C146.188 138.843 146.664 140.514 147.172 142.151C147.213 142.284 147.2 142.428 147.135 142.551C147.071 142.674 146.961 142.766 146.829 142.808C146.787 142.821 146.744 142.828 146.701 142.83H146.706ZM358.34 125.998C358.303 126.001 358.266 126.001 358.23 125.998C358.093 125.978 357.969 125.904 357.887 125.793C357.804 125.681 357.768 125.542 357.788 125.405C358.033 123.706 358.242 121.981 358.409 120.273C358.422 120.135 358.49 120.008 358.596 119.919C358.703 119.831 358.841 119.789 358.978 119.803C359.116 119.816 359.243 119.884 359.33 119.991C359.418 120.098 359.46 120.236 359.447 120.374C359.28 122.097 359.071 123.842 358.821 125.555C358.803 125.673 358.745 125.782 358.657 125.863C358.568 125.943 358.455 125.991 358.335 125.998H358.34ZM143.687 130.741C143.561 130.749 143.435 130.71 143.335 130.632C143.235 130.554 143.166 130.442 143.142 130.317C142.819 128.616 142.531 126.871 142.288 125.166C142.286 125.037 142.331 124.911 142.415 124.813C142.5 124.716 142.617 124.653 142.744 124.636C142.872 124.62 143.001 124.651 143.107 124.724C143.214 124.797 143.289 124.907 143.319 125.033C143.565 126.734 143.844 128.449 144.163 130.133C144.189 130.269 144.16 130.41 144.082 130.525C144.005 130.64 143.885 130.719 143.749 130.745L143.687 130.741ZM359.403 113.583H359.354C359.285 113.581 359.218 113.566 359.155 113.537C359.093 113.509 359.036 113.469 358.989 113.419C358.942 113.369 358.906 113.31 358.881 113.246C358.857 113.181 358.846 113.113 358.848 113.044C358.897 111.321 358.907 109.598 358.878 107.875C358.872 107.804 358.88 107.732 358.903 107.664C358.926 107.596 358.962 107.533 359.01 107.48C359.058 107.427 359.116 107.384 359.181 107.354C359.247 107.324 359.317 107.308 359.389 107.307C359.46 107.305 359.531 107.319 359.597 107.346C359.663 107.373 359.723 107.414 359.773 107.466C359.823 107.517 359.862 107.578 359.887 107.645C359.913 107.712 359.924 107.784 359.921 107.856C359.952 109.579 359.943 111.346 359.891 113.076C359.888 113.205 359.837 113.328 359.749 113.422C359.66 113.515 359.541 113.573 359.413 113.583H359.403ZM142.055 118.387C141.987 118.392 141.918 118.383 141.852 118.361C141.787 118.338 141.727 118.303 141.675 118.258C141.624 118.212 141.582 118.156 141.552 118.094C141.522 118.032 141.504 117.964 141.501 117.895C141.469 117.489 141.439 117.08 141.415 116.665C141.329 115.343 141.265 113.999 141.228 112.677C141.224 112.538 141.275 112.403 141.37 112.302C141.465 112.201 141.596 112.141 141.735 112.137C141.874 112.133 142.008 112.184 142.109 112.279C142.21 112.375 142.269 112.506 142.274 112.645C142.311 113.957 142.372 115.286 142.455 116.598C142.482 117.002 142.512 117.405 142.541 117.809C142.546 117.878 142.537 117.948 142.515 118.014C142.493 118.08 142.459 118.141 142.413 118.193C142.367 118.246 142.312 118.289 142.25 118.319C142.187 118.35 142.12 118.368 142.05 118.373L142.055 118.387ZM359.071 101.129C358.935 101.138 358.8 101.092 358.696 101.003C358.593 100.913 358.528 100.786 358.517 100.649C358.374 98.9433 358.188 97.2032 357.962 95.5074L357.94 95.3425C357.928 95.273 357.93 95.2018 357.947 95.1332C357.963 95.0646 357.993 95 358.034 94.9432C358.076 94.8864 358.129 94.8387 358.189 94.8028C358.25 94.7669 358.317 94.7436 358.387 94.7344C358.456 94.7251 358.527 94.73 358.595 94.7488C358.663 94.7676 358.726 94.8 358.781 94.8439C358.836 94.8878 358.881 94.9424 358.915 95.0043C358.948 95.0663 358.969 95.1345 358.976 95.2047L358.998 95.372C359.224 97.0949 359.413 98.8375 359.557 100.56C359.569 100.699 359.525 100.836 359.436 100.942C359.347 101.048 359.219 101.115 359.081 101.126L359.071 101.129ZM141.82 105.928H141.766C141.629 105.92 141.501 105.859 141.41 105.757C141.318 105.655 141.27 105.522 141.275 105.384C141.339 103.662 141.449 101.899 141.596 100.174C141.614 100.04 141.682 99.9179 141.787 99.8332C141.892 99.7485 142.026 99.7078 142.16 99.7196C142.294 99.7313 142.419 99.7946 142.508 99.8962C142.597 99.9979 142.643 100.13 142.637 100.265C142.49 101.973 142.392 103.711 142.318 105.434C142.31 105.563 142.255 105.685 142.163 105.776C142.071 105.867 141.949 105.92 141.82 105.926V105.928ZM357.29 88.6208C357.164 88.6293 357.038 88.5915 356.938 88.5146C356.837 88.4377 356.768 88.3267 356.743 88.2023C356.406 86.5188 356.026 84.823 355.609 83.1592C355.587 83.0284 355.615 82.8941 355.688 82.7834C355.761 82.6727 355.873 82.5938 356.001 82.5626C356.13 82.5314 356.265 82.5502 356.38 82.6152C356.496 82.6803 356.582 82.7867 356.622 82.913C357.042 84.5916 357.427 86.3047 357.768 88.003C357.795 88.1393 357.767 88.2808 357.69 88.3965C357.614 88.5122 357.494 88.5928 357.359 88.6208H357.29ZM143.007 93.5285C142.969 93.5334 142.93 93.5334 142.892 93.5285C142.824 93.5183 142.759 93.4948 142.701 93.4593C142.642 93.4238 142.591 93.3771 142.55 93.3217C142.51 93.2664 142.481 93.2035 142.464 93.1368C142.448 93.0701 142.445 93.0008 142.455 92.9329C142.72 91.21 143.03 89.4871 143.376 87.7815C143.387 87.7115 143.412 87.6445 143.449 87.5845C143.487 87.5245 143.536 87.4728 143.594 87.4324C143.652 87.392 143.718 87.3639 143.787 87.3496C143.856 87.3353 143.927 87.3353 143.996 87.3494C144.066 87.3636 144.131 87.3916 144.189 87.4319C144.247 87.4722 144.297 87.5238 144.334 87.5838C144.372 87.6437 144.397 87.7106 144.408 87.7806C144.419 87.8505 144.416 87.922 144.399 87.9907C144.055 89.6766 143.751 91.3922 143.489 93.0929C143.468 93.2088 143.41 93.3146 143.323 93.3935C143.235 93.4724 143.125 93.5199 143.007 93.5285ZM354.163 76.5703C354.047 76.5775 353.932 76.5455 353.836 76.4795C353.74 76.4136 353.668 76.3173 353.633 76.2061C353.108 74.5742 352.536 72.9326 351.932 71.3278C351.884 71.1973 351.889 71.0526 351.946 70.9257C352.004 70.7987 352.109 70.6999 352.239 70.651C352.369 70.602 352.514 70.6069 352.64 70.6646C352.767 70.7223 352.865 70.8281 352.914 70.9586C353.523 72.5781 354.102 74.2371 354.632 75.8812C354.675 76.0134 354.663 76.1571 354.6 76.2807C354.537 76.4044 354.427 76.498 354.296 76.5408C354.252 76.552 354.208 76.5594 354.163 76.563V76.5703ZM145.611 81.3206C145.553 81.3237 145.494 81.317 145.437 81.3009C145.371 81.2827 145.309 81.2516 145.255 81.2095C145.202 81.1673 145.156 81.1149 145.123 81.0552C145.089 80.9956 145.067 80.9298 145.059 80.8618C145.051 80.7937 145.056 80.7246 145.074 80.6585C145.533 78.9849 146.038 77.3013 146.576 75.6498C146.597 75.5844 146.631 75.5238 146.676 75.4715C146.721 75.4193 146.775 75.3764 146.837 75.3453C146.898 75.3143 146.965 75.2956 147.033 75.2904C147.102 75.2852 147.171 75.2936 147.236 75.3151C147.301 75.3366 147.362 75.3708 147.414 75.4157C147.466 75.4606 147.509 75.5153 147.54 75.5768C147.571 75.6383 147.589 75.7053 147.594 75.774C147.599 75.8427 147.591 75.9117 147.57 75.9772C147.035 77.6115 146.534 79.2802 146.08 80.9366C146.05 81.0401 145.989 81.1318 145.905 81.1992C145.821 81.2666 145.719 81.3064 145.611 81.3132V81.3206ZM349.675 64.9507C349.569 64.9569 349.463 64.9309 349.372 64.876C349.281 64.8211 349.209 64.7399 349.164 64.643C348.455 63.0826 347.692 61.5172 346.916 59.9912C346.851 59.8675 346.838 59.7229 346.879 59.5893C346.92 59.4557 347.013 59.3439 347.136 59.2787C347.259 59.2134 347.403 59.1999 347.537 59.2412C347.67 59.2825 347.781 59.3752 347.846 59.4989C348.634 61.0397 349.4 62.6198 350.114 64.1975C350.171 64.3238 350.177 64.4679 350.128 64.598C350.08 64.7281 349.982 64.8337 349.856 64.8916C349.799 64.9194 349.738 64.9369 349.675 64.9433V64.9507ZM149.592 69.4991C149.514 69.5035 149.436 69.4909 149.364 69.4622C149.236 69.4097 149.133 69.3087 149.079 69.181C149.025 69.0533 149.023 68.9094 149.074 68.7804C149.722 67.1732 150.416 65.5586 151.138 63.9809C151.197 63.8562 151.302 63.7598 151.432 63.7126C151.561 63.6655 151.704 63.6714 151.829 63.729C151.954 63.7867 152.051 63.8915 152.1 64.0207C152.148 64.1499 152.144 64.293 152.088 64.419C151.371 65.9622 150.681 67.5719 150.043 69.1619C150.008 69.2546 149.946 69.335 149.866 69.3935C149.786 69.452 149.691 69.4861 149.592 69.4917V69.4991ZM343.888 53.9315C343.791 53.9407 343.694 53.9226 343.607 53.879C343.521 53.8355 343.448 53.7684 343.397 53.6854C342.516 52.2209 341.586 50.754 340.636 49.3314C340.559 49.2159 340.531 49.0743 340.558 48.9379C340.585 48.8015 340.665 48.6815 340.78 48.6041C340.895 48.5267 341.036 48.4985 341.172 48.5255C341.308 48.5525 341.428 48.6325 341.505 48.7481C342.465 50.1855 343.402 51.6647 344.29 53.1464C344.337 53.2232 344.363 53.3108 344.366 53.4007C344.369 53.4906 344.349 53.5797 344.308 53.6595C344.266 53.7392 344.205 53.8069 344.129 53.8558C344.054 53.9048 343.968 53.9334 343.878 53.9389L343.888 53.9315ZM154.893 58.2092C154.795 58.2164 154.697 58.195 154.61 58.1477C154.489 58.0806 154.399 57.9683 154.36 57.8351C154.321 57.7019 154.336 57.5586 154.402 57.4364C155.226 55.9153 156.098 54.3893 156.993 52.9076C157.027 52.8446 157.072 52.789 157.128 52.7443C157.183 52.6997 157.247 52.6668 157.316 52.6478C157.384 52.6287 157.456 52.6239 157.527 52.6337C157.597 52.6434 157.665 52.6674 157.726 52.7043C157.787 52.7412 157.839 52.7902 157.881 52.8483C157.922 52.9063 157.951 52.9722 157.966 53.042C157.981 53.1117 157.982 53.1837 157.968 53.2538C157.955 53.3238 157.927 53.3902 157.887 53.4491C157.001 54.9259 156.137 56.4297 155.32 57.936C155.278 58.0144 155.217 58.0807 155.142 58.1286C155.067 58.1764 154.981 58.2042 154.893 58.2092ZM336.886 43.6483C336.801 43.6535 336.715 43.6376 336.637 43.602C336.558 43.5664 336.49 43.5122 336.437 43.444C335.394 42.0854 334.302 40.7366 333.198 39.4297C333.108 39.3239 333.064 39.1869 333.076 39.0486C333.087 38.9104 333.153 38.7823 333.258 38.6925C333.363 38.6028 333.5 38.5587 333.638 38.57C333.776 38.5813 333.903 38.6471 333.993 38.7528C335.11 40.0696 336.202 41.4332 337.264 42.8041C337.307 42.8586 337.338 42.921 337.356 42.9877C337.375 43.0545 337.38 43.1241 337.371 43.1928C337.362 43.2614 337.34 43.3277 337.306 43.3877C337.272 43.4477 337.226 43.5003 337.171 43.5425C337.088 43.6048 336.99 43.6416 336.886 43.6483ZM161.438 47.6085C161.34 47.6155 161.241 47.5944 161.154 47.5475C161.068 47.5007 160.996 47.4301 160.948 47.344C160.899 47.2578 160.876 47.1597 160.881 47.061C160.887 46.9623 160.919 46.8671 160.976 46.7864C161.958 45.3663 163.006 43.9535 164.064 42.5826C164.106 42.5283 164.158 42.4828 164.217 42.4487C164.277 42.4146 164.342 42.3926 164.41 42.3839C164.478 42.3752 164.547 42.3801 164.613 42.3981C164.679 42.4161 164.741 42.447 164.795 42.4891C164.849 42.5311 164.895 42.5834 164.928 42.643C164.962 42.7026 164.984 42.7683 164.993 42.8364C165.002 42.9045 164.997 42.9737 164.979 43.0399C164.961 43.1062 164.93 43.1682 164.888 43.2225C163.843 44.5811 162.815 45.9816 161.83 47.387C161.786 47.4513 161.728 47.5047 161.66 47.5431C161.592 47.5814 161.516 47.6038 161.438 47.6085ZM328.756 34.2339C328.68 34.2387 328.605 34.2271 328.534 34.1999C328.463 34.1728 328.399 34.1306 328.346 34.0764C327.156 32.8458 325.919 31.6275 324.665 30.4534C324.61 30.4078 324.565 30.3513 324.533 30.2875C324.5 30.2237 324.481 30.1539 324.477 30.0825C324.472 30.0111 324.482 29.9395 324.507 29.8721C324.531 29.8048 324.568 29.7431 324.617 29.6909C324.666 29.6387 324.725 29.5971 324.791 29.5687C324.856 29.5402 324.927 29.5255 324.998 29.5255C325.069 29.5254 325.14 29.54 325.206 29.5684C325.271 29.5968 325.33 29.6383 325.379 29.6904C326.641 30.8743 327.887 32.1025 329.092 33.3454C329.189 33.4439 329.243 33.5765 329.243 33.7146C329.243 33.8527 329.189 33.9853 329.092 34.0838C329.002 34.1735 328.883 34.2269 328.756 34.2339ZM169.134 37.8225C169.065 37.828 168.996 37.8192 168.93 37.7968C168.865 37.7744 168.805 37.7387 168.753 37.692C168.702 37.6466 168.66 37.5913 168.63 37.5296C168.6 37.4678 168.582 37.4007 168.578 37.3321C168.574 37.2634 168.584 37.1947 168.606 37.1298C168.629 37.0648 168.664 37.005 168.709 36.9537C169.853 35.6566 171.046 34.3693 172.248 33.1288C172.295 33.0729 172.352 33.0273 172.417 32.9949C172.482 32.9626 172.553 32.9442 172.626 32.9409C172.699 32.9376 172.771 32.9495 172.839 32.9758C172.906 33.0022 172.968 33.0424 173.019 33.0939C173.071 33.1454 173.111 33.2071 173.137 33.2749C173.163 33.3428 173.175 33.4155 173.172 33.4883C173.168 33.561 173.15 33.6323 173.118 33.6975C173.086 33.7628 173.04 33.8206 172.984 33.8672C171.792 35.0979 170.614 36.3703 169.48 37.6551C169.39 37.7535 169.266 37.8135 169.134 37.8225ZM319.61 25.8016C319.477 25.8105 319.346 25.7682 319.244 25.6835C317.921 24.598 316.544 23.5274 315.18 22.5035C315.125 22.4625 315.078 22.4109 315.043 22.3518C315.008 22.2928 314.984 22.2273 314.974 22.1592C314.964 22.0911 314.968 22.0217 314.985 21.9549C315.001 21.8881 315.031 21.8253 315.072 21.77C315.113 21.7148 315.164 21.6681 315.223 21.6328C315.282 21.5974 315.347 21.574 315.415 21.564C315.483 21.5539 315.552 21.5574 315.619 21.5742C315.685 21.5909 315.748 21.6207 315.803 21.6617C317.19 22.6955 318.571 23.776 319.906 24.8614C319.987 24.9281 320.046 25.0177 320.076 25.1184C320.105 25.2192 320.104 25.3265 320.072 25.4265C320.04 25.5264 319.979 25.6145 319.896 25.6792C319.814 25.7439 319.714 25.7822 319.61 25.7893V25.8016ZM177.883 28.9791C177.774 28.987 177.666 28.9605 177.573 28.9036C177.481 28.8466 177.408 28.7619 177.366 28.6614C177.324 28.5609 177.314 28.4497 177.338 28.3433C177.362 28.237 177.419 28.1408 177.5 28.0684C178.783 26.9092 180.111 25.7696 181.449 24.6743C181.556 24.5865 181.693 24.545 181.831 24.5589C181.968 24.5727 182.095 24.6408 182.182 24.7482C182.27 24.8556 182.311 24.9934 182.297 25.1314C182.284 25.2695 182.216 25.3963 182.109 25.4841C180.786 26.5695 179.471 27.6993 178.199 28.8462C178.111 28.9247 178 28.9714 177.883 28.9791ZM309.565 18.4596C309.453 18.467 309.342 18.4376 309.248 18.3759C307.81 17.4456 306.33 16.5374 304.848 15.6685C304.786 15.6354 304.731 15.5901 304.687 15.5352C304.643 15.4804 304.61 15.4172 304.591 15.3494C304.572 15.2816 304.566 15.2106 304.575 15.1406C304.584 15.0706 304.606 15.0032 304.642 14.9422C304.677 14.8813 304.724 14.8281 304.781 14.7859C304.837 14.7437 304.901 14.7133 304.969 14.6965C305.038 14.6798 305.109 14.677 305.178 14.6884C305.247 14.6998 305.314 14.7251 305.373 14.7628C306.868 15.6316 308.362 16.5497 309.813 17.4899C309.904 17.5496 309.975 17.6367 310.015 17.7389C310.055 17.841 310.061 17.9531 310.034 18.0594C310.007 18.1656 309.948 18.2607 309.864 18.3312C309.78 18.4016 309.676 18.444 309.567 18.4522L309.565 18.4596ZM187.574 21.1941C187.485 21.2007 187.396 21.184 187.316 21.1456C187.235 21.1072 187.166 21.0484 187.115 20.975C187.074 20.9187 187.045 20.8548 187.029 20.787C187.013 20.7191 187.01 20.6488 187.022 20.58C187.033 20.5113 187.058 20.4455 187.095 20.3865C187.132 20.3276 187.181 20.2766 187.238 20.2367C188.644 19.2349 190.092 18.2529 191.542 17.3201C191.601 17.2829 191.666 17.2576 191.734 17.2457C191.802 17.2339 191.872 17.2356 191.94 17.2508C192.007 17.266 192.071 17.2943 192.128 17.3343C192.185 17.3743 192.233 17.4251 192.27 17.4837C192.307 17.5424 192.332 17.6078 192.344 17.6762C192.356 17.7447 192.354 17.8147 192.339 17.8825C192.324 17.9503 192.296 18.0144 192.256 18.0712C192.216 18.128 192.165 18.1763 192.107 18.2135C190.669 19.1389 189.235 20.1111 187.844 21.103C187.764 21.1582 187.671 21.1898 187.574 21.1941ZM298.745 12.3089C298.653 12.3153 298.562 12.2966 298.48 12.2548C296.943 11.4942 295.37 10.7608 293.8 10.0741C293.735 10.0477 293.676 10.0086 293.627 9.95905C293.577 9.90951 293.538 9.85056 293.512 9.78566C293.486 9.72076 293.473 9.65123 293.474 9.58119C293.475 9.51115 293.49 9.44201 293.518 9.37785C293.546 9.3137 293.586 9.25583 293.637 9.20767C293.688 9.15951 293.748 9.12204 293.813 9.09746C293.878 9.07288 293.948 9.06169 294.018 9.06456C294.088 9.06743 294.156 9.08429 294.219 9.11416C295.802 9.80578 297.393 10.5491 298.941 11.317C299.04 11.37 299.12 11.4536 299.168 11.5555C299.216 11.6573 299.23 11.772 299.208 11.8824C299.186 11.9929 299.129 12.0933 299.045 12.1688C298.962 12.2443 298.857 12.2908 298.745 12.3015V12.3089ZM198.075 14.5733C197.956 14.5824 197.837 14.55 197.738 14.4817C197.639 14.4133 197.567 14.3131 197.534 14.1977C197.5 14.0824 197.507 13.9589 197.553 13.8481C197.6 13.7372 197.682 13.6457 197.788 13.5888C199.302 12.7544 200.856 11.9422 202.407 11.1816C202.469 11.1467 202.537 11.1248 202.608 11.1173C202.679 11.1098 202.75 11.1169 202.818 11.1381C202.886 11.1593 202.949 11.1942 203.003 11.2407C203.057 11.2871 203.101 11.3441 203.132 11.4082C203.163 11.4723 203.181 11.5421 203.185 11.6133C203.188 11.6846 203.177 11.7558 203.152 11.8226C203.127 11.8894 203.089 11.9504 203.04 12.0019C202.99 12.0533 202.931 12.0942 202.865 12.1218C201.337 12.8775 199.798 13.6823 198.291 14.5216C198.226 14.5533 198.155 14.5709 198.082 14.5733H198.075ZM287.299 7.43557C287.227 7.44016 287.155 7.43011 287.088 7.40604C285.475 6.82518 283.826 6.27631 282.18 5.77421C282.053 5.72864 281.949 5.63617 281.889 5.51592C281.829 5.39567 281.818 5.25685 281.857 5.12817C281.896 4.99949 281.983 4.89081 282.099 4.8246C282.216 4.7584 282.354 4.73973 282.484 4.77247C284.138 5.2795 285.802 5.83328 287.431 6.42153C287.545 6.46114 287.642 6.53922 287.705 6.64241C287.768 6.74561 287.793 6.86751 287.776 6.98728C287.759 7.10705 287.702 7.21724 287.613 7.29901C287.524 7.38078 287.409 7.42905 287.289 7.43557H287.299ZM209.283 9.20523C209.159 9.21352 209.036 9.17721 208.936 9.10281C208.837 9.02842 208.766 8.92081 208.739 8.79929C208.711 8.67778 208.727 8.55031 208.785 8.43977C208.842 8.32922 208.937 8.24284 209.052 8.19611C210.65 7.54141 212.287 6.91378 213.916 6.33538C214.043 6.30213 214.177 6.31777 214.293 6.37921C214.409 6.44065 214.497 6.54341 214.541 6.66717C214.585 6.79092 214.581 6.92666 214.53 7.04753C214.479 7.1684 214.384 7.2656 214.265 7.31989C212.65 7.89337 211.03 8.51361 209.447 9.16339C209.397 9.18246 209.344 9.19407 209.29 9.19785L209.283 9.20523ZM275.374 3.8938C275.323 3.89694 275.272 3.8928 275.222 3.88149C273.551 3.49015 271.85 3.14311 270.164 2.82314C270.028 2.79801 269.907 2.71958 269.828 2.60511C269.75 2.49064 269.72 2.3495 269.745 2.21275C269.77 2.07599 269.848 1.95482 269.962 1.87589C270.076 1.79696 270.217 1.76674 270.353 1.79187C272.054 2.10691 273.772 2.46626 275.46 2.86006C275.582 2.88866 275.69 2.96036 275.764 3.06208C275.838 3.1638 275.873 3.28875 275.862 3.41412C275.852 3.5395 275.797 3.65693 275.707 3.74499C275.618 3.83306 275.5 3.88587 275.374 3.8938ZM221.041 5.14659C220.913 5.15299 220.787 5.11219 220.687 5.03191C220.588 4.95163 220.521 4.83745 220.499 4.71098C220.478 4.58452 220.503 4.45454 220.571 4.34567C220.639 4.2368 220.744 4.1566 220.866 4.12023C222.528 3.65259 224.224 3.21695 225.909 2.82807C226.045 2.79543 226.187 2.81793 226.306 2.89063C226.424 2.96333 226.509 3.08027 226.541 3.21572C226.574 3.35117 226.552 3.49403 226.479 3.61289C226.407 3.73175 226.29 3.81686 226.155 3.84949C224.486 4.23345 222.808 4.66418 221.161 5.12936C221.122 5.13977 221.081 5.14555 221.041 5.14659ZM263.121 1.75741C263.09 1.7611 263.059 1.7611 263.028 1.75741C261.327 1.56051 259.592 1.40545 257.894 1.28977C257.757 1.27811 257.631 1.21325 257.542 1.10914C257.453 1.00502 257.408 0.869944 257.417 0.732945C257.426 0.595946 257.488 0.467955 257.59 0.376477C257.692 0.284999 257.826 0.237334 257.963 0.243726C259.68 0.359406 261.43 0.519389 263.146 0.716291C263.275 0.731606 263.394 0.794721 263.479 0.893291C263.564 0.991862 263.61 1.1188 263.607 1.24928C263.604 1.37976 263.552 1.50441 263.462 1.59883C263.373 1.69326 263.251 1.75068 263.121 1.75987V1.75741ZM233.174 2.46134C233.039 2.47045 232.906 2.42715 232.803 2.34048C232.7 2.25382 232.634 2.13047 232.619 1.99617C232.604 1.86187 232.641 1.727 232.723 1.61969C232.805 1.51238 232.925 1.44092 233.058 1.42022C234.121 1.24793 235.203 1.0904 236.273 0.947651C236.919 0.863967 237.571 0.782745 238.214 0.701523C238.35 0.689671 238.485 0.731298 238.59 0.817557C238.696 0.903816 238.763 1.02791 238.779 1.16347C238.795 1.29903 238.757 1.43537 238.674 1.54352C238.591 1.65167 238.469 1.7231 238.335 1.74264C237.697 1.81402 237.049 1.89524 236.411 1.98877C235.35 2.12906 234.278 2.28658 233.22 2.45887L233.174 2.46134ZM250.716 1.04118H250.681C248.963 1.04118 247.245 1.08302 245.528 1.16424C245.392 1.16661 245.262 1.11643 245.163 1.02421C245.064 0.931998 245.004 0.80492 244.997 0.669629C244.989 0.534338 245.034 0.401343 245.122 0.298538C245.21 0.195732 245.334 0.131102 245.469 0.118201C247.187 0.0345175 248.946 -0.00732422 250.671 -0.00732422C250.805 -0.00369317 250.931 0.0507793 251.026 0.144969C251.12 0.239158 251.175 0.365958 251.18 0.499474C251.184 0.632989 251.137 0.763148 251.049 0.863367C250.961 0.963586 250.838 1.02631 250.706 1.03872L250.716 1.04118Z" fill="#3E7BFA"/>
<path d="M267.872 65.1279V245.328H267.401L253.798 232.052L240.195 245.328H238.776L225.173 232.052L211.568 245.328H210.171L196.59 232.076L183.012 245.328H181.62L168.027 232.062L154.431 245.328H152.998L139.402 232.062L125.807 245.328H124.391L110.822 232.086L97.2532 245.328H96.355V15.0459H217.936L267.872 65.1279Z" fill="#E7EDFC"/>
<path d="M267.872 65.1279H217.936V15.0459L267.872 65.1279Z" fill="#3E7BFA" fill-opacity="0.1"/>
<path d="M147.708 156.54V150.651H131.601C129.567 150.651 128.041 150.197 127.024 149.289C126.007 148.381 125.498 147.146 125.498 145.585C125.498 145.169 125.572 144.756 125.716 144.365C125.889 143.911 126.115 143.477 126.39 143.074C126.688 142.621 127 142.184 127.32 141.76C127.641 141.336 128.037 140.822 128.508 140.209L145.511 117.758C146.624 116.28 147.538 115.209 148.255 114.545C148.949 113.888 149.877 113.53 150.838 113.546C154.09 113.546 155.716 115.383 155.716 119.058V143.556H157.096C158.741 143.556 160.062 143.779 161.059 144.223C162.056 144.668 162.553 145.639 162.55 147.136C162.55 148.36 162.144 149.252 161.331 149.812C160.519 150.371 159.3 150.651 157.674 150.651H155.712V156.54C155.712 158.166 155.349 159.375 154.622 160.165C153.895 160.955 152.922 161.351 151.703 161.352C151.158 161.372 150.615 161.273 150.113 161.063C149.611 160.852 149.162 160.535 148.798 160.135C148.073 159.322 147.709 158.123 147.708 156.54ZM133.912 143.556H147.708V125.16L133.912 143.556Z" fill="#3E7BFA"/>
<path d="M198.406 137.696C198.406 141.184 198.192 144.182 197.764 146.691C197.384 149.085 196.595 151.394 195.433 153.514C194.006 156.023 192.157 157.957 189.886 159.317C187.408 160.763 184.574 161.465 181.716 161.341C178.858 161.216 176.094 160.271 173.747 158.616C171.214 156.787 169.307 154.26 168.027 151.034C167.344 149.142 166.863 147.181 166.593 145.185C166.278 142.888 166.125 140.572 166.137 138.253C166.118 135.357 166.286 132.462 166.64 129.588C166.903 127.322 167.431 125.095 168.215 122.955C169.455 119.895 171.257 117.562 173.621 115.956C175.984 114.35 178.804 113.547 182.081 113.547C184.095 113.52 186.095 113.883 187.974 114.615C189.722 115.317 191.306 116.382 192.622 117.741C194.03 119.22 195.177 120.933 196.011 122.806C197.608 126.314 198.406 131.277 198.406 137.696ZM189.77 137.06C189.77 133.169 189.539 129.985 189.077 127.509C188.614 125.032 187.837 123.161 186.746 121.896C185.654 120.632 184.141 120 182.207 119.998C179.436 119.998 177.509 121.412 176.427 124.24C175.345 127.067 174.805 131.426 174.805 137.315C174.805 141.311 175.036 144.585 175.498 147.137C175.96 149.689 176.738 151.617 177.829 152.923C178.921 154.231 180.403 154.885 182.274 154.885C184.206 154.885 185.719 154.205 186.812 152.845C187.905 151.484 188.672 149.539 189.111 147.009C189.551 144.479 189.77 141.162 189.77 137.06Z" fill="#3E7BFA"/>
<path d="M224.205 156.54V150.651H208.096C206.061 150.651 204.535 150.197 203.518 149.289C202.501 148.381 201.992 147.146 201.992 145.585C201.992 145.169 202.066 144.756 202.21 144.365C202.382 143.91 202.608 143.477 202.884 143.074C203.182 142.621 203.492 142.184 203.815 141.76C204.137 141.336 204.53 140.822 205 140.209L222.004 117.758C223.115 116.28 224.03 115.209 224.748 114.545C225.442 113.888 226.37 113.529 227.331 113.547C230.582 113.547 232.208 115.384 232.208 119.058V143.556H233.588C235.236 143.556 236.557 143.779 237.551 144.223C238.545 144.668 239.043 145.639 239.044 147.136C239.044 148.36 238.637 149.252 237.823 149.812C237.009 150.371 235.79 150.651 234.165 150.651H232.203V156.54C232.203 158.166 231.84 159.375 231.113 160.165C230.387 160.955 229.413 161.351 228.192 161.352C227.648 161.372 227.105 161.273 226.603 161.063C226.101 160.852 225.653 160.535 225.289 160.135C224.567 159.322 224.205 158.123 224.205 156.54ZM210.407 143.556H224.205V125.16L210.407 143.556Z" fill="#3E7BFA"/>
<path d="M180.779 298.223C180.217 298.787 179.551 299.234 178.817 299.539C178.083 299.844 177.296 300.001 176.501 300.001C175.707 300.001 174.92 299.844 174.186 299.539C173.452 299.234 172.786 298.787 172.224 298.223L135.493 261.388L130.831 256.711C134.234 254.458 137.147 251.536 139.393 248.121L180.791 289.643C181.352 290.207 181.797 290.877 182.1 291.613C182.404 292.35 182.559 293.139 182.558 293.936C182.557 294.732 182.399 295.521 182.094 296.257C181.789 296.993 181.342 297.661 180.779 298.223Z" fill="#8F90A6"/>
<path d="M141.241 249.987L150.811 259.586C148.569 262.997 145.659 265.916 142.259 268.166L137.351 263.244L132.688 258.567C136.088 256.316 138.997 253.397 141.241 249.987Z" fill="#555770"/>
<path d="M150.78 229.996C150.573 225.029 149.356 220.157 147.204 215.678C145.052 211.2 142.009 207.21 138.264 203.954C132.981 199.348 126.488 196.364 119.561 195.357C112.633 194.35 105.563 195.363 99.1936 198.274C92.824 201.186 87.4239 205.873 83.6371 211.777C79.8503 217.682 77.8367 224.554 77.8364 231.574C77.8363 232.956 77.9133 234.338 78.0671 235.711C78.533 239.878 79.7145 243.931 81.5593 247.693C84.1494 252.973 87.9673 257.552 92.6911 261.043C93.4551 261.609 94.2405 262.145 95.047 262.65C101.162 266.462 108.264 268.376 115.46 268.152C122.657 267.927 129.627 265.574 135.493 261.388C138.801 259.022 141.695 256.121 144.055 252.805C148.467 246.612 150.832 239.188 150.819 231.577C150.814 231.047 150.801 230.52 150.78 229.996ZM114.324 261.658C110.385 261.658 106.484 260.88 102.845 259.368C99.2055 257.856 95.8987 255.64 93.1133 252.847C90.3279 250.053 88.1183 246.737 86.6109 243.087C85.1034 239.437 84.3275 235.525 84.3275 231.574C84.3275 227.623 85.1034 223.711 86.6109 220.061C88.1183 216.411 90.3279 213.095 93.1133 210.301C95.8987 207.508 99.2055 205.292 102.845 203.78C106.484 202.268 110.385 201.49 114.324 201.49C115.633 201.487 116.94 201.569 118.238 201.736C125.454 202.689 132.079 206.24 136.878 211.728C141.677 217.217 144.323 224.267 144.323 231.567C144.323 232.024 144.311 232.48 144.291 232.933C144.054 238.188 142.446 243.289 139.63 247.727C136.813 252.165 132.886 255.784 128.239 258.225C126.321 259.235 124.298 260.031 122.207 260.6C119.637 261.302 116.987 261.658 114.324 261.658Z" fill="#8F90A6"/>
<path d="M91.6087 234.882C90.8661 234.882 90.1539 234.586 89.6287 234.06C89.1036 233.533 88.8086 232.819 88.8086 232.074C88.8086 225.155 91.5493 218.519 96.4278 213.626C101.306 208.733 107.923 205.984 114.822 205.984C115.551 206.006 116.242 206.311 116.75 206.836C117.258 207.361 117.542 208.063 117.542 208.794C117.542 209.525 117.258 210.227 116.75 210.752C116.242 211.276 115.551 211.582 114.822 211.603C109.409 211.603 104.217 213.76 100.389 217.599C96.5617 221.438 94.4113 226.645 94.4113 232.074C94.4113 232.443 94.3388 232.808 94.1979 233.149C94.0571 233.49 93.8506 233.8 93.5903 234.061C93.33 234.321 93.0211 234.528 92.681 234.669C92.341 234.81 91.9767 234.883 91.6087 234.882Z" fill="white"/>
</g>
<defs>
<clipPath id="clip0_2335_24485">
<rect width="369.323" height="300" fill="white"/>
</clipPath>
</defs>
</svg>
