<svg width="247" height="200" viewBox="0 0 247 200" fill="none" xmlns="http://www.w3.org/2000/svg">
<path d="M193.855 155.684C193.829 155.639 193.794 155.6 193.753 155.568C193.712 155.537 193.665 155.514 193.615 155.501C193.565 155.488 193.512 155.486 193.461 155.493C193.41 155.5 193.361 155.518 193.316 155.544L192.008 156.317L191.237 155.004C191.184 154.915 191.097 154.85 190.996 154.824C190.895 154.798 190.788 154.813 190.699 154.867C190.609 154.92 190.544 155.007 190.519 155.108C190.493 155.209 190.508 155.317 190.561 155.407L191.332 156.719L190.023 157.492C189.978 157.518 189.939 157.553 189.909 157.594C189.878 157.636 189.855 157.683 189.843 157.733C189.823 157.809 189.826 157.888 189.852 157.962C189.877 158.036 189.924 158.1 189.986 158.147C190.048 158.194 190.123 158.221 190.201 158.225C190.278 158.229 190.356 158.21 190.422 158.17L191.731 157.397L192.5 158.71C192.542 158.78 192.604 158.835 192.678 158.868C192.753 158.902 192.836 158.911 192.916 158.895C192.959 158.887 193.001 158.871 193.038 158.847C193.128 158.794 193.193 158.708 193.219 158.607C193.245 158.506 193.23 158.399 193.177 158.309L192.407 156.996L193.716 156.224C193.76 156.197 193.799 156.163 193.83 156.121C193.861 156.08 193.884 156.033 193.897 155.983C193.91 155.933 193.913 155.88 193.905 155.829C193.898 155.778 193.881 155.728 193.855 155.684Z" fill="#3E7BFA"/>
<path d="M197.158 164.336C196.819 164.336 196.488 164.235 196.207 164.047C195.925 163.858 195.706 163.59 195.577 163.276C195.447 162.963 195.413 162.618 195.479 162.285C195.545 161.952 195.708 161.646 195.948 161.406C196.187 161.166 196.492 161.003 196.824 160.936C197.156 160.87 197.5 160.904 197.812 161.034C198.125 161.164 198.392 161.384 198.58 161.666C198.768 161.948 198.869 162.28 198.869 162.62C198.868 163.075 198.688 163.511 198.367 163.833C198.046 164.155 197.611 164.336 197.158 164.336ZM197.158 161.822C197 161.822 196.846 161.869 196.715 161.957C196.584 162.045 196.482 162.17 196.421 162.316C196.361 162.462 196.345 162.623 196.376 162.778C196.407 162.933 196.483 163.075 196.595 163.187C196.706 163.299 196.848 163.375 197.003 163.405C197.158 163.436 197.318 163.42 197.464 163.359C197.609 163.298 197.733 163.196 197.821 163.064C197.908 162.932 197.955 162.778 197.954 162.62C197.954 162.408 197.87 162.205 197.72 162.056C197.571 161.906 197.369 161.822 197.158 161.822Z" fill="#3E7BFA"/>
<path d="M24.3507 189.519C24.0121 189.519 23.6811 189.418 23.3995 189.23C23.1178 189.042 22.8982 188.774 22.7684 188.46C22.6387 188.147 22.6045 187.801 22.6704 187.468C22.7362 187.135 22.8991 186.829 23.1384 186.589C23.3776 186.349 23.6825 186.185 24.0146 186.119C24.3466 186.053 24.6907 186.087 25.0035 186.216C25.3163 186.346 25.5837 186.566 25.7718 186.849C25.9599 187.131 26.0604 187.463 26.0604 187.802C26.0599 188.257 25.8797 188.693 25.5592 189.015C25.2387 189.337 24.8041 189.518 24.3507 189.519ZM24.3507 187.003C24.1931 187.003 24.039 187.05 23.908 187.138C23.777 187.226 23.6749 187.35 23.6145 187.496C23.5542 187.642 23.5385 187.803 23.5692 187.958C23.5999 188.113 23.6758 188.256 23.7873 188.367C23.8987 188.479 24.0407 188.555 24.1952 188.586C24.3498 188.617 24.51 188.601 24.6556 188.54C24.8012 188.48 24.9256 188.378 25.0131 188.246C25.1007 188.115 25.1474 187.96 25.1474 187.802C25.1466 187.591 25.0623 187.388 24.913 187.239C24.7637 187.089 24.5616 187.005 24.3507 187.005V187.003Z" fill="#3E7BFA"/>
<path d="M213.815 5.00004C213.476 5.00004 213.146 4.89942 212.864 4.7109C212.583 4.52238 212.364 4.25443 212.234 3.9409C212.104 3.62738 212.07 3.28237 212.136 2.94948C212.202 2.61659 212.365 2.31076 212.604 2.07067C212.843 1.83057 213.148 1.66697 213.48 1.60056C213.812 1.53415 214.156 1.56791 214.469 1.69756C214.781 1.82721 215.049 2.04695 215.237 2.32898C215.425 2.61101 215.526 2.94268 215.526 3.28207C215.526 3.5076 215.482 3.73096 215.396 3.93939C215.31 4.14781 215.184 4.33721 215.025 4.49676C214.866 4.65631 214.678 4.78288 214.47 4.86924C214.262 4.9556 214.04 5.00004 213.815 5.00004ZM213.815 2.48626C213.657 2.48626 213.503 2.53313 213.372 2.62093C213.241 2.70874 213.139 2.83354 213.079 2.97955C213.018 3.12557 213.003 3.28624 213.033 3.44125C213.064 3.59626 213.14 3.73864 213.251 3.8504C213.363 3.96216 213.505 4.03826 213.659 4.06909C213.814 4.09993 213.974 4.0841 214.12 4.02362C214.265 3.96314 214.39 3.86072 214.477 3.72931C214.565 3.5979 214.612 3.4434 214.612 3.28535C214.612 3.07342 214.528 2.87017 214.378 2.72031C214.229 2.57045 214.026 2.48626 213.815 2.48626Z" fill="#3E7BFA"/>
<path d="M243.102 48.4579C243.009 48.5042 242.938 48.5855 242.904 48.6842C242.87 48.7828 242.877 48.8908 242.922 48.9847L243.576 50.3499L242.215 51.0062C242.169 51.0286 242.127 51.0601 242.093 51.0988C242.058 51.1375 242.032 51.1827 242.015 51.2317C241.998 51.2808 241.992 51.3326 241.995 51.3843C241.998 51.436 242.012 51.4866 242.035 51.5329C242.057 51.5794 242.089 51.6209 242.127 51.655C242.166 51.6891 242.211 51.7151 242.259 51.7315C242.308 51.7485 242.359 51.7557 242.411 51.7526C242.462 51.7495 242.513 51.7362 242.559 51.7134L243.92 51.0571L244.574 52.4223C244.621 52.516 244.702 52.5879 244.8 52.6224C244.849 52.6396 244.9 52.6468 244.952 52.6434C245.003 52.64 245.054 52.6262 245.1 52.6027C245.146 52.5803 245.187 52.5489 245.222 52.5104C245.256 52.4718 245.282 52.4268 245.299 52.378C245.316 52.3293 245.323 52.2776 245.32 52.2261C245.317 52.1745 245.304 52.1241 245.281 52.0777L244.627 50.7125L245.986 50.0479C246.033 50.0253 246.074 49.9937 246.109 49.955C246.143 49.9163 246.169 49.8712 246.186 49.8223C246.203 49.7734 246.21 49.7216 246.207 49.67C246.204 49.6183 246.191 49.5678 246.168 49.5212C246.145 49.4747 246.114 49.433 246.075 49.3987C246.037 49.3644 245.992 49.338 245.943 49.3211C245.894 49.3042 245.843 49.297 245.791 49.3001C245.74 49.3032 245.689 49.3165 245.643 49.3391L244.282 50.0036L243.619 48.6401C243.573 48.5484 243.494 48.4782 243.397 48.4442C243.301 48.4102 243.195 48.4152 243.102 48.4579Z" fill="#3E7BFA"/>
<path d="M218.382 81.1143C218.044 81.1143 217.713 81.0136 217.431 80.8251C217.15 80.6365 216.931 80.3684 216.801 80.0548C216.672 79.7412 216.638 79.3961 216.704 79.0631C216.77 78.7302 216.933 78.4244 217.172 78.1843C217.411 77.9443 217.716 77.7808 218.048 77.7146C218.38 77.6484 218.724 77.6824 219.037 77.8123C219.35 77.9422 219.617 78.1622 219.805 78.4444C219.993 78.7267 220.094 79.0585 220.094 79.398C220.093 79.853 219.913 80.2893 219.592 80.6111C219.271 80.9329 218.836 81.1139 218.382 81.1143ZM218.382 78.5989C218.225 78.5989 218.071 78.6457 217.94 78.7336C217.809 78.8214 217.706 78.9462 217.646 79.0922C217.586 79.2382 217.57 79.3989 217.601 79.5539C217.632 79.7089 217.707 79.8513 217.819 79.963C217.93 80.0748 218.072 80.1509 218.227 80.1817C218.381 80.2125 218.542 80.1967 218.687 80.1362C218.833 80.0758 218.957 79.9733 219.045 79.8419C219.132 79.7105 219.179 79.556 219.179 79.398C219.179 79.2929 219.159 79.1888 219.119 79.0917C219.079 78.9945 219.02 78.9062 218.946 78.8319C218.872 78.7575 218.784 78.6985 218.688 78.6582C218.591 78.618 218.487 78.5972 218.382 78.5972V78.5989Z" fill="#3E7BFA"/>
<path d="M0.209261 105.035C0.133617 105.107 0.0894076 105.206 0.0863401 105.31C0.0832726 105.414 0.121598 105.516 0.192901 105.592L1.22853 106.699L0.124186 107.738C0.0675437 107.791 0.0279015 107.86 0.0102674 107.936C-0.00736668 108.012 -0.00220161 108.091 0.0251101 108.164C0.0524219 108.237 0.100655 108.3 0.163716 108.345C0.226777 108.391 0.301837 108.416 0.379412 108.419C0.481396 108.421 0.580029 108.382 0.654272 108.312L1.75862 107.274L2.79425 108.381C2.82932 108.419 2.87156 108.449 2.91848 108.47C2.9654 108.491 3.01605 108.503 3.06747 108.504C3.17138 108.508 3.27246 108.47 3.34888 108.399C3.38669 108.364 3.41716 108.321 3.43853 108.274C3.45991 108.227 3.47178 108.176 3.47345 108.124C3.47512 108.072 3.46657 108.02 3.44828 107.972C3.42999 107.923 3.40232 107.879 3.36687 107.841L2.33124 106.735L3.43559 105.697C3.49462 105.641 3.53495 105.568 3.55106 105.488C3.56717 105.408 3.55826 105.325 3.52557 105.25C3.50844 105.209 3.48406 105.171 3.45358 105.139C3.38188 105.063 3.28309 105.018 3.17883 105.015C3.07458 105.012 2.97335 105.051 2.89732 105.122L1.79952 106.163L0.763888 105.057C0.693135 104.98 0.594974 104.935 0.490977 104.931C0.386979 104.927 0.285652 104.965 0.209261 105.035Z" fill="#3E7BFA"/>
<path d="M17.0694 123.902C16.7309 123.903 16.3998 123.802 16.1182 123.614C15.8366 123.426 15.617 123.158 15.4872 122.844C15.3574 122.53 15.3233 122.185 15.3891 121.852C15.455 121.519 15.6178 121.213 15.8571 120.973C16.0964 120.733 16.4013 120.569 16.7333 120.503C17.0653 120.436 17.4095 120.47 17.7223 120.6C18.0351 120.73 18.3025 120.95 18.4906 121.232C18.6787 121.515 18.7791 121.847 18.7791 122.186C18.7787 122.641 18.5985 123.077 18.278 123.399C17.9575 123.72 17.5229 123.902 17.0694 123.902ZM17.0694 121.387C16.9118 121.387 16.7578 121.434 16.6268 121.522C16.4957 121.609 16.3936 121.734 16.3333 121.88C16.273 122.026 16.2572 122.187 16.288 122.342C16.3187 122.497 16.3946 122.639 16.506 122.751C16.6174 122.863 16.7594 122.939 16.914 122.97C17.0685 123.001 17.2287 122.985 17.3743 122.924C17.5199 122.864 17.6443 122.761 17.7319 122.63C17.8194 122.499 17.8662 122.344 17.8662 122.186C17.8657 121.974 17.7817 121.771 17.6323 121.621C17.483 121.472 17.2806 121.387 17.0694 121.387Z" fill="#3E7BFA"/>
<path d="M46.5249 177.837C46.4363 177.834 46.3522 177.798 46.2897 177.734C46.2272 177.671 46.191 177.587 46.1885 177.498C46.186 177.409 46.2173 177.323 46.2762 177.256C46.335 177.19 46.417 177.148 46.5053 177.14C47.6505 177.076 48.817 176.961 49.9606 176.799C50.0073 176.789 50.0555 176.789 50.1021 176.799C50.1488 176.809 50.1929 176.828 50.2319 176.855C50.2708 176.883 50.3037 176.918 50.3286 176.959C50.3534 177 50.3696 177.045 50.3762 177.093C50.3829 177.14 50.3797 177.188 50.367 177.234C50.3543 177.28 50.3324 177.323 50.3025 177.36C50.2726 177.398 50.2353 177.428 50.1932 177.45C50.151 177.473 50.1047 177.486 50.0572 177.49C48.8939 177.654 47.7127 177.772 46.5445 177.837H46.5249ZM41.6281 177.823H41.6052C40.4371 177.749 39.2558 177.624 38.0959 177.452C38.0493 177.447 38.0042 177.432 37.9633 177.409C37.9225 177.386 37.8867 177.355 37.8581 177.318C37.8295 177.28 37.8087 177.238 37.7969 177.192C37.7851 177.147 37.7826 177.099 37.7896 177.053C37.7965 177.006 37.8127 176.962 37.8373 176.922C37.8618 176.881 37.8942 176.847 37.9324 176.82C37.9706 176.792 38.0139 176.773 38.0597 176.763C38.1055 176.753 38.1529 176.752 38.1989 176.761C39.3442 176.925 40.4992 177.053 41.6494 177.125C41.7378 177.133 41.8197 177.175 41.8785 177.242C41.9372 177.308 41.9684 177.395 41.9657 177.484C41.963 177.573 41.9266 177.657 41.8639 177.72C41.8011 177.783 41.7168 177.82 41.6281 177.823ZM54.8099 176.525C54.7247 176.526 54.6419 176.496 54.5776 176.44C54.5132 176.383 54.4717 176.306 54.4609 176.221C54.4502 176.136 54.471 176.05 54.5194 175.98C54.5678 175.909 54.6404 175.859 54.7232 175.839C55.839 175.545 56.9548 175.201 58.0379 174.815C58.0817 174.795 58.1291 174.785 58.1771 174.785C58.2251 174.784 58.2726 174.794 58.3167 174.813C58.3608 174.832 58.4005 174.86 58.4334 174.895C58.4663 174.93 58.4916 174.971 58.5077 175.017C58.5239 175.062 58.5305 175.11 58.5272 175.158C58.524 175.206 58.5109 175.253 58.4887 175.296C58.4666 175.338 58.4359 175.376 58.3986 175.406C58.3613 175.436 58.3181 175.459 58.2719 175.471C57.1691 175.863 56.0337 176.213 54.8999 176.512C54.8701 176.52 54.8393 176.524 54.8083 176.525H54.8099ZM33.3529 176.444C33.3219 176.445 33.2909 176.44 33.2613 176.431C32.1308 176.123 31.0002 175.76 29.8992 175.356C29.8549 175.342 29.814 175.318 29.779 175.287C29.7439 175.257 29.7154 175.219 29.6951 175.177C29.6748 175.135 29.6632 175.089 29.6608 175.042C29.6585 174.996 29.6655 174.949 29.6815 174.905C29.6975 174.861 29.7221 174.821 29.7539 174.786C29.7857 174.752 29.824 174.725 29.8666 174.706C29.9092 174.687 29.9551 174.676 30.0017 174.675C30.0484 174.674 30.0947 174.683 30.138 174.7C31.2211 175.097 32.3336 175.453 33.4445 175.758C33.5253 175.781 33.5951 175.833 33.6412 175.903C33.6873 175.973 33.7065 176.058 33.6954 176.141C33.6842 176.225 33.6434 176.301 33.5805 176.357C33.5176 176.413 33.4368 176.444 33.3529 176.444ZM62.6614 173.579C62.5964 173.579 62.5328 173.561 62.4777 173.526C62.4225 173.492 62.378 173.442 62.3489 173.384C62.3289 173.343 62.3173 173.298 62.3147 173.252C62.3121 173.206 62.3186 173.16 62.3338 173.116C62.349 173.073 62.3726 173.033 62.4033 172.998C62.434 172.964 62.4711 172.936 62.5125 172.916C63.5449 172.405 64.5674 171.84 65.5524 171.241C65.5915 171.216 65.6353 171.199 65.6812 171.191C65.727 171.182 65.7741 171.184 65.8194 171.194C65.8648 171.205 65.9077 171.224 65.9454 171.251C65.9832 171.279 66.0151 171.313 66.0393 171.353C66.0634 171.393 66.0794 171.438 66.0862 171.484C66.0929 171.53 66.0904 171.577 66.0787 171.622C66.067 171.668 66.0464 171.71 66.0181 171.747C65.9898 171.784 65.9544 171.815 65.9139 171.838C64.9127 172.447 63.8721 173.022 62.8218 173.542C62.772 173.567 62.7171 173.58 62.6614 173.579ZM25.5227 173.415C25.4659 173.417 25.4096 173.404 25.3591 173.378C24.3153 172.846 23.2796 172.263 22.2816 171.646C22.2409 171.623 22.2052 171.592 22.1768 171.555C22.1483 171.517 22.1277 171.475 22.1161 171.429C22.1045 171.384 22.1022 171.336 22.1093 171.29C22.1164 171.243 22.1327 171.199 22.1574 171.159C22.1821 171.119 22.2145 171.084 22.2528 171.057C22.2911 171.03 22.3344 171.011 22.3802 171.001C22.4261 170.991 22.4734 170.99 22.5194 170.999C22.5654 171.008 22.6092 171.026 22.6481 171.052C23.6298 171.66 24.6474 172.232 25.6748 172.756C25.7426 172.793 25.7962 172.851 25.8272 172.922C25.8581 172.993 25.8648 173.072 25.8461 173.147C25.8274 173.222 25.7843 173.289 25.7237 173.337C25.6631 173.385 25.5884 173.411 25.5112 173.412L25.5227 173.415ZM69.7554 169.098C69.6832 169.098 69.6129 169.075 69.5543 169.033C69.4956 168.991 69.4515 168.931 69.4279 168.863C69.4044 168.794 69.4027 168.72 69.4229 168.651C69.4432 168.581 69.4845 168.52 69.5411 168.475C70.4491 167.763 71.3408 166.998 72.1817 166.217C72.2496 166.155 72.3391 166.123 72.4306 166.127C72.5221 166.131 72.6084 166.171 72.6708 166.238C72.7332 166.305 72.7666 166.395 72.7639 166.486C72.7611 166.578 72.7224 166.665 72.6562 166.729C71.7972 167.528 70.8925 168.301 69.9697 169.026C69.9097 169.074 69.8353 169.1 69.7587 169.1L69.7554 169.098ZM18.463 168.877C18.3841 168.877 18.3075 168.85 18.2455 168.801C17.3276 168.069 16.4294 167.292 15.577 166.486C15.5404 166.456 15.5104 166.418 15.4888 166.375C15.4672 166.333 15.4545 166.286 15.4515 166.239C15.4486 166.191 15.4554 166.143 15.4715 166.098C15.4876 166.054 15.5127 166.012 15.5453 165.978C15.5778 165.943 15.6172 165.915 15.6608 165.896C15.7045 165.877 15.7515 165.867 15.7991 165.867C15.8467 165.867 15.8938 165.877 15.9375 165.896C15.9812 165.915 16.0205 165.943 16.0531 165.977C16.8924 166.77 17.7759 167.535 18.6708 168.253C18.7275 168.298 18.7689 168.36 18.7891 168.429C18.8093 168.499 18.8074 168.573 18.7837 168.642C18.76 168.71 18.7156 168.77 18.6566 168.812C18.5977 168.854 18.5272 168.877 18.4549 168.877H18.463ZM75.804 163.275C75.7377 163.274 75.6731 163.255 75.6175 163.218C75.562 163.182 75.5177 163.131 75.49 163.071C75.4622 163.011 75.4521 162.944 75.4608 162.878C75.4694 162.812 75.4965 162.75 75.5389 162.699C76.2866 161.819 77.0114 160.894 77.6756 159.955C77.7309 159.884 77.8116 159.837 77.9008 159.824C77.99 159.811 78.0808 159.833 78.1541 159.885C78.2273 159.938 78.2774 160.017 78.2937 160.106C78.3101 160.195 78.2914 160.287 78.2417 160.362C77.5595 161.317 76.8298 162.256 76.0706 163.152C76.0384 163.191 75.9982 163.222 75.9527 163.243C75.9072 163.265 75.8576 163.276 75.8072 163.277L75.804 163.275ZM12.4538 163.012C12.4027 163.012 12.3523 163.001 12.306 162.979C12.2597 162.958 12.2185 162.927 12.1855 162.888C11.4329 161.985 10.713 161.042 10.0357 160.082C10.0069 160.044 9.98602 160.002 9.97422 159.956C9.96242 159.91 9.95997 159.863 9.967 159.816C9.97404 159.769 9.99042 159.725 10.0152 159.684C10.0399 159.644 10.0725 159.61 10.111 159.582C10.1494 159.555 10.193 159.536 10.239 159.526C10.285 159.517 10.3325 159.516 10.3787 159.525C10.4249 159.534 10.4687 159.553 10.5076 159.579C10.5465 159.606 10.5796 159.64 10.605 159.68C11.2594 160.623 11.9793 161.552 12.7205 162.438C12.7624 162.489 12.7891 162.551 12.7975 162.617C12.8058 162.683 12.7954 162.749 12.7675 162.809C12.7396 162.87 12.6954 162.92 12.6399 162.956C12.5843 162.992 12.5198 163.012 12.4538 163.012ZM80.5682 156.352C80.5077 156.352 80.4483 156.336 80.3958 156.306C80.3433 156.275 80.2995 156.232 80.2687 156.18C80.2379 156.128 80.2211 156.068 80.22 156.008C80.2188 155.947 80.2334 155.887 80.2622 155.834C80.8185 154.821 81.3388 153.773 81.8067 152.716C81.8242 152.672 81.8503 152.633 81.8833 152.6C81.9164 152.566 81.9558 152.54 81.9992 152.523C82.0425 152.505 82.089 152.496 82.1358 152.497C82.1826 152.498 82.2288 152.508 82.2715 152.527C82.3143 152.546 82.3528 152.574 82.3847 152.608C82.4166 152.643 82.4413 152.683 82.4573 152.727C82.4734 152.771 82.4804 152.818 82.4779 152.865C82.4755 152.912 82.4636 152.958 82.4431 153C81.967 154.073 81.4386 155.133 80.8725 156.168C80.8436 156.224 80.8004 156.27 80.7474 156.303C80.6944 156.335 80.6336 156.353 80.5715 156.354L80.5682 156.352ZM7.74844 156.053C7.68563 156.054 7.624 156.036 7.57011 156.004C7.51623 155.972 7.47212 155.925 7.44249 155.87C6.88623 154.834 6.3676 153.763 5.90132 152.685C5.86465 152.599 5.86336 152.503 5.89772 152.416C5.93209 152.33 5.99929 152.261 6.08456 152.224C6.16982 152.187 6.26616 152.186 6.35238 152.22C6.43859 152.255 6.50763 152.322 6.54429 152.408C7.00239 153.468 7.51121 154.521 8.05766 155.538C8.07947 155.579 8.09314 155.623 8.09787 155.668C8.10261 155.714 8.09831 155.76 8.08524 155.804C8.07216 155.848 8.05057 155.889 8.02169 155.924C7.99281 155.96 7.95721 155.989 7.91695 156.011C7.86547 156.04 7.80736 156.054 7.74844 156.053ZM83.855 148.612C83.82 148.612 83.7852 148.607 83.752 148.596C83.664 148.568 83.5905 148.507 83.5476 148.425C83.5047 148.343 83.4958 148.248 83.5229 148.159C83.8632 147.055 84.1626 145.923 84.4097 144.794C84.4294 144.704 84.4841 144.625 84.5618 144.575C84.6394 144.525 84.7336 144.508 84.8236 144.528C84.9136 144.548 84.9921 144.603 85.0419 144.681C85.0916 144.759 85.1084 144.853 85.0887 144.943C84.8383 146.092 84.534 147.24 84.1872 148.366C84.1652 148.437 84.1211 148.5 84.0614 148.544C84.0016 148.588 83.9293 148.612 83.855 148.612ZM4.54338 148.284C4.46952 148.283 4.39803 148.258 4.33921 148.213C4.2804 148.168 4.23731 148.106 4.21617 148.035C3.88895 146.912 3.58955 145.759 3.34905 144.605C3.33609 144.559 3.33273 144.511 3.33916 144.463C3.3456 144.416 3.3617 144.37 3.38647 144.329C3.41123 144.288 3.44413 144.253 3.48313 144.225C3.52212 144.198 3.56637 144.178 3.61313 144.168C3.65989 144.159 3.70817 144.159 3.75495 144.168C3.80174 144.178 3.84604 144.197 3.8851 144.225C3.92416 144.252 3.95715 144.288 3.98202 144.329C4.00689 144.369 4.0231 144.415 4.02966 144.463C4.26689 145.596 4.55483 146.73 4.88368 147.834C4.897 147.878 4.9015 147.925 4.89693 147.97C4.89236 148.016 4.87881 148.06 4.85705 148.101C4.8353 148.141 4.80578 148.177 4.7702 148.206C4.73461 148.235 4.69367 148.256 4.64973 148.269C4.61507 148.279 4.57921 148.282 4.54338 148.281V148.284ZM85.514 140.367H85.4797C85.4342 140.363 85.39 140.349 85.3497 140.328C85.3093 140.306 85.2736 140.277 85.2446 140.242C85.2155 140.206 85.1937 140.166 85.1805 140.122C85.1672 140.078 85.1627 140.032 85.1672 139.986C85.2784 138.838 85.3406 137.668 85.3553 136.511C85.3564 136.418 85.3944 136.329 85.461 136.263C85.5276 136.198 85.6173 136.162 85.7104 136.163C85.8034 136.164 85.8923 136.202 85.9573 136.269C86.0223 136.336 86.0583 136.426 86.0572 136.519C86.0441 137.696 85.9787 138.884 85.8658 140.054C85.8564 140.14 85.8151 140.22 85.75 140.277C85.6849 140.335 85.6007 140.365 85.514 140.364V140.367ZM2.9564 140.021C2.87107 140.019 2.78946 139.985 2.72704 139.927C2.66461 139.869 2.62572 139.789 2.61773 139.704C2.51302 138.531 2.45412 137.341 2.45412 136.168C2.45314 136.079 2.4866 135.992 2.54754 135.927C2.60849 135.861 2.69222 135.822 2.78134 135.817C2.8732 135.817 2.96134 135.853 3.0266 135.918C3.09186 135.983 3.12896 136.071 3.12982 136.163C3.12982 137.312 3.19199 138.488 3.29343 139.64C3.2977 139.686 3.2929 139.732 3.27931 139.776C3.26572 139.82 3.24362 139.86 3.21426 139.896C3.18491 139.931 3.14889 139.96 3.10828 139.981C3.06767 140.002 3.02328 140.015 2.97766 140.019L2.9564 140.021ZM85.4698 131.953C85.3842 131.952 85.3016 131.92 85.2379 131.863C85.1742 131.805 85.1339 131.726 85.1246 131.641C85.0019 130.492 84.8301 129.344 84.6125 128.195V128.151C84.6039 128.106 84.6041 128.06 84.6132 128.015C84.6223 127.97 84.6401 127.927 84.6656 127.889C84.6911 127.852 84.7239 127.819 84.7619 127.794C84.8 127.769 84.8426 127.751 84.8874 127.742C84.9322 127.734 84.9783 127.734 85.023 127.743C85.0677 127.752 85.1102 127.77 85.148 127.795C85.1859 127.821 85.2183 127.854 85.2435 127.892C85.2687 127.93 85.2861 127.973 85.2948 128.018L85.3046 128.064C85.5255 129.212 85.7005 130.399 85.8249 131.564C85.8299 131.61 85.8258 131.656 85.813 131.7C85.8001 131.744 85.7787 131.785 85.75 131.821C85.7213 131.857 85.6858 131.887 85.6456 131.909C85.6054 131.931 85.5612 131.945 85.5157 131.949L85.4698 131.953ZM3.05292 131.606H3.01202C2.92027 131.596 2.8365 131.549 2.77913 131.476C2.72176 131.404 2.69548 131.311 2.70608 131.219C2.8386 130.053 3.02347 128.876 3.25416 127.723C3.27647 127.636 3.33102 127.561 3.40658 127.514C3.48214 127.466 3.57297 127.45 3.66037 127.467C3.74778 127.485 3.82511 127.536 3.87645 127.609C3.9278 127.682 3.94925 127.772 3.9364 127.86C3.70899 128.994 3.52902 130.158 3.39813 131.306C3.38599 131.389 3.34446 131.466 3.28111 131.521C3.21775 131.576 3.13678 131.606 3.05292 131.606ZM83.7373 123.676C83.6641 123.675 83.5932 123.651 83.5345 123.607C83.4758 123.563 83.4323 123.502 83.41 123.432C83.0616 122.329 82.6607 121.23 82.2206 120.163C82.1996 120.12 82.1876 120.073 82.1853 120.026C82.183 119.978 82.1906 119.93 82.2074 119.885C82.2243 119.841 82.2501 119.8 82.2834 119.766C82.3166 119.731 82.3565 119.704 82.4006 119.686C82.4447 119.668 82.492 119.659 82.5397 119.66C82.5874 119.66 82.6344 119.671 82.6778 119.691C82.7212 119.711 82.7601 119.739 82.792 119.775C82.824 119.81 82.8484 119.852 82.8636 119.897C83.3119 120.982 83.7193 122.099 84.0743 123.22C84.0883 123.264 84.0935 123.31 84.0898 123.356C84.086 123.401 84.0733 123.446 84.0523 123.487C84.0313 123.528 84.0025 123.564 83.9676 123.594C83.9326 123.623 83.8921 123.646 83.8485 123.66C83.8126 123.671 83.775 123.677 83.7373 123.676ZM4.84442 123.392C4.80779 123.393 4.77137 123.387 4.73644 123.376C4.64879 123.347 4.57623 123.284 4.53455 123.201C4.49288 123.119 4.48546 123.023 4.51393 122.935C4.88041 121.819 5.29761 120.705 5.75571 119.622C5.77235 119.578 5.79766 119.538 5.83012 119.504C5.86258 119.47 5.90152 119.443 5.94462 119.424C5.98772 119.406 6.03409 119.396 6.08095 119.396C6.12782 119.396 6.17422 119.406 6.21737 119.424C6.26053 119.442 6.29955 119.469 6.33211 119.503C6.36468 119.537 6.3901 119.577 6.40688 119.621C6.42365 119.665 6.43143 119.711 6.42974 119.758C6.42805 119.805 6.41693 119.852 6.39705 119.894C5.94549 120.959 5.53484 122.055 5.17654 123.153C5.15343 123.223 5.10887 123.284 5.04922 123.327C4.98957 123.37 4.91789 123.393 4.84442 123.392ZM80.398 115.966C80.3363 115.966 80.2756 115.949 80.2223 115.918C80.1691 115.887 80.1252 115.841 80.0954 115.787C79.5309 114.781 78.9174 113.785 78.2695 112.834C78.223 112.757 78.2077 112.665 78.2267 112.578C78.2457 112.49 78.2975 112.413 78.3715 112.363C78.4454 112.312 78.5359 112.292 78.6241 112.307C78.7123 112.322 78.7916 112.37 78.8454 112.441C79.4998 113.414 80.1281 114.427 80.7023 115.451C80.732 115.504 80.7473 115.564 80.7467 115.625C80.7461 115.686 80.7296 115.746 80.6988 115.798C80.668 115.851 80.6241 115.894 80.5713 115.925C80.5186 115.955 80.4588 115.971 80.398 115.971V115.966ZM8.24744 115.707C8.18665 115.707 8.12692 115.691 8.07402 115.661C7.99411 115.615 7.93565 115.539 7.91143 115.45C7.88721 115.36 7.8992 115.265 7.94477 115.185C8.52721 114.164 9.15873 113.157 9.82297 112.189C9.84815 112.149 9.88098 112.115 9.91951 112.089C9.95805 112.062 10.0015 112.044 10.0473 112.034C10.0931 112.025 10.1403 112.025 10.1861 112.035C10.2318 112.044 10.2753 112.062 10.3138 112.089C10.3523 112.115 10.3851 112.149 10.4103 112.189C10.4354 112.228 10.4524 112.273 10.4602 112.319C10.4679 112.365 10.4664 112.412 10.4556 112.458C10.4448 112.503 10.4249 112.546 10.3972 112.584C9.74281 113.536 9.1211 114.529 8.55011 115.538C8.51871 115.588 8.47504 115.629 8.42323 115.658C8.37142 115.687 8.31318 115.702 8.25398 115.702L8.24744 115.707ZM75.5651 109.092C75.5153 109.092 75.4661 109.082 75.4209 109.061C75.3757 109.04 75.3356 109.009 75.3033 108.971C74.5475 108.1 73.7458 107.248 72.9179 106.442C72.8622 106.375 72.8335 106.29 72.8374 106.203C72.8414 106.116 72.8777 106.033 72.9392 105.971C73.0007 105.91 73.0829 105.873 73.1698 105.869C73.2567 105.866 73.342 105.894 73.4088 105.95C74.2497 106.771 75.0645 107.635 75.8334 108.521C75.8767 108.572 75.9047 108.634 75.9139 108.701C75.9232 108.767 75.9134 108.834 75.8858 108.895C75.8581 108.956 75.8137 109.008 75.7577 109.044C75.7018 109.08 75.6367 109.1 75.57 109.101L75.5651 109.092ZM13.1213 108.863C13.0545 108.862 12.9892 108.842 12.9332 108.806C12.8772 108.769 12.8328 108.717 12.8053 108.656C12.7777 108.595 12.7682 108.527 12.7778 108.461C12.7874 108.395 12.8158 108.333 12.8595 108.282C13.6334 107.399 14.4547 106.539 15.2989 105.725C15.3318 105.693 15.3707 105.668 15.4134 105.65C15.4561 105.633 15.5017 105.624 15.5478 105.625C15.5938 105.625 15.6393 105.635 15.6817 105.653C15.724 105.671 15.7624 105.697 15.7946 105.73C15.8268 105.763 15.8523 105.802 15.8695 105.845C15.8867 105.888 15.8953 105.934 15.8948 105.98C15.8944 106.026 15.8849 106.072 15.8668 106.114C15.8488 106.157 15.8226 106.195 15.7897 106.227C14.9586 107.028 14.1536 107.868 13.3912 108.743C13.358 108.78 13.3173 108.809 13.2719 108.829C13.2265 108.849 13.1774 108.858 13.1278 108.858L13.1213 108.863ZM69.4544 103.331C69.378 103.332 69.3037 103.306 69.2433 103.259C68.3288 102.557 67.3717 101.884 66.4015 101.261C66.3285 101.209 66.2784 101.13 66.2614 101.042C66.2445 100.954 66.262 100.863 66.3104 100.787C66.3588 100.711 66.4344 100.657 66.5214 100.636C66.6084 100.615 66.7002 100.628 66.7778 100.673C67.7594 101.307 68.7411 101.986 69.6671 102.705C69.7249 102.749 69.7673 102.811 69.7885 102.881C69.8096 102.95 69.8083 103.025 69.7849 103.094C69.7614 103.164 69.7169 103.224 69.6576 103.266C69.5983 103.309 69.5272 103.331 69.4544 103.331ZM19.2647 103.139C19.1916 103.14 19.1202 103.117 19.0608 103.074C19.0013 103.031 18.9567 102.971 18.9334 102.901C18.91 102.832 18.9091 102.757 18.9307 102.687C18.9523 102.617 18.9953 102.555 19.0537 102.511C19.9895 101.802 20.9646 101.124 21.9561 100.498C22.0344 100.448 22.1291 100.432 22.2193 100.453C22.3095 100.473 22.3878 100.529 22.4371 100.608C22.4863 100.686 22.5024 100.781 22.4819 100.872C22.4613 100.962 22.4058 101.041 22.3274 101.09C21.354 101.705 20.3936 102.371 19.4741 103.067C19.4154 103.111 19.3443 103.134 19.2713 103.134L19.2647 103.139ZM62.3162 98.9142C62.2641 98.9142 62.2127 98.9024 62.1657 98.8798C61.1284 98.3744 60.0568 97.9084 58.9819 97.4932C58.8951 97.4599 58.8251 97.3934 58.7872 97.3084C58.7493 97.2233 58.7467 97.1266 58.7799 97.0395C58.813 96.9525 58.8794 96.8823 58.9642 96.8443C59.049 96.8063 59.1454 96.8036 59.2322 96.8369C60.3251 97.2602 61.4147 97.7344 62.4684 98.248C62.5354 98.2845 62.5886 98.3421 62.6199 98.4119C62.6512 98.4817 62.6588 98.5598 62.6415 98.6343C62.6242 98.7088 62.583 98.7756 62.5243 98.8244C62.4655 98.8732 62.3924 98.9013 62.3162 98.9044V98.9142ZM26.4405 98.7797C26.3616 98.7796 26.285 98.7526 26.2233 98.7032C26.1617 98.6538 26.1185 98.5848 26.1011 98.5076C26.0836 98.4304 26.0927 98.3495 26.1271 98.2782C26.1614 98.2069 26.2188 98.1494 26.29 98.1151C27.3485 97.6114 28.4414 97.147 29.5392 96.7335C29.5822 96.7174 29.6279 96.7098 29.6738 96.7114C29.7197 96.713 29.7648 96.7236 29.8065 96.7426C29.8483 96.7617 29.886 96.7888 29.9173 96.8224C29.9486 96.856 29.973 96.8955 29.9891 96.9386C30.0053 96.9817 30.0128 97.0276 30.0112 97.0736C30.0096 97.1196 29.9991 97.1648 29.9801 97.2067C29.9611 97.2486 29.934 97.2864 29.9005 97.3178C29.867 97.3492 29.8276 97.3737 29.7846 97.3899C28.7048 97.7952 27.6299 98.2513 26.5894 98.7468C26.5428 98.7687 26.492 98.7799 26.4405 98.7797ZM54.4467 96.028C54.4175 96.0274 54.3884 96.0235 54.36 96.0165C53.2426 95.731 52.1006 95.4914 50.9635 95.3027C50.8747 95.285 50.7963 95.2333 50.7448 95.1586C50.6933 95.0839 50.6729 94.992 50.6878 94.9025C50.7027 94.8129 50.7517 94.7326 50.8246 94.6787C50.8974 94.6248 50.9883 94.6014 51.0781 94.6135C52.2331 94.8055 53.3964 95.05 54.5318 95.3388C54.6149 95.359 54.6877 95.4092 54.7364 95.4797C54.785 95.5503 54.8061 95.6363 54.7956 95.7214C54.7851 95.8065 54.7437 95.8848 54.6794 95.9413C54.6151 95.9979 54.5323 96.0287 54.4467 96.028ZM34.3411 95.9623C34.257 95.9607 34.1762 95.9287 34.1139 95.8721C34.0515 95.8154 34.0116 95.7381 34.0016 95.6543C33.9917 95.5705 34.0123 95.4859 34.0596 95.4162C34.107 95.3464 34.1779 95.2962 34.2593 95.2748C34.9497 95.1107 35.6581 94.9466 36.3616 94.8137C36.8099 94.7268 37.2664 94.6496 37.7179 94.5758C37.8065 94.5668 37.8951 94.5921 37.9656 94.6465C38.0362 94.7009 38.0833 94.7803 38.0973 94.8685C38.1113 94.9566 38.0912 95.0468 38.041 95.1205C37.9909 95.1942 37.9145 95.2459 37.8275 95.265C37.3825 95.3355 36.9343 95.4143 36.4925 95.4996C35.8005 95.6325 35.1051 95.7851 34.4245 95.9525C34.3969 95.9562 34.3689 95.9568 34.3411 95.9541V95.9623ZM46.147 94.794H46.1371C45.5269 94.7678 44.9085 94.753 44.2998 94.753C43.7583 94.753 43.2086 94.7645 42.6638 94.7858C42.6166 94.7904 42.569 94.7852 42.5239 94.7707C42.4787 94.7561 42.437 94.7325 42.4013 94.7012C42.3656 94.67 42.3367 94.6318 42.3162 94.5889C42.2957 94.546 42.2842 94.4994 42.2823 94.4519C42.2804 94.4044 42.2882 94.357 42.3052 94.3126C42.3222 94.2683 42.348 94.2278 42.3811 94.1938C42.4142 94.1598 42.4539 94.1329 42.4977 94.1148C42.5415 94.0967 42.5886 94.0877 42.636 94.0885C43.1873 94.0655 43.7452 94.0557 44.2966 94.0557C44.9166 94.0557 45.5449 94.0688 46.165 94.0967C46.2574 94.0986 46.3452 94.1373 46.4092 94.2043C46.4732 94.2712 46.508 94.3609 46.5061 94.4536C46.5041 94.5463 46.4655 94.6344 46.3988 94.6985C46.3321 94.7627 46.2426 94.7976 46.1502 94.7957L46.147 94.794Z" fill="#3E7BFA"/>
<path d="M171.682 146.116L171.08 146.152C170.99 146.155 170.902 146.122 170.835 146.061C170.768 146 170.728 145.915 170.722 145.824C170.717 145.734 170.746 145.644 170.805 145.575C170.864 145.506 170.948 145.463 171.038 145.455C172.183 145.391 173.328 145.291 174.474 145.179C174.566 145.17 174.658 145.197 174.729 145.256C174.801 145.314 174.847 145.399 174.856 145.491C174.866 145.583 174.839 145.676 174.78 145.748C174.722 145.82 174.638 145.865 174.546 145.875C173.587 145.973 172.631 146.054 171.682 146.116ZM166.252 146.265H166.225C165.079 146.254 163.906 146.215 162.758 146.147C162.712 146.145 162.668 146.133 162.626 146.113C162.585 146.094 162.548 146.066 162.518 146.032C162.488 145.998 162.464 145.958 162.449 145.914C162.434 145.871 162.428 145.825 162.431 145.78C162.436 145.687 162.478 145.601 162.547 145.54C162.616 145.478 162.707 145.447 162.799 145.452C163.944 145.519 165.089 145.558 166.234 145.57C166.323 145.573 166.407 145.61 166.47 145.673C166.532 145.736 166.568 145.82 166.571 145.909C166.573 145.998 166.542 146.085 166.483 146.151C166.424 146.218 166.342 146.259 166.254 146.267L166.252 146.265ZM179.313 145.215C179.225 145.219 179.139 145.189 179.072 145.132C179.005 145.075 178.963 144.994 178.952 144.906C178.942 144.819 178.966 144.731 179.018 144.659C179.07 144.588 179.147 144.54 179.233 144.523C180.359 144.329 181.494 144.108 182.606 143.867C182.696 143.85 182.788 143.868 182.864 143.918C182.939 143.968 182.993 144.046 183.012 144.135C183.031 144.224 183.015 144.317 182.967 144.394C182.92 144.472 182.843 144.527 182.755 144.549C181.633 144.795 180.488 145.02 179.349 145.214C179.337 145.215 179.325 145.216 179.313 145.215ZM157.984 145.708C157.962 145.71 157.94 145.71 157.918 145.708C156.773 145.563 155.628 145.391 154.482 145.192C154.391 145.176 154.31 145.125 154.257 145.049C154.204 144.973 154.183 144.879 154.199 144.788C154.214 144.696 154.266 144.615 154.341 144.562C154.417 144.508 154.511 144.487 154.602 144.503C155.724 144.7 156.868 144.872 158 145.015C158.085 145.027 158.162 145.07 158.217 145.136C158.272 145.202 158.301 145.285 158.298 145.371C158.296 145.457 158.262 145.538 158.204 145.601C158.145 145.663 158.066 145.702 157.98 145.709L157.984 145.708ZM187.387 143.36C187.301 143.367 187.215 143.342 187.146 143.289C187.077 143.236 187.031 143.159 187.016 143.073C187.001 142.987 187.018 142.899 187.065 142.826C187.112 142.753 187.184 142.699 187.268 142.677C188.362 142.357 189.465 142.007 190.54 141.637C190.584 141.616 190.632 141.604 190.681 141.603C190.73 141.602 190.779 141.611 190.824 141.63C190.869 141.649 190.91 141.677 190.943 141.713C190.977 141.749 191.002 141.791 191.019 141.838C191.035 141.884 191.041 141.933 191.037 141.982C191.032 142.031 191.018 142.079 190.994 142.122C190.971 142.165 190.938 142.202 190.899 142.232C190.86 142.261 190.815 142.282 190.767 142.293C189.678 142.667 188.565 143.02 187.459 143.341C187.437 143.349 187.414 143.355 187.39 143.358L187.387 143.36ZM149.833 144.198C149.798 144.201 149.762 144.198 149.728 144.188C148.609 143.914 147.48 143.609 146.373 143.279C146.327 143.268 146.284 143.247 146.246 143.219C146.209 143.19 146.177 143.154 146.154 143.113C146.131 143.072 146.116 143.027 146.11 142.98C146.105 142.933 146.109 142.886 146.122 142.84C146.136 142.795 146.158 142.753 146.188 142.717C146.218 142.68 146.255 142.651 146.297 142.629C146.339 142.607 146.385 142.595 146.432 142.591C146.479 142.588 146.526 142.594 146.57 142.61C147.667 142.938 148.784 143.238 149.893 143.51C149.974 143.531 150.044 143.579 150.092 143.647C150.14 143.715 150.163 143.797 150.155 143.88C150.148 143.963 150.111 144.04 150.052 144.099C149.993 144.157 149.915 144.192 149.833 144.198ZM195.199 140.588C195.116 140.597 195.032 140.575 194.964 140.527C194.895 140.478 194.846 140.407 194.826 140.325C194.806 140.243 194.817 140.157 194.855 140.082C194.894 140.008 194.958 139.95 195.036 139.919C196.088 139.476 197.143 139 198.172 138.508C198.214 138.485 198.259 138.471 198.307 138.466C198.354 138.462 198.401 138.467 198.446 138.482C198.491 138.497 198.533 138.52 198.568 138.552C198.604 138.583 198.633 138.621 198.653 138.664C198.674 138.707 198.685 138.754 198.687 138.801C198.689 138.848 198.681 138.896 198.664 138.94C198.647 138.984 198.621 139.025 198.588 139.059C198.555 139.093 198.515 139.12 198.471 139.138C197.433 139.63 196.367 140.114 195.306 140.562C195.272 140.576 195.236 140.585 195.199 140.588ZM141.903 141.76C141.854 141.763 141.805 141.756 141.759 141.738C140.679 141.336 139.593 140.903 138.531 140.45C138.445 140.414 138.377 140.345 138.342 140.258C138.307 140.172 138.307 140.075 138.344 139.988C138.38 139.902 138.449 139.834 138.535 139.799C138.621 139.764 138.718 139.764 138.804 139.801C139.856 140.25 140.931 140.68 142.001 141.077C142.076 141.105 142.138 141.158 142.179 141.227C142.219 141.295 142.235 141.376 142.224 141.455C142.212 141.534 142.174 141.606 142.116 141.661C142.057 141.715 141.982 141.748 141.903 141.753V141.76ZM202.635 136.941C202.555 136.947 202.476 136.926 202.41 136.88C202.344 136.835 202.295 136.768 202.273 136.691C202.25 136.614 202.254 136.532 202.285 136.457C202.316 136.383 202.372 136.322 202.442 136.284C203.434 135.725 204.425 135.136 205.387 134.527C205.465 134.48 205.559 134.466 205.647 134.487C205.736 134.508 205.813 134.564 205.861 134.641C205.91 134.719 205.926 134.812 205.906 134.902C205.887 134.991 205.833 135.069 205.757 135.119C204.775 135.731 203.78 136.328 202.779 136.893C202.735 136.919 202.686 136.936 202.635 136.941ZM134.305 138.429C134.243 138.432 134.182 138.419 134.127 138.391C133.097 137.869 132.068 137.315 131.067 136.75C131.025 136.729 130.987 136.699 130.957 136.663C130.926 136.627 130.904 136.585 130.89 136.539C130.876 136.494 130.872 136.446 130.877 136.399C130.882 136.352 130.897 136.306 130.92 136.265C130.944 136.224 130.975 136.188 131.013 136.159C131.05 136.131 131.093 136.11 131.139 136.099C131.185 136.087 131.233 136.085 131.28 136.093C131.326 136.1 131.371 136.118 131.411 136.143C132.404 136.709 133.423 137.257 134.441 137.784C134.507 137.82 134.56 137.876 134.592 137.944C134.624 138.012 134.633 138.089 134.617 138.163C134.602 138.237 134.563 138.304 134.507 138.354C134.451 138.404 134.38 138.434 134.305 138.44V138.429ZM209.602 132.466C209.543 132.469 209.484 132.458 209.43 132.433C209.377 132.407 209.331 132.369 209.296 132.322C209.268 132.284 209.248 132.242 209.237 132.197C209.227 132.152 209.225 132.105 209.232 132.059C209.239 132.013 209.256 131.969 209.28 131.93C209.304 131.89 209.336 131.856 209.374 131.829C210.297 131.158 211.215 130.458 212.105 129.744C212.14 129.712 212.181 129.688 212.226 129.673C212.271 129.658 212.319 129.652 212.366 129.656C212.413 129.66 212.459 129.674 212.5 129.696C212.542 129.719 212.579 129.749 212.609 129.786C212.638 129.823 212.66 129.866 212.672 129.912C212.685 129.957 212.688 130.005 212.682 130.052C212.675 130.099 212.66 130.144 212.635 130.185C212.611 130.226 212.578 130.261 212.54 130.288C211.642 131.009 210.714 131.718 209.783 132.394C209.731 132.434 209.668 132.459 209.602 132.466ZM127.144 134.254C127.068 134.259 126.993 134.239 126.929 134.197C125.967 133.56 125.009 132.884 124.078 132.212C124.037 132.186 124.003 132.152 123.976 132.113C123.949 132.073 123.931 132.028 123.922 131.981C123.913 131.934 123.914 131.886 123.924 131.839C123.935 131.793 123.955 131.748 123.983 131.71C124.011 131.671 124.047 131.639 124.088 131.615C124.129 131.59 124.175 131.575 124.222 131.569C124.27 131.564 124.318 131.568 124.364 131.581C124.409 131.595 124.452 131.618 124.488 131.649C125.41 132.322 126.36 132.984 127.314 133.618C127.374 133.658 127.421 133.716 127.447 133.784C127.473 133.851 127.477 133.926 127.459 133.996C127.441 134.067 127.402 134.13 127.347 134.176C127.291 134.223 127.223 134.252 127.15 134.258L127.144 134.254ZM216.02 127.218C215.948 127.224 215.876 127.206 215.814 127.168C215.753 127.131 215.704 127.074 215.676 127.008C215.648 126.941 215.641 126.867 215.656 126.796C215.672 126.726 215.709 126.661 215.763 126.613C216.604 125.84 217.437 125.038 218.24 124.227C218.307 124.171 218.392 124.143 218.479 124.146C218.566 124.15 218.648 124.187 218.71 124.248C218.771 124.31 218.807 124.393 218.811 124.48C218.815 124.567 218.787 124.652 218.731 124.719C217.913 125.54 217.078 126.349 216.229 127.128C216.17 127.182 216.095 127.214 216.015 127.218H216.02ZM120.493 129.299C120.404 129.304 120.315 129.276 120.246 129.219C119.364 128.477 118.486 127.706 117.64 126.921C117.603 126.891 117.573 126.854 117.551 126.812C117.53 126.769 117.517 126.723 117.514 126.676C117.51 126.628 117.517 126.581 117.532 126.536C117.548 126.491 117.573 126.45 117.605 126.415C117.637 126.38 117.676 126.352 117.719 126.332C117.762 126.313 117.809 126.303 117.856 126.302C117.904 126.301 117.951 126.31 117.995 126.329C118.038 126.347 118.078 126.374 118.111 126.408C118.95 127.182 119.819 127.947 120.693 128.68C120.746 128.725 120.785 128.785 120.804 128.852C120.824 128.919 120.822 128.99 120.801 129.057C120.779 129.123 120.739 129.181 120.684 129.224C120.629 129.267 120.563 129.293 120.493 129.297V129.299ZM221.797 121.279C221.752 121.282 221.706 121.276 221.663 121.262C221.62 121.247 221.58 121.224 221.547 121.193C221.512 121.163 221.483 121.127 221.463 121.086C221.442 121.045 221.43 121 221.427 120.954C221.423 120.909 221.429 120.863 221.444 120.819C221.459 120.776 221.482 120.735 221.512 120.701C222.26 119.838 222.998 118.945 223.704 118.048C223.732 118.01 223.767 117.978 223.807 117.954C223.848 117.93 223.892 117.915 223.939 117.908C223.985 117.902 224.032 117.905 224.077 117.918C224.123 117.93 224.165 117.951 224.201 117.981C224.238 118.01 224.269 118.046 224.291 118.087C224.314 118.128 224.327 118.173 224.332 118.22C224.337 118.267 224.332 118.314 224.318 118.359C224.304 118.404 224.281 118.445 224.251 118.481C223.538 119.387 222.793 120.286 222.037 121.159C221.975 121.227 221.889 121.268 221.797 121.272V121.279ZM114.453 123.61C114.402 123.614 114.351 123.606 114.303 123.587C114.256 123.568 114.213 123.539 114.178 123.502C113.384 122.665 112.601 121.799 111.848 120.927C111.815 120.893 111.789 120.853 111.772 120.808C111.755 120.764 111.748 120.717 111.75 120.669C111.751 120.621 111.763 120.575 111.784 120.532C111.804 120.489 111.833 120.451 111.869 120.42C111.905 120.388 111.947 120.365 111.992 120.35C112.037 120.336 112.085 120.331 112.132 120.336C112.179 120.34 112.225 120.355 112.266 120.378C112.308 120.401 112.344 120.432 112.373 120.47C113.119 121.334 113.897 122.193 114.682 123.021C114.727 123.069 114.758 123.129 114.771 123.194C114.784 123.259 114.778 123.327 114.754 123.389C114.73 123.45 114.689 123.504 114.635 123.543C114.582 123.582 114.519 123.606 114.453 123.61ZM226.87 114.704C226.792 114.71 226.715 114.688 226.651 114.643C226.612 114.617 226.579 114.583 226.554 114.544C226.528 114.505 226.511 114.462 226.503 114.416C226.494 114.37 226.495 114.323 226.505 114.277C226.515 114.232 226.534 114.189 226.561 114.151C227.215 113.209 227.84 112.238 228.443 111.264C228.494 111.191 228.571 111.14 228.658 111.123C228.746 111.105 228.837 111.121 228.912 111.168C228.988 111.216 229.043 111.29 229.065 111.377C229.088 111.463 229.076 111.555 229.033 111.634C228.428 112.618 227.788 113.603 227.135 114.548C227.106 114.592 227.067 114.63 227.021 114.657C226.975 114.684 226.923 114.7 226.87 114.704ZM109.096 117.278C109.039 117.282 108.981 117.271 108.928 117.247C108.876 117.223 108.83 117.187 108.795 117.14C108.103 116.22 107.423 115.271 106.775 114.318C106.723 114.242 106.703 114.147 106.72 114.056C106.737 113.965 106.79 113.885 106.866 113.832C106.943 113.78 107.037 113.761 107.127 113.778C107.218 113.795 107.299 113.848 107.351 113.924C107.992 114.868 108.66 115.808 109.352 116.714C109.38 116.75 109.4 116.792 109.412 116.837C109.423 116.882 109.426 116.928 109.42 116.974C109.413 117.02 109.398 117.064 109.374 117.104C109.351 117.144 109.32 117.178 109.283 117.206C109.23 117.249 109.165 117.274 109.096 117.278ZM231.172 107.597C231.11 107.601 231.048 107.588 230.993 107.56C230.938 107.532 230.891 107.49 230.858 107.438C230.824 107.386 230.806 107.325 230.803 107.263C230.801 107.201 230.815 107.14 230.844 107.085C231.381 106.073 231.9 105.036 232.387 104.002C232.406 103.959 232.433 103.921 232.467 103.889C232.501 103.857 232.541 103.832 232.584 103.816C232.628 103.799 232.674 103.792 232.721 103.794C232.767 103.796 232.813 103.807 232.855 103.827C232.897 103.847 232.935 103.875 232.966 103.91C232.997 103.945 233.021 103.985 233.036 104.03C233.051 104.074 233.057 104.12 233.054 104.167C233.05 104.214 233.038 104.259 233.017 104.301C232.526 105.344 232.001 106.391 231.459 107.418C231.432 107.47 231.391 107.514 231.341 107.546C231.292 107.577 231.235 107.595 231.176 107.599L231.172 107.597ZM104.497 110.387C104.433 110.392 104.368 110.38 104.311 110.351C104.253 110.322 104.204 110.277 104.17 110.223C103.588 109.228 103.025 108.208 102.485 107.189C102.464 107.148 102.45 107.104 102.446 107.058C102.442 107.012 102.446 106.966 102.46 106.922C102.473 106.878 102.495 106.837 102.524 106.802C102.553 106.766 102.589 106.737 102.63 106.715C102.67 106.694 102.715 106.68 102.76 106.676C102.806 106.672 102.852 106.676 102.896 106.69C102.94 106.703 102.98 106.725 103.016 106.755C103.051 106.784 103.08 106.82 103.102 106.86C103.632 107.87 104.193 108.88 104.771 109.865C104.817 109.945 104.83 110.04 104.807 110.129C104.783 110.219 104.726 110.295 104.646 110.342C104.6 110.366 104.549 110.379 104.497 110.38V110.387ZM234.64 100.049C234.589 100.053 234.537 100.045 234.489 100.026C234.404 99.9923 234.335 99.9255 234.298 99.8406C234.261 99.7557 234.259 99.6596 234.293 99.5734C234.712 98.5069 235.111 97.4157 235.474 96.3311C235.512 96.2544 235.575 96.1939 235.654 96.1612C235.732 96.1284 235.82 96.1256 235.901 96.1532C235.981 96.1809 236.049 96.2371 236.091 96.3112C236.133 96.3854 236.146 96.4724 236.129 96.5559C235.759 97.6503 235.357 98.7514 234.934 99.8294C234.911 99.8898 234.871 99.9423 234.818 99.9809C234.766 100.019 234.705 100.043 234.64 100.048V100.049ZM100.716 103.003C100.645 103.008 100.575 102.991 100.514 102.954C100.453 102.917 100.405 102.862 100.376 102.796C99.9098 101.741 99.4616 100.663 99.046 99.5816C99.0294 99.5385 99.0215 99.4926 99.0227 99.4464C99.0238 99.4003 99.0341 99.3548 99.0527 99.3126C99.0905 99.2273 99.1604 99.1606 99.2472 99.1271C99.334 99.0936 99.4305 99.096 99.5155 99.1339C99.6005 99.1717 99.667 99.2419 99.7004 99.3289C100.113 100.397 100.554 101.462 101.009 102.514C101.028 102.556 101.038 102.601 101.039 102.647C101.04 102.692 101.032 102.738 101.015 102.781C100.999 102.823 100.974 102.862 100.942 102.895C100.911 102.928 100.873 102.955 100.831 102.973C100.795 102.988 100.756 102.996 100.716 102.996V103.003ZM237.23 92.1453C237.192 92.1471 237.154 92.1433 237.117 92.1338C237.028 92.1099 236.952 92.0516 236.906 91.9717C236.859 91.8917 236.846 91.7966 236.87 91.7072C237.164 90.598 237.434 89.4674 237.673 88.3484C237.683 88.3034 237.701 88.2608 237.727 88.223C237.753 88.1852 237.786 88.1528 237.825 88.1278C237.863 88.1028 237.906 88.0857 237.951 88.0774C237.996 88.069 238.042 88.0697 238.087 88.0793C238.132 88.0888 238.174 88.1072 238.212 88.1332C238.25 88.1593 238.282 88.1925 238.307 88.2311C238.332 88.2696 238.349 88.3127 238.357 88.3579C238.366 88.4031 238.365 88.4495 238.355 88.4944C238.113 89.6249 237.84 90.767 237.537 91.886C237.519 91.9557 237.479 92.0179 237.424 92.0643C237.369 92.1107 237.301 92.139 237.23 92.1453ZM97.8042 95.2202C97.7265 95.2249 97.6496 95.2034 97.5855 95.1591C97.5215 95.1147 97.4741 95.0502 97.4508 94.9758C97.1072 93.8731 96.7866 92.7475 96.497 91.6301C96.4834 91.585 96.479 91.5377 96.4842 91.4909C96.4893 91.4441 96.5037 91.3989 96.5267 91.3578C96.5497 91.3168 96.5807 91.2808 96.6178 91.2521C96.655 91.2234 96.6975 91.2025 96.743 91.1906C96.7884 91.1788 96.8357 91.1763 96.8821 91.1833C96.9285 91.1902 96.9731 91.2065 97.013 91.2311C97.053 91.2558 97.0876 91.2883 97.1148 91.3266C97.1419 91.365 97.1611 91.4085 97.1711 91.4545C97.459 92.5621 97.7764 93.6762 98.1151 94.7674C98.1422 94.8559 98.1334 94.9517 98.0905 95.0337C98.0476 95.1158 97.9741 95.1775 97.886 95.2055C97.8584 95.214 97.8298 95.2189 97.8009 95.2202H97.8042ZM238.894 83.9985C238.869 84.0009 238.845 84.0009 238.82 83.9985C238.729 83.9851 238.647 83.9359 238.591 83.8618C238.536 83.7877 238.513 83.6946 238.526 83.603C238.689 82.4708 238.828 81.3206 238.94 80.1818C238.948 80.0898 238.993 80.0051 239.065 79.9463C239.136 79.8875 239.227 79.8595 239.319 79.8684C239.411 79.8774 239.495 79.9225 239.554 79.9939C239.613 80.0653 239.641 80.1571 239.632 80.2491C239.52 81.3977 239.381 82.5611 239.214 83.7031C239.202 83.7822 239.164 83.8547 239.105 83.9085C239.046 83.9623 238.97 83.9941 238.89 83.9985H238.894ZM95.7918 87.1604C95.7074 87.1659 95.6239 87.1402 95.557 87.0882C95.4901 87.0363 95.4444 86.9615 95.4286 86.8782C95.2127 85.7443 95.0213 84.581 94.8593 83.4438C94.8577 83.3578 94.8878 83.2741 94.9439 83.209C95 83.1438 95.0781 83.1017 95.1633 83.0907C95.2484 83.0797 95.3346 83.1007 95.4053 83.1495C95.476 83.1983 95.5263 83.2716 95.5464 83.3552C95.71 84.4891 95.8966 85.6327 96.1092 86.7551C96.1265 86.846 96.1071 86.9401 96.0553 87.0167C96.0034 87.0933 95.9234 87.1462 95.8328 87.1637L95.7918 87.1604ZM239.602 75.722H239.569C239.524 75.7207 239.479 75.7104 239.437 75.6916C239.395 75.6729 239.358 75.646 239.326 75.6126C239.295 75.5792 239.271 75.5399 239.255 75.4971C239.238 75.4542 239.231 75.4085 239.232 75.3627C239.265 74.2141 239.272 73.0655 239.252 71.9169C239.248 71.8692 239.254 71.8212 239.269 71.7759C239.284 71.7305 239.309 71.6888 239.34 71.6533C239.372 71.6178 239.411 71.5892 239.455 71.5693C239.498 71.5495 239.545 71.5388 239.593 71.5379C239.64 71.537 239.688 71.5459 239.732 71.5641C239.776 71.5823 239.816 71.6094 239.849 71.6437C239.882 71.678 239.908 71.7188 239.925 71.7635C239.942 71.8082 239.95 71.856 239.947 71.9037C239.969 73.0523 239.962 74.2305 239.928 75.384C239.926 75.4699 239.892 75.552 239.833 75.6144C239.774 75.6768 239.694 75.7151 239.609 75.722H239.602ZM94.7039 78.9249C94.658 78.9281 94.612 78.922 94.5686 78.9071C94.5251 78.8923 94.485 78.8689 94.4506 78.8384C94.4162 78.8079 94.3882 78.7708 94.3682 78.7293C94.3482 78.6878 94.3366 78.6428 94.3341 78.5968C94.3128 78.326 94.2932 78.0537 94.2768 77.7764C94.2196 76.8952 94.177 75.9993 94.1525 75.1182C94.1497 75.0255 94.1837 74.9355 94.2471 74.8679C94.3104 74.8004 94.3979 74.7608 94.4904 74.758C94.5828 74.7552 94.6725 74.7893 94.7399 74.8528C94.8072 74.9164 94.8467 75.0042 94.8495 75.0968C94.874 75.9714 94.9149 76.8575 94.9705 77.732C94.9885 78.0012 95.0082 78.2702 95.0278 78.5393C95.0311 78.5856 95.0253 78.6321 95.0106 78.6761C94.9959 78.7201 94.9727 78.7607 94.9423 78.7956C94.9119 78.8306 94.8749 78.8591 94.8334 78.8796C94.7919 78.9001 94.7468 78.9122 94.7006 78.9151L94.7039 78.9249ZM239.381 67.4193C239.29 67.4252 239.2 67.395 239.131 67.3351C239.062 67.2753 239.019 67.1906 239.012 67.0993C238.917 65.9622 238.792 64.8021 238.642 63.6716L238.627 63.5617C238.619 63.5153 238.621 63.4679 238.631 63.4221C238.642 63.3764 238.662 63.3333 238.69 63.2955C238.718 63.2576 238.753 63.2258 238.793 63.2019C238.834 63.1779 238.878 63.1624 238.925 63.1562C238.971 63.1501 239.018 63.1533 239.064 63.1659C239.109 63.1784 239.151 63.2 239.188 63.2293C239.224 63.2585 239.255 63.2949 239.277 63.3362C239.299 63.3776 239.313 63.423 239.317 63.4698L239.332 63.5814C239.483 64.7299 239.609 65.8917 239.705 67.0403C239.713 67.1325 239.684 67.224 239.624 67.2948C239.565 67.3655 239.48 67.4097 239.388 67.4177L239.381 67.4193ZM94.5468 70.619H94.5108C94.4198 70.6135 94.3346 70.5724 94.2734 70.5046C94.2123 70.4368 94.18 70.3477 94.1836 70.2563C94.2261 69.1077 94.2998 67.9329 94.3979 66.7827C94.4095 66.6933 94.4551 66.6119 94.5252 66.5555C94.5952 66.499 94.6843 66.4719 94.7738 66.4797C94.8633 66.4875 94.9463 66.5297 95.0055 66.5975C95.0648 66.6653 95.0956 66.7533 95.0916 66.8434C94.9934 67.9821 94.928 69.1406 94.8789 70.2891C94.8738 70.3753 94.837 70.4566 94.7756 70.5171C94.7143 70.5777 94.6328 70.6134 94.5468 70.6173V70.619ZM238.194 59.0805C238.109 59.0862 238.026 59.061 237.959 59.0097C237.892 58.9584 237.846 58.8845 237.829 58.8016C237.605 57.6792 237.351 56.5487 237.073 55.4395C237.058 55.3523 237.077 55.2627 237.126 55.1889C237.174 55.1151 237.249 55.0625 237.334 55.0417C237.42 55.0209 237.51 55.0335 237.587 55.0768C237.664 55.1202 237.722 55.1911 237.749 55.2754C238.028 56.3944 238.285 57.5365 238.513 58.6686C238.53 58.7596 238.512 58.8539 238.461 58.931C238.409 59.0082 238.33 59.0619 238.239 59.0805H238.194ZM95.3387 62.3524C95.3131 62.3556 95.2873 62.3556 95.2618 62.3524C95.2166 62.3455 95.1732 62.3299 95.1341 62.3062C95.095 62.2825 95.061 62.2514 95.0339 62.2145C95.0069 62.1776 94.9873 62.1357 94.9765 62.0912C94.9656 62.0467 94.9636 62.0005 94.9705 61.9553C95.1472 60.8067 95.3534 59.6581 95.5841 58.521C95.5914 58.4743 95.6081 58.4297 95.6331 58.3897C95.6581 58.3497 95.6909 58.3152 95.7296 58.2883C95.7683 58.2614 95.812 58.2426 95.8581 58.2331C95.9042 58.2236 95.9518 58.2235 95.9979 58.233C96.044 58.2424 96.0878 58.2611 96.1265 58.2879C96.1652 58.3148 96.1981 58.3492 96.2232 58.3892C96.2483 58.4291 96.265 58.4738 96.2724 58.5204C96.2798 58.567 96.2778 58.6147 96.2663 58.6604C96.0373 59.7844 95.8344 60.9281 95.6593 62.0619C95.6457 62.1392 95.6068 62.2097 95.5487 62.2623C95.4906 62.3149 95.4167 62.3466 95.3387 62.3524ZM236.109 51.0469C236.032 51.0517 235.955 51.0304 235.891 50.9864C235.827 50.9424 235.779 50.8782 235.756 50.8041C235.406 49.7162 235.024 48.6217 234.622 47.5519C234.589 47.4648 234.593 47.3684 234.631 47.2838C234.669 47.1992 234.74 47.1333 234.826 47.1007C234.913 47.068 235.009 47.0713 235.094 47.1098C235.178 47.1482 235.244 47.2187 235.276 47.3058C235.682 48.3854 236.068 49.4914 236.422 50.5875C236.45 50.6756 236.442 50.7714 236.4 50.8538C236.358 50.9363 236.285 50.9986 236.197 51.0272C236.169 51.0347 236.139 51.0396 236.109 51.042V51.0469ZM97.0745 54.2137C97.0354 54.2158 96.9961 54.2114 96.9584 54.2006C96.9144 54.1885 96.8733 54.1678 96.8373 54.1396C96.8013 54.1115 96.7713 54.0766 96.7488 54.0368C96.7263 53.9971 96.7118 53.9532 96.7062 53.9078C96.7007 53.8625 96.7041 53.8164 96.7162 53.7723C97.0222 52.6566 97.3592 51.5342 97.7175 50.4332C97.7318 50.3896 97.7545 50.3492 97.7844 50.3144C97.8142 50.2795 97.8506 50.2509 97.8915 50.2302C97.9323 50.2095 97.9769 50.1971 98.0225 50.1936C98.0682 50.1901 98.1141 50.1957 98.1576 50.2101C98.2011 50.2244 98.2414 50.2472 98.2761 50.2771C98.3108 50.307 98.3393 50.3436 98.36 50.3845C98.3807 50.4255 98.3931 50.4702 98.3965 50.516C98.4 50.5618 98.3944 50.6078 98.3801 50.6515C98.0234 51.741 97.6897 52.8535 97.387 53.9578C97.367 54.0268 97.3262 54.0879 97.2703 54.1328C97.2144 54.1777 97.146 54.2043 97.0745 54.2088V54.2137ZM233.117 43.3004C233.046 43.3046 232.976 43.2872 232.915 43.2506C232.854 43.214 232.806 43.1599 232.776 43.0953C232.304 42.055 231.795 41.0115 231.278 39.9941C231.234 39.9117 231.226 39.8153 231.253 39.7262C231.28 39.6371 231.342 39.5626 231.424 39.5191C231.507 39.4756 231.603 39.4666 231.691 39.4942C231.78 39.5217 231.855 39.5835 231.898 39.666C232.423 40.6931 232.934 41.7466 233.41 42.7983C233.448 42.8826 233.451 42.9786 233.419 43.0653C233.387 43.1521 233.322 43.2225 233.238 43.2611C233.2 43.2796 233.159 43.2913 233.117 43.2955V43.3004ZM99.7282 46.3327C99.6763 46.3357 99.6244 46.3273 99.5761 46.3081C99.4907 46.2731 99.4225 46.2058 99.3864 46.1207C99.3502 46.0356 99.349 45.9396 99.383 45.8536C99.8149 44.7821 100.278 43.7057 100.759 42.6539C100.798 42.5708 100.869 42.5065 100.955 42.4751C101.041 42.4436 101.136 42.4476 101.22 42.486C101.303 42.5245 101.368 42.5943 101.4 42.6805C101.432 42.7666 101.429 42.862 101.392 42.946C100.914 43.9748 100.455 45.0479 100.029 46.1079C100.005 46.1697 99.9644 46.2233 99.911 46.2623C99.8576 46.3013 99.7942 46.3241 99.7282 46.3278V46.3327ZM229.259 35.9544C229.195 35.9605 229.13 35.9484 229.072 35.9194C229.014 35.8903 228.965 35.8456 228.932 35.7903C228.344 34.814 227.724 33.836 227.091 32.8876C227.04 32.8106 227.021 32.7162 227.039 32.6253C227.057 32.5344 227.11 32.4543 227.187 32.4027C227.264 32.3512 227.358 32.3323 227.448 32.3503C227.539 32.3683 227.619 32.4217 227.67 32.4987C228.31 33.457 228.935 34.4431 229.527 35.4309C229.558 35.4821 229.576 35.5405 229.578 35.6004C229.58 35.6604 229.566 35.7198 229.539 35.773C229.511 35.8261 229.47 35.8712 229.42 35.9039C229.37 35.9365 229.312 35.9556 229.252 35.9593L229.259 35.9544ZM103.262 38.8062C103.197 38.8109 103.131 38.7967 103.074 38.7651C102.993 38.7204 102.933 38.6455 102.907 38.5567C102.881 38.4679 102.891 38.3724 102.935 38.2909C103.485 37.2769 104.065 36.2596 104.663 35.2718C104.685 35.2297 104.715 35.1927 104.752 35.1629C104.789 35.1331 104.832 35.1112 104.878 35.0985C104.923 35.0858 104.971 35.0826 105.018 35.0891C105.065 35.0956 105.11 35.1116 105.151 35.1362C105.191 35.1608 105.227 35.1935 105.254 35.2322C105.282 35.2709 105.301 35.3148 105.311 35.3613C105.321 35.4078 105.322 35.4558 105.313 35.5025C105.303 35.5492 105.285 35.5935 105.258 35.6327C104.668 36.6173 104.092 37.6198 103.547 38.624C103.519 38.6763 103.478 38.7205 103.428 38.7524C103.378 38.7843 103.321 38.8028 103.262 38.8062ZM224.591 29.0989C224.534 29.1024 224.477 29.0918 224.425 29.068C224.373 29.0443 224.327 29.0081 224.292 28.9627C223.597 28.0569 222.868 27.1578 222.132 26.2865C222.073 26.216 222.043 26.1246 222.051 26.0324C222.058 25.9403 222.102 25.8549 222.172 25.795C222.243 25.7352 222.334 25.7058 222.426 25.7134C222.518 25.7209 222.603 25.7647 222.662 25.8352C223.407 26.7131 224.135 27.6221 224.843 28.5361C224.872 28.5724 224.892 28.614 224.905 28.6585C224.917 28.703 224.92 28.7494 224.914 28.7952C224.909 28.8409 224.894 28.8851 224.871 28.9251C224.848 28.9651 224.817 29.0002 224.781 29.0283C224.726 29.0699 224.66 29.0944 224.591 29.0989ZM107.626 31.739C107.56 31.7437 107.494 31.7296 107.437 31.6983C107.379 31.6671 107.331 31.6201 107.299 31.5627C107.267 31.5052 107.251 31.4398 107.255 31.374C107.258 31.3082 107.28 31.2447 107.318 31.191C107.972 30.2442 108.671 29.3023 109.376 28.3884C109.404 28.3522 109.439 28.3219 109.478 28.2991C109.518 28.2764 109.562 28.2617 109.607 28.2559C109.652 28.2502 109.698 28.2534 109.742 28.2654C109.786 28.2774 109.828 28.298 109.864 28.326C109.9 28.3541 109.93 28.3889 109.953 28.4287C109.975 28.4684 109.99 28.5122 109.996 28.5576C110.002 28.603 109.998 28.6491 109.986 28.6933C109.974 28.7374 109.954 28.7788 109.926 28.815C109.229 29.7208 108.543 30.6544 107.887 31.5913C107.858 31.6342 107.819 31.6698 107.773 31.6954C107.728 31.721 107.677 31.7359 107.626 31.739ZM219.171 22.8226C219.121 22.8258 219.07 22.8181 219.023 22.8C218.976 22.7818 218.933 22.7538 218.898 22.7176C218.104 21.8972 217.28 21.085 216.444 20.3023C216.407 20.2718 216.377 20.2342 216.355 20.1917C216.334 20.1491 216.321 20.1026 216.318 20.055C216.315 20.0074 216.322 19.9596 216.338 19.9147C216.354 19.8698 216.379 19.8287 216.412 19.7939C216.444 19.7592 216.484 19.7314 216.527 19.7124C216.571 19.6935 216.618 19.6837 216.666 19.6836C216.713 19.6836 216.76 19.6934 216.804 19.7123C216.848 19.7312 216.887 19.7589 216.92 19.7936C217.761 20.5829 218.592 21.4017 219.395 22.2303C219.459 22.2959 219.495 22.3843 219.495 22.4764C219.495 22.5685 219.459 22.6569 219.395 22.7225C219.335 22.7823 219.255 22.8179 219.171 22.8226ZM112.756 25.215C112.71 25.2187 112.664 25.2128 112.62 25.1979C112.577 25.1829 112.537 25.1591 112.503 25.128C112.468 25.0977 112.44 25.0609 112.42 25.0197C112.4 24.9785 112.389 24.9338 112.386 24.888C112.383 24.8423 112.389 24.7965 112.404 24.7532C112.419 24.7099 112.443 24.67 112.473 24.6358C113.236 23.771 114.031 22.9129 114.832 22.0859C114.863 22.0486 114.902 22.0182 114.945 21.9966C114.989 21.975 115.036 21.9628 115.084 21.9606C115.133 21.9584 115.181 21.9663 115.226 21.9839C115.271 22.0015 115.312 22.0283 115.346 22.0626C115.381 22.0969 115.407 22.138 115.425 22.1833C115.442 22.2286 115.45 22.277 115.448 22.3255C115.446 22.374 115.434 22.4215 115.412 22.465C115.391 22.5085 115.36 22.547 115.323 22.5781C114.528 23.3986 113.743 24.2469 112.987 25.1034C112.927 25.169 112.845 25.209 112.756 25.215ZM213.073 17.2011C212.985 17.207 212.898 17.1788 212.83 17.1223C211.948 16.3987 211.03 15.6849 210.12 15.0023C210.083 14.975 210.052 14.9406 210.029 14.9012C210.005 14.8618 209.99 14.8182 209.983 14.7728C209.977 14.7274 209.979 14.6811 209.99 14.6366C210.001 14.5921 210.021 14.5502 210.048 14.5134C210.076 14.4765 210.11 14.4454 210.149 14.4218C210.188 14.3983 210.232 14.3827 210.277 14.376C210.322 14.3693 210.369 14.3716 210.413 14.3828C210.457 14.394 210.499 14.4138 210.536 14.4412C211.46 15.1303 212.381 15.8507 213.271 16.5743C213.325 16.6187 213.365 16.6784 213.384 16.7456C213.404 16.8128 213.403 16.8843 213.382 16.951C213.36 17.0176 213.32 17.0763 213.265 17.1195C213.21 17.1626 213.143 17.1882 213.073 17.1929V17.2011ZM118.589 19.3194C118.517 19.3246 118.444 19.307 118.383 19.269C118.321 19.231 118.272 19.1746 118.244 19.1076C118.216 19.0406 118.21 18.9665 118.226 18.8955C118.242 18.8246 118.279 18.7606 118.334 18.7123C119.189 17.9395 120.074 17.1797 120.966 16.4496C121.037 16.391 121.129 16.3633 121.221 16.3726C121.313 16.3818 121.397 16.4272 121.455 16.4988C121.514 16.5704 121.541 16.6623 121.532 16.7543C121.523 16.8463 121.477 16.9309 121.406 16.9894C120.524 17.713 119.647 18.4662 118.8 19.2308C118.741 19.2831 118.667 19.3143 118.589 19.3194ZM206.377 12.3064C206.302 12.3113 206.228 12.2917 206.166 12.2506C205.207 11.6304 204.221 11.0249 203.232 10.4457C203.191 10.4236 203.155 10.3934 203.125 10.3568C203.096 10.3203 203.074 10.2781 203.061 10.2329C203.048 10.1877 203.045 10.1404 203.05 10.0937C203.056 10.0471 203.071 10.0021 203.095 9.96148C203.118 9.92085 203.15 9.8854 203.187 9.85726C203.225 9.82911 203.268 9.80885 203.313 9.79769C203.359 9.78652 203.406 9.78467 203.452 9.79226C203.499 9.79986 203.543 9.81672 203.583 9.84186C204.579 10.4211 205.575 11.0331 206.542 11.6599C206.603 11.6998 206.65 11.7578 206.677 11.8259C206.703 11.894 206.708 11.9688 206.69 12.0396C206.672 12.1104 206.632 12.1738 206.576 12.2208C206.52 12.2678 206.451 12.296 206.379 12.3015L206.377 12.3064ZM125.05 14.1294C124.99 14.1338 124.931 14.1227 124.877 14.0971C124.824 14.0715 124.778 14.0323 124.744 13.9834C124.716 13.9458 124.697 13.9032 124.686 13.858C124.676 13.8127 124.674 13.7659 124.682 13.72C124.689 13.6742 124.706 13.6303 124.731 13.591C124.755 13.5517 124.788 13.5178 124.826 13.4911C125.763 12.8233 126.728 12.1686 127.695 11.5467C127.734 11.5219 127.778 11.5051 127.823 11.4972C127.869 11.4892 127.915 11.4904 127.96 11.5005C128.005 11.5106 128.048 11.5296 128.086 11.5562C128.123 11.5829 128.156 11.6167 128.18 11.6558C128.205 11.6949 128.222 11.7385 128.23 11.7842C128.238 11.8298 128.236 11.8765 128.226 11.9217C128.216 11.9669 128.197 12.0096 128.171 12.0475C128.144 12.0853 128.11 12.1176 128.071 12.1423C127.113 12.7593 126.157 13.4074 125.23 14.0687C125.176 14.1055 125.114 14.1265 125.05 14.1294ZM199.163 8.20593C199.102 8.21022 199.041 8.19774 198.987 8.16983C197.963 7.66281 196.914 7.17384 195.867 6.71604C195.824 6.69846 195.784 6.67239 195.752 6.63937C195.719 6.60634 195.693 6.56704 195.675 6.52377C195.658 6.4805 195.649 6.43415 195.65 6.38746C195.65 6.34076 195.66 6.29467 195.679 6.2519C195.698 6.20913 195.725 6.17056 195.758 6.13845C195.792 6.10634 195.832 6.08136 195.876 6.06497C195.919 6.04858 195.966 6.04113 196.012 6.04304C196.059 6.04495 196.104 6.0562 196.147 6.07611C197.202 6.53719 198.262 7.03272 199.294 7.54467C199.36 7.58 199.413 7.63575 199.445 7.70364C199.477 7.77154 199.487 7.84798 199.472 7.92163C199.457 7.99528 199.42 8.06222 199.364 8.11255C199.308 8.16287 199.238 8.19389 199.163 8.20101V8.20593ZM132.05 9.71552C131.971 9.72159 131.891 9.70003 131.826 9.65445C131.76 9.60887 131.712 9.54204 131.689 9.46514C131.667 9.38824 131.672 9.30595 131.702 9.23204C131.733 9.15814 131.789 9.09711 131.859 9.05917C132.868 8.50293 133.904 7.96145 134.938 7.45442C134.979 7.43112 135.025 7.41653 135.072 7.41154C135.119 7.40655 135.167 7.41127 135.212 7.42541C135.258 7.43955 135.3 7.46281 135.336 7.49377C135.372 7.52473 135.401 7.56273 135.422 7.60545C135.443 7.64817 135.455 7.69471 135.457 7.74222C135.459 7.78973 135.452 7.83721 135.435 7.88175C135.418 7.92629 135.393 7.96696 135.36 8.00126C135.327 8.03556 135.288 8.06277 135.244 8.08123C134.225 8.58497 133.199 9.12153 132.194 9.68106C132.151 9.70217 132.104 9.71391 132.055 9.71552H132.05ZM191.533 4.95705C191.485 4.96011 191.437 4.95341 191.392 4.93736C190.317 4.55012 189.218 4.18421 188.12 3.84947C188.036 3.8191 187.967 3.75745 187.927 3.67728C187.886 3.59711 187.879 3.50456 187.905 3.41878C187.931 3.333 187.989 3.26054 188.067 3.2164C188.144 3.17226 188.236 3.15982 188.323 3.18165C189.426 3.51966 190.535 3.88886 191.621 4.28102C191.697 4.30743 191.762 4.35948 191.804 4.42828C191.846 4.49707 191.862 4.57834 191.851 4.65819C191.84 4.73803 191.801 4.81149 191.742 4.86601C191.683 4.92052 191.607 4.9527 191.526 4.95705H191.533ZM139.522 6.13682C139.44 6.14235 139.358 6.11814 139.291 6.06854C139.225 6.01895 139.178 5.94721 139.159 5.8662C139.141 5.78519 139.152 5.70021 139.19 5.62651C139.228 5.55282 139.292 5.49522 139.368 5.46407C140.434 5.02761 141.525 4.60919 142.611 4.22359C142.696 4.20142 142.785 4.21185 142.862 4.25281C142.94 4.29377 142.999 4.36227 143.028 4.44478C143.057 4.52728 143.054 4.61777 143.02 4.69835C142.986 4.77893 142.923 4.84373 142.844 4.87993C141.767 5.26225 140.687 5.67574 139.632 6.10893C139.598 6.12164 139.563 6.12938 139.527 6.1319L139.522 6.13682ZM183.583 2.59587C183.549 2.59796 183.515 2.5952 183.482 2.58766C182.368 2.32677 181.234 2.09541 180.11 1.8821C180.019 1.86534 179.938 1.81306 179.886 1.73674C179.833 1.66043 179.813 1.56633 179.83 1.47516C179.847 1.38399 179.899 1.30321 179.975 1.25059C180.051 1.19797 180.145 1.17782 180.236 1.19458C181.37 1.40461 182.515 1.64417 183.64 1.90671C183.722 1.92577 183.794 1.97358 183.843 2.04139C183.892 2.1092 183.915 2.1925 183.909 2.27608C183.902 2.35967 183.865 2.43796 183.805 2.49666C183.745 2.55537 183.667 2.59058 183.583 2.59587ZM147.361 3.43106C147.276 3.43533 147.192 3.40813 147.125 3.35461C147.059 3.30109 147.014 3.22497 147 3.14066C146.985 3.05634 147.002 2.9697 147.048 2.89712C147.093 2.82454 147.163 2.77106 147.245 2.74682C148.352 2.43506 149.483 2.14463 150.607 1.88538C150.697 1.86362 150.792 1.87862 150.871 1.92709C150.95 1.97555 151.006 2.05351 151.028 2.14381C151.05 2.23411 151.035 2.32936 150.986 2.40859C150.938 2.48783 150.86 2.54457 150.77 2.56633C149.658 2.8223 148.539 3.10945 147.441 3.41957C147.415 3.42651 147.388 3.43037 147.361 3.43106ZM175.414 1.17161C175.394 1.17407 175.373 1.17407 175.352 1.17161C174.218 1.04034 173.062 0.936965 171.93 0.859845C171.839 0.852074 171.754 0.808837 171.695 0.739424C171.635 0.670011 171.605 0.579962 171.611 0.48863C171.617 0.397298 171.659 0.31197 171.727 0.250985C171.795 0.189999 171.884 0.158223 171.975 0.162484C173.121 0.239604 174.287 0.346259 175.431 0.477527C175.517 0.487738 175.596 0.529814 175.653 0.595527C175.71 0.661241 175.74 0.745866 175.738 0.832854C175.736 0.919842 175.702 1.00294 175.642 1.06589C175.582 1.12884 175.501 1.16712 175.414 1.17325V1.17161ZM155.449 1.64089C155.36 1.64696 155.271 1.6181 155.202 1.56032C155.133 1.50254 155.089 1.42031 155.08 1.33078C155.07 1.24125 155.095 1.15133 155.149 1.07979C155.204 1.00825 155.284 0.960613 155.373 0.94681C156.081 0.831951 156.802 0.726936 157.516 0.631767C157.946 0.575978 158.381 0.52183 158.81 0.467682C158.9 0.459781 158.99 0.487532 159.06 0.545038C159.131 0.602544 159.176 0.685273 159.186 0.775646C159.197 0.866018 159.172 0.956911 159.116 1.02901C159.061 1.10111 158.98 1.14873 158.89 1.16176C158.465 1.20935 158.033 1.26349 157.607 1.32585C156.901 1.41938 156.186 1.52439 155.48 1.63925L155.449 1.64089ZM167.144 0.69412H167.121C165.976 0.69412 164.831 0.722014 163.685 0.776162C163.595 0.77774 163.508 0.744284 163.442 0.682808C163.376 0.621332 163.336 0.536614 163.331 0.446419C163.326 0.356225 163.356 0.267562 163.415 0.199025C163.474 0.130488 163.556 0.0874011 163.646 0.0788006C164.791 0.0230116 165.964 -0.00488281 167.115 -0.00488281C167.203 -0.00246211 167.288 0.0338529 167.351 0.0966457C167.414 0.159439 167.45 0.243972 167.453 0.332982C167.456 0.421993 167.425 0.508765 167.367 0.575578C167.308 0.642391 167.226 0.684204 167.137 0.692479L167.144 0.69412Z" fill="#3E7BFA"/>
<path d="M178.581 43.4183V163.552H178.267L169.198 154.701L160.13 163.552H159.184L150.115 154.701L141.045 163.552H140.114L131.06 154.717L122.008 163.552H121.08L112.018 154.707L102.954 163.552H101.998L92.9346 154.707L83.8708 163.552H82.9268L73.8809 154.724L64.8351 163.552H64.2363V10.0303H145.29L178.581 43.4183Z" fill="#E7EDFC"/>
<path d="M178.582 43.4183H145.291V10.0303L178.582 43.4183Z" fill="#3E7BFA" fill-opacity="0.1"/>
<path d="M98.4715 104.36V100.434H87.7339C86.3776 100.434 85.3604 100.131 84.6823 99.5259C84.0041 98.9208 83.665 98.0976 83.665 97.0565C83.6651 96.7792 83.7143 96.504 83.8104 96.2434C83.9257 95.9404 84.0764 95.6516 84.2594 95.383C84.4585 95.0804 84.6663 94.7893 84.8799 94.5067C85.0935 94.2242 85.358 93.8815 85.6719 93.4728L97.0067 78.5055C97.7488 77.5199 98.3586 76.8057 98.8363 76.363C99.2988 75.9256 99.9178 75.6865 100.558 75.6976C102.726 75.6976 103.811 76.9223 103.811 79.3717V95.7042H104.73C105.827 95.7042 106.708 95.8524 107.372 96.1487C108.037 96.4451 108.368 97.0924 108.366 98.0905C108.366 98.9069 108.095 99.5016 107.554 99.8744C107.012 100.247 106.2 100.434 105.115 100.434H103.808V104.36C103.808 105.444 103.565 106.25 103.081 106.777C102.597 107.303 101.948 107.567 101.135 107.568C100.772 107.581 100.41 107.515 100.075 107.375C99.7404 107.235 99.441 107.024 99.1981 106.756C98.7147 106.214 98.4725 105.416 98.4715 104.36ZM89.2743 95.7042H98.4715V83.4401L89.2743 95.7042Z" fill="#3E7BFA"/>
<path d="M132.271 91.7976C132.271 94.1227 132.128 96.1214 131.843 97.7937C131.589 99.3897 131.063 100.929 130.288 102.343C129.337 104.015 128.104 105.305 126.591 106.212C124.938 107.175 123.049 107.643 121.144 107.56C119.238 107.478 117.396 106.847 115.831 105.744C114.143 104.525 112.871 102.84 112.018 100.689C111.563 99.4277 111.242 98.1205 111.062 96.79C110.852 95.2588 110.75 93.7145 110.758 92.1687C110.745 90.2379 110.857 88.3082 111.093 86.3921C111.268 84.8811 111.621 83.3967 112.144 81.9701C112.97 79.93 114.172 78.3747 115.747 77.3041C117.323 76.2335 119.203 75.6982 121.387 75.6982C122.73 75.6802 124.063 75.9218 125.316 76.4102C126.482 76.878 127.537 77.5879 128.415 78.4941C129.354 79.48 130.118 80.6222 130.674 81.8705C131.738 84.2091 132.271 87.5181 132.271 91.7976ZM126.514 91.373C126.514 88.7793 126.359 86.6569 126.051 85.0057C125.743 83.3546 125.225 82.1073 124.497 81.264C123.769 80.4215 122.761 79.9998 121.471 79.9989C119.624 79.9989 118.339 80.9414 117.618 82.8265C116.897 84.7116 116.536 87.6173 116.536 91.5434C116.536 94.2074 116.69 96.39 116.999 98.0912C117.307 99.7924 117.825 101.078 118.553 101.948C119.281 102.821 120.268 103.257 121.516 103.257C122.804 103.257 123.812 102.803 124.541 101.897C125.27 100.99 125.781 99.6927 126.074 98.006C126.367 96.3192 126.514 94.1082 126.514 91.373Z" fill="#3E7BFA"/>
<path d="M149.47 104.36V100.434H138.73C137.374 100.434 136.357 100.131 135.678 99.526C135 98.9208 134.661 98.0976 134.661 97.0565C134.661 96.7792 134.71 96.504 134.806 96.2434C134.921 95.9401 135.072 95.6513 135.256 95.383C135.455 95.0804 135.661 94.7893 135.876 94.5068C136.091 94.2243 136.353 93.8815 136.667 93.4728L148.002 78.5056C148.743 77.5199 149.353 76.8057 149.832 76.3631C150.294 75.9253 150.913 75.686 151.554 75.6977C153.721 75.6977 154.805 76.9224 154.805 79.3717V95.7042H155.725C156.823 95.7042 157.704 95.8524 158.367 96.1488C159.03 96.4451 159.361 97.0924 159.362 98.0905C159.362 98.9069 159.091 99.5016 158.549 99.8744C158.006 100.247 157.193 100.434 156.11 100.434H154.802V104.36C154.802 105.444 154.56 106.25 154.075 106.777C153.591 107.303 152.942 107.567 152.128 107.568C151.765 107.581 151.403 107.515 151.068 107.375C150.734 107.235 150.435 107.024 150.192 106.756C149.711 106.214 149.47 105.416 149.47 104.36ZM140.271 95.7042H149.47V83.4401L140.271 95.7042Z" fill="#3E7BFA"/>
<path d="M120.52 198.815C120.145 199.191 119.701 199.489 119.211 199.693C118.722 199.896 118.198 200.001 117.668 200.001C117.138 200.001 116.614 199.896 116.125 199.693C115.635 199.489 115.191 199.191 114.816 198.815L90.3292 174.258L87.2207 171.141C89.4899 169.638 91.4318 167.69 92.929 165.414L120.528 193.095C120.902 193.471 121.199 193.918 121.401 194.409C121.603 194.9 121.706 195.426 121.706 195.957C121.705 196.488 121.6 197.014 121.396 197.504C121.193 197.995 120.895 198.44 120.52 198.815Z" fill="#8F90A6"/>
<path d="M94.1607 166.658L100.541 173.058C99.0461 175.331 97.1064 177.277 94.8396 178.778L91.5675 175.496L88.459 172.378C90.7255 170.878 92.6652 168.932 94.1607 166.658Z" fill="#555770"/>
<path d="M100.519 153.331C100.382 150.02 99.5705 146.772 98.1356 143.786C96.7008 140.8 94.6726 138.141 92.1755 135.97C88.6534 132.899 84.3251 130.91 79.7067 130.239C75.0884 129.567 70.3751 130.242 66.1287 132.183C61.8824 134.124 58.2823 137.249 55.7577 141.185C53.2332 145.122 51.8908 149.703 51.8906 154.383C51.8906 155.305 51.9419 156.226 52.0444 157.141C52.355 159.919 53.1427 162.621 54.3725 165.129C56.0993 168.649 58.6445 171.702 61.7937 174.029C62.3031 174.407 62.8266 174.764 63.3644 175.101C67.4409 177.642 72.1756 178.918 76.9733 178.768C81.7709 178.619 86.4174 177.05 90.3284 174.259C92.5338 172.682 94.4627 170.748 96.0366 168.537C98.9777 164.408 100.555 159.459 100.546 154.385C100.542 154.032 100.534 153.68 100.519 153.331ZM76.2157 174.439C73.5896 174.439 70.9891 173.921 68.5629 172.913C66.1367 171.905 63.9322 170.427 62.0752 168.565C60.2182 166.703 58.7452 164.492 57.7403 162.058C56.7353 159.625 56.218 157.017 56.218 154.383C56.218 151.749 56.7353 149.141 57.7403 146.708C58.7452 144.275 60.2182 142.064 62.0752 140.201C63.9322 138.339 66.1367 136.862 68.5629 135.854C70.9891 134.846 73.5896 134.327 76.2157 134.327C77.0881 134.325 77.9598 134.38 78.8252 134.491C83.6359 135.126 88.0522 137.494 91.2515 141.153C94.4508 144.812 96.2148 149.512 96.215 154.378C96.215 154.683 96.2068 154.987 96.1937 155.289C96.0355 158.792 94.964 162.193 93.0863 165.152C91.2085 168.11 88.5901 170.523 85.4922 172.15C84.2134 172.824 82.8648 173.355 81.4707 173.734C79.758 174.202 77.9908 174.439 76.2157 174.439Z" fill="#8F90A6"/>
<path d="M61.0728 156.588C60.5777 156.588 60.1029 156.391 59.7528 156.04C59.4027 155.689 59.2061 155.213 59.2061 154.716C59.2061 150.103 61.0332 145.679 64.2855 142.418C67.5378 139.156 71.9489 137.323 76.5484 137.323C77.0341 137.338 77.4952 137.541 77.8337 137.891C78.1722 138.241 78.3615 138.709 78.3615 139.196C78.3615 139.684 78.1722 140.152 77.8337 140.502C77.4952 140.851 77.0341 141.055 76.5484 141.069C72.9395 141.069 69.4785 142.507 66.9266 145.066C64.3748 147.626 62.9412 151.097 62.9412 154.716C62.9412 154.962 62.8929 155.206 62.7989 155.433C62.705 155.66 62.5674 155.867 62.3939 156.041C62.2203 156.215 62.0144 156.352 61.7877 156.446C61.561 156.54 61.3181 156.589 61.0728 156.588Z" fill="white"/>
</svg>
