<svg width="24" height="24" viewBox="0 0 24 24" fill="none" xmlns="http://www.w3.org/2000/svg">
<path d="M18.1172 12.1182C17.7578 12.1182 17.4219 12.1572 17.1094 12.2354L16.5117 10.7822L15.1289 11.3564L15.7266 12.8096C15.1484 13.1768 14.6758 13.6494 14.3086 14.2275L12.8555 13.6299L12.2812 15.0127L13.7344 15.6104C13.6562 15.9229 13.6172 16.2588 13.6172 16.6182C13.6172 16.9775 13.6562 17.3135 13.7344 17.626L12.2812 18.2236L12.8555 19.6064L14.3086 19.0088C14.6758 19.5869 15.1484 20.0596 15.7266 20.4268L15.1289 21.8682L16.5117 22.4424L17.1094 21.001C17.4219 21.0791 17.7578 21.1182 18.1172 21.1182C18.4766 21.1182 18.8125 21.0791 19.125 21.001L19.7227 22.4424L21.1055 21.8682L20.5078 20.4268C21.0859 20.0596 21.5586 19.5869 21.9258 19.0088L23.3789 19.6064L23.9414 18.2236L22.5 17.626C22.5781 17.3135 22.6172 16.9775 22.6172 16.6182C22.6172 16.2588 22.5781 15.9229 22.5 15.6104L23.9414 15.0127L23.3789 13.6299L21.9258 14.2275C21.5586 13.6494 21.0859 13.1768 20.5078 12.8096L21.1055 11.3564L19.7227 10.7822L19.125 12.2354C18.8125 12.1572 18.4766 12.1182 18.1172 12.1182ZM18.1172 19.6182C17.7031 19.6182 17.3164 19.54 16.957 19.3838C16.5977 19.2275 16.2773 19.0127 15.9961 18.7393C15.7148 18.4658 15.5 18.1494 15.3516 17.79C15.2031 17.4307 15.125 17.04 15.1172 16.6182C15.1172 16.2041 15.1953 15.8174 15.3516 15.458C15.5078 15.0986 15.7227 14.7783 15.9961 14.4971C16.2695 14.2158 16.5859 14.001 16.9453 13.8525C17.3047 13.7041 17.6953 13.626 18.1172 13.6182C18.5312 13.6182 18.918 13.6963 19.2773 13.8525C19.6367 14.0088 19.957 14.2236 20.2383 14.4971C20.5195 14.7705 20.7344 15.0869 20.8828 15.4463C21.0312 15.8057 21.1094 16.1963 21.1172 16.6182C21.1172 17.0322 21.0391 17.4189 20.8828 17.7783C20.7266 18.1377 20.5117 18.458 20.2383 18.7393C19.9648 19.0205 19.6484 19.2354 19.2891 19.3838C18.9297 19.5322 18.5391 19.6104 18.1172 19.6182ZM12.9844 11.7197L13.5586 10.3252L11.9531 9.66895C12.0625 9.23145 12.1172 8.79785 12.1172 8.36816C12.1172 7.93848 12.0625 7.50488 11.9531 7.06738L13.5586 6.39941L12.9844 5.0166L11.3789 5.68457C11.1445 5.28613 10.8789 4.94238 10.582 4.65332C10.2852 4.36426 9.94141 4.09473 9.55078 3.84473L10.2188 2.23926L8.82422 1.67676L8.16797 3.28223C7.73047 3.17285 7.29688 3.11816 6.86719 3.11816C6.4375 3.11816 6.00391 3.17285 5.56641 3.28223L4.89844 1.67676L3.51562 2.23926L4.18359 3.84473C3.78516 4.09473 3.44141 4.36426 3.15234 4.65332C2.86328 4.94238 2.59375 5.28613 2.34375 5.68457L0.738281 5.0166L0.175781 6.39941L1.78125 7.06738C1.67188 7.50488 1.61719 7.93848 1.61719 8.36816C1.61719 8.79785 1.67188 9.23145 1.78125 9.66895L0.175781 10.3252L0.738281 11.7197L2.34375 11.0518C2.59375 11.4424 2.86328 11.7861 3.15234 12.083C3.44141 12.3799 3.78516 12.6455 4.18359 12.8799L3.51562 14.4854L4.89844 15.0596L5.56641 13.4541C6.00391 13.5635 6.4375 13.6182 6.86719 13.6182C7.29688 13.6182 7.73047 13.5635 8.16797 13.4541L8.82422 15.0596L10.2188 14.4854L9.55078 12.8799C10.3086 12.4189 10.918 11.8096 11.3789 11.0518L12.9844 11.7197ZM6.86719 4.61816C7.38281 4.61816 7.86719 4.71582 8.32031 4.91113C8.77344 5.10645 9.16797 5.37207 9.50391 5.70801C9.83984 6.04395 10.1094 6.44238 10.3125 6.90332C10.5156 7.36426 10.6172 7.85254 10.6172 8.36816C10.6172 8.88379 10.5195 9.36816 10.3242 9.82129C10.1289 10.2744 9.85938 10.6689 9.51562 11.0049C9.17188 11.3408 8.77344 11.6104 8.32031 11.8135C7.86719 12.0166 7.38281 12.1182 6.86719 12.1182C6.35156 12.1182 5.86719 12.0205 5.41406 11.8252C4.96094 11.6299 4.5625 11.3604 4.21875 11.0166C3.875 10.6729 3.60547 10.2744 3.41016 9.82129C3.21484 9.36816 3.11719 8.88379 3.11719 8.36816C3.11719 7.85254 3.21484 7.36816 3.41016 6.91504C3.60547 6.46191 3.87109 6.06348 4.20703 5.71973C4.54297 5.37598 4.94141 5.10645 5.40234 4.91113C5.86328 4.71582 6.35156 4.61816 6.86719 4.61816ZM23.9648 6.41113L21.3164 3.75098L23.9648 1.09082L22.9102 0.0361328L20.25 2.69629L17.5898 0.0361328L16.5352 1.09082L19.1953 3.75098L16.5352 6.41113L17.5898 7.46582L20.25 4.80566L22.9102 7.46582L23.9648 6.41113Z" fill="#E02D3C"/>
</svg>
