<svg width="40" height="30" viewBox="0 0 40 30" fill="none" xmlns="http://www.w3.org/2000/svg">
<path d="M22.4638 4.72324L16.9229 15.7541L11.1601 4.6196C10.5119 3.36778 8.67649 3.51051 8.23012 4.84778L5.42285 13.256L6.21922 14.7532L11.9965 25.0496C12.4492 25.8569 13.6229 25.8196 14.0229 24.9851L19.5856 13.396L23.2447 24.6669C23.5719 25.6741 24.5101 26.356 25.5692 26.356H32.9019L25.4665 4.92142C24.9938 3.55688 23.1119 3.43233 22.4638 4.72324Z" fill="#00DDB3"/>
<path d="M7.31463 23.1559C7.31463 24.9249 5.881 26.3586 4.11191 26.3586C2.34373 26.3586 0.90918 24.9249 0.90918 23.1559C0.90918 21.3868 2.34373 19.9531 4.11191 19.9531C5.881 19.9531 7.31463 21.3868 7.31463 23.1559Z" fill="#191919"/>
</svg>
