<svg width="60" height="60" viewBox="0 0 60 60" fill="none" xmlns="http://www.w3.org/2000/svg">
<path d="M19.0089 27.1021C15.8306 27.1021 13.5918 29.4871 13.5918 32.881C13.5918 36.2748 15.795 38.7668 19.0089 38.7668C22.2227 38.7668 24.4259 36.4192 24.4259 32.881C24.4259 29.3428 22.0408 27.1021 19.0089 27.1021Z" fill="#1CEBA6"/>
<path d="M40.996 27.2615C37.8309 27.2615 35.5996 29.6353 35.5996 33.016C35.5996 36.3968 37.7953 38.8812 40.996 38.8812C44.1968 38.8812 46.3925 36.543 46.3925 33.016C46.3925 29.489 44.0168 27.2615 40.996 27.2615Z" fill="#1CEBA6"/>
<path d="M40.9964 42.7663C35.2418 42.7663 31.248 38.5212 31.248 32.8004C31.248 27.0796 35.2043 22.872 40.9964 22.872C46.7884 22.872 50.7823 26.9727 50.7823 32.8004C50.7823 38.6281 46.7903 42.7663 40.9964 42.7663ZM28.531 46.5577C27.3797 46.2127 25.4859 43.9682 24.9609 40.52C23.4271 41.8701 21.0345 42.667 19.0094 42.667C13.2305 42.667 9.22165 38.4049 9.22165 32.6616C9.22165 26.9183 13.1949 22.6938 19.0094 22.6938C21.1433 22.6938 23.0295 23.2526 24.5671 24.2445V13.4442H28.756V37.8237C28.8066 41.6413 31.7711 43.5014 31.7917 43.5107C31.4036 44.0057 28.696 46.6065 28.531 46.5558M44.6321 0H15.3718C6.91716 0 0.00195312 6.91522 0.00195312 15.3699V44.6301C0.00195312 53.0848 6.91716 60 15.3718 60H44.6321C53.0849 60 60.0001 53.0848 60.0001 44.6301V15.3699C60.0001 6.91522 53.0849 0 44.6321 0Z" fill="#1CEBA6"/>
</svg>
