<svg width="18" height="18" viewBox="0 0 18 18" fill="none" xmlns="http://www.w3.org/2000/svg">
<path fill-rule="evenodd" clip-rule="evenodd" d="M7.94261 2.29793C4.69812 2.80575 2.216 5.61306 2.216 9.00009C2.216 12.7468 5.25334 15.7842 9.00009 15.7842C12.3871 15.7842 15.1944 13.3021 15.7023 10.0576C14.7027 11.1072 13.2918 11.7614 11.7274 11.7614C8.69605 11.7614 6.23874 9.30413 6.23874 6.27283C6.23874 4.70838 6.89302 3.29744 7.94261 2.29793ZM0.78418 9.00009C0.78418 4.46257 4.46257 0.78418 9.00009 0.78418C9.56953 0.78418 10.1262 0.842218 10.6642 0.952947C10.9901 1.02003 11.2269 1.30287 11.2355 1.63553C11.2442 1.96819 11.0225 2.26296 10.7005 2.34691C8.95676 2.80153 7.67056 4.38786 7.67056 6.27283C7.67056 8.51335 9.48682 10.3296 11.7274 10.3296C13.6123 10.3296 15.1987 9.04342 15.6532 7.29973C15.7372 6.97772 16.032 6.75601 16.3646 6.76466C16.6973 6.77331 16.9801 7.01004 17.0472 7.33598C17.158 7.87397 17.216 8.43064 17.216 9.00009C17.216 13.5376 13.5376 17.216 9.00009 17.216C4.46257 17.216 0.78418 13.5376 0.78418 9.00009Z" fill="#3F6DE1" fill-opacity="0.38"/>
</svg>
