<svg width="19" height="18" viewBox="0 0 19 18" fill="none" xmlns="http://www.w3.org/2000/svg">
<path fill-rule="evenodd" clip-rule="evenodd" d="M7.94339 2.29793C4.69854 2.80575 2.21615 5.61306 2.21615 9.00009C2.21615 12.7468 5.25382 15.7842 9.00098 15.7842C12.3884 15.7842 15.196 13.3021 15.7039 10.0576C14.7042 11.1072 13.2931 11.7614 11.7285 11.7614C8.69691 11.7614 6.23933 9.30413 6.23933 6.27283C6.23933 4.70838 6.89369 3.29744 7.94339 2.29793ZM0.78418 9.00009C0.78418 4.46257 4.46296 0.78418 9.00098 0.78418C9.57048 0.78418 10.1272 0.842218 10.6652 0.952947C10.9912 1.02003 11.228 1.30287 11.2367 1.63553C11.2453 1.96819 11.0236 2.26296 10.7015 2.34691C8.95764 2.80153 7.67131 4.38786 7.67131 6.27283C7.67131 8.51335 9.48777 10.3296 11.7285 10.3296C13.6137 10.3296 15.2002 9.04342 15.6549 7.29973C15.7388 6.97772 16.0336 6.75601 16.3663 6.76466C16.699 6.77331 16.9819 7.01004 17.049 7.33598C17.1597 7.87397 17.2178 8.43064 17.2178 9.00009C17.2178 13.5376 13.539 17.216 9.00098 17.216C4.46296 17.216 0.78418 13.5376 0.78418 9.00009Z" fill="white"/>
</svg>
