<svg width="19" height="19" viewBox="0 0 19 19" fill="none" xmlns="http://www.w3.org/2000/svg">
<path d="M9.03809 1.625V2.80625" stroke="#333333" stroke-width="2" stroke-linecap="round" stroke-linejoin="round"/>
<path fill-rule="evenodd" clip-rule="evenodd" d="M14.6065 3.93152L13.7712 4.76677L14.6065 3.93152Z" fill="#333333"/>
<path d="M14.6065 3.93152L13.7712 4.76677" stroke="#333333" stroke-width="2" stroke-linecap="round" stroke-linejoin="round"/>
<path d="M16.9132 9.5H15.7319" stroke="#333333" stroke-width="2" stroke-linecap="round" stroke-linejoin="round"/>
<path fill-rule="evenodd" clip-rule="evenodd" d="M14.6065 15.0684L13.7712 14.2332L14.6065 15.0684Z" fill="#333333"/>
<path d="M14.6065 15.0684L13.7712 14.2332" stroke="#333333" stroke-width="2" stroke-linecap="round" stroke-linejoin="round"/>
<path d="M9.03809 17.375V16.1937" stroke="#333333" stroke-width="2" stroke-linecap="round" stroke-linejoin="round"/>
<path fill-rule="evenodd" clip-rule="evenodd" d="M3.46973 15.0684L4.30498 14.2332L3.46973 15.0684Z" fill="#333333"/>
<path d="M3.46973 15.0684L4.30498 14.2332" stroke="#333333" stroke-width="2" stroke-linecap="round" stroke-linejoin="round"/>
<path d="M1.16309 9.5H2.34434" stroke="#333333" stroke-width="2" stroke-linecap="round" stroke-linejoin="round"/>
<path fill-rule="evenodd" clip-rule="evenodd" d="M3.46973 3.93152L4.30498 4.76677L3.46973 3.93152Z" fill="#333333"/>
<path d="M3.46973 3.93152L4.30498 4.76677" stroke="#333333" stroke-width="2" stroke-linecap="round" stroke-linejoin="round"/>
<path d="M9.28027 13C11.2133 13 12.7803 11.433 12.7803 9.5C12.7803 7.56701 11.2133 6 9.28027 6C7.34728 6 5.78027 7.56701 5.78027 9.5C5.78027 11.433 7.34728 13 9.28027 13Z" fill="#333333" stroke="#333333" stroke-width="2" stroke-linejoin="round"/>
</svg>
