<svg width="19" height="19" viewBox="0 0 19 19" fill="none" xmlns="http://www.w3.org/2000/svg">
<path d="M9.18262 1.625V2.80625" stroke="white" stroke-width="2" stroke-linecap="round" stroke-linejoin="round"/>
<path fill-rule="evenodd" clip-rule="evenodd" d="M14.7513 3.93152L13.916 4.76677L14.7513 3.93152Z" fill="white"/>
<path d="M14.7513 3.93152L13.916 4.76677" stroke="white" stroke-width="2" stroke-linecap="round" stroke-linejoin="round"/>
<path d="M17.0577 9.5H15.8765" stroke="white" stroke-width="2" stroke-linecap="round" stroke-linejoin="round"/>
<path fill-rule="evenodd" clip-rule="evenodd" d="M14.7513 15.0684L13.916 14.2332L14.7513 15.0684Z" fill="white"/>
<path d="M14.7513 15.0684L13.916 14.2332" stroke="white" stroke-width="2" stroke-linecap="round" stroke-linejoin="round"/>
<path d="M9.18262 17.375V16.1937" stroke="white" stroke-width="2" stroke-linecap="round" stroke-linejoin="round"/>
<path fill-rule="evenodd" clip-rule="evenodd" d="M3.61426 15.0684L4.44951 14.2332L3.61426 15.0684Z" fill="white"/>
<path d="M3.61426 15.0684L4.44951 14.2332" stroke="white" stroke-width="2" stroke-linecap="round" stroke-linejoin="round"/>
<path d="M1.30762 9.5H2.48887" stroke="white" stroke-width="2" stroke-linecap="round" stroke-linejoin="round"/>
<path fill-rule="evenodd" clip-rule="evenodd" d="M3.61426 3.93152L4.44951 4.76677L3.61426 3.93152Z" fill="white"/>
<path d="M3.61426 3.93152L4.44951 4.76677" stroke="white" stroke-width="2" stroke-linecap="round" stroke-linejoin="round"/>
<path d="M9.4248 13C11.3578 13 12.9248 11.433 12.9248 9.5C12.9248 7.56701 11.3578 6 9.4248 6C7.49181 6 5.9248 7.56701 5.9248 9.5C5.9248 11.433 7.49181 13 9.4248 13Z" fill="white" stroke="white" stroke-width="2" stroke-linejoin="round"/>
</svg>
