<svg width="36" height="25" viewBox="0 0 36 25" fill="none" xmlns="http://www.w3.org/2000/svg">
<path d="M23.7098 1.19478L17.6148 13.3288L11.2758 1.08078C10.5628 -0.296218 8.54384 -0.139218 8.05284 1.33178L4.96484 10.5808L5.84084 12.2278L12.1958 23.5538C12.6938 24.4418 13.9848 24.4008 14.4248 23.4828L20.5438 10.7348L24.5688 23.1328C24.9288 24.2408 25.9608 24.9908 27.1258 24.9908H35.1918L27.0128 1.41278C26.4928 -0.0882179 24.4228 -0.225218 23.7098 1.19478Z" fill="#00DDB3"/>
<path d="M7.046 21.4683C7.046 23.4143 5.469 24.9913 3.523 24.9913C1.578 24.9913 0 23.4143 0 21.4683C0 19.5223 1.578 17.9453 3.523 17.9453C5.469 17.9453 7.046 19.5223 7.046 21.4683Z" fill="#191919"/>
</svg>
